<?xml version="1.0" encoding="UTF-8"?>
<svg xmlns="http://www.w3.org/2000/svg" xmlns:xlink="http://www.w3.org/1999/xlink" width="230px" height="230px" viewBox="0 0 230 230" version="1.1">
<g id="surface1">
<path style=" stroke:none;fill-rule:nonzero;fill:rgb(100%,76.078431%,5.490196%);fill-opacity:1;" d="M 83.28125 137.738281 L 87.640625 137.738281 L 87.640625 138.976562 L 86.0625 138.976562 L 86.0625 144.199219 L 84.785156 144.199219 L 84.785156 138.976562 L 83.28125 138.976562 Z M 83.28125 137.738281 "/>
<path style=" stroke:none;fill-rule:nonzero;fill:rgb(100%,76.078431%,5.490196%);fill-opacity:1;" d="M 88.84375 137.738281 L 93.238281 137.738281 L 93.238281 138.976562 L 90.121094 138.976562 L 90.121094 140.367188 L 92.902344 140.367188 L 92.902344 141.609375 L 90.121094 141.609375 L 90.121094 143 L 93.390625 143 L 93.390625 144.238281 L 88.878906 144.238281 L 88.878906 137.738281 Z M 88.84375 137.738281 "/>
<path style=" stroke:none;fill-rule:nonzero;fill:rgb(100%,76.078431%,5.490196%);fill-opacity:1;" d="M 96.511719 142.847656 C 96.511719 143.410156 96.398438 143.898438 96.171875 144.277344 C 95.945312 144.652344 95.644531 144.988281 95.230469 145.179688 C 94.855469 145.402344 94.367188 145.515625 93.839844 145.515625 L 93.839844 144.3125 C 94.253906 144.277344 94.554688 144.164062 94.820312 143.9375 C 95.082031 143.710938 95.195312 143.335938 95.195312 142.808594 L 95.195312 137.738281 L 96.472656 137.738281 L 96.472656 142.847656 Z M 96.511719 142.847656 "/>
<path style=" stroke:none;fill-rule:nonzero;fill:rgb(100%,76.078431%,5.490196%);fill-opacity:1;" d="M 97.449219 144.199219 L 100.34375 137.511719 L 100.417969 137.511719 L 103.3125 144.199219 L 101.847656 144.199219 L 100.003906 139.464844 L 100.945312 138.828125 L 98.726562 144.164062 L 97.449219 144.164062 Z M 99.441406 141.871094 L 101.394531 141.871094 L 101.847656 142.921875 L 99.066406 142.921875 Z M 99.441406 141.871094 "/>
<path style=" stroke:none;fill-rule:nonzero;fill:rgb(100%,76.078431%,5.490196%);fill-opacity:1;" d="M 106.242188 137.738281 C 106.65625 137.738281 106.996094 137.773438 107.332031 137.886719 C 107.632812 138 107.898438 138.148438 108.121094 138.339844 C 108.347656 138.527344 108.5 138.75 108.609375 139.015625 C 108.722656 139.277344 108.761719 139.578125 108.761719 139.917969 C 108.761719 140.179688 108.722656 140.441406 108.648438 140.707031 C 108.574219 140.96875 108.421875 141.195312 108.273438 141.421875 C 108.085938 141.644531 107.859375 141.796875 107.558594 141.945312 C 107.257812 142.058594 106.921875 142.132812 106.46875 142.132812 L 105.566406 142.132812 L 105.566406 144.199219 L 104.289062 144.199219 L 104.289062 137.738281 Z M 106.46875 140.929688 C 106.65625 140.929688 106.808594 140.894531 106.957031 140.820312 C 107.070312 140.742188 107.183594 140.667969 107.257812 140.554688 C 107.332031 140.441406 107.371094 140.367188 107.410156 140.253906 C 107.445312 140.140625 107.445312 140.03125 107.445312 139.953125 C 107.445312 139.878906 107.445312 139.804688 107.410156 139.691406 C 107.371094 139.578125 107.332031 139.464844 107.296875 139.351562 C 107.21875 139.238281 107.144531 139.164062 106.996094 139.089844 C 106.84375 139.015625 106.695312 138.976562 106.46875 138.976562 L 105.566406 138.976562 L 105.566406 140.929688 Z M 107.671875 141.71875 L 109.25 144.199219 L 107.785156 144.199219 L 106.167969 141.757812 Z M 107.671875 141.71875 "/>
<path style=" stroke:none;fill-rule:nonzero;fill:rgb(100%,76.078431%,5.490196%);fill-opacity:1;" d="M 109.589844 144.199219 L 112.480469 137.511719 L 112.558594 137.511719 L 115.449219 144.199219 L 113.984375 144.199219 L 112.144531 139.464844 L 113.082031 138.828125 L 110.867188 144.164062 L 109.589844 144.164062 Z M 111.578125 141.871094 L 113.535156 141.871094 L 113.984375 142.921875 L 111.203125 142.921875 Z M 111.578125 141.871094 "/>
<path style=" stroke:none;fill-rule:nonzero;fill:rgb(100%,76.078431%,5.490196%);fill-opacity:1;" d="M 115.976562 137.738281 L 120.335938 137.738281 L 120.335938 138.976562 L 118.757812 138.976562 L 118.757812 144.199219 L 117.480469 144.199219 L 117.480469 138.976562 L 115.976562 138.976562 Z M 115.976562 137.738281 "/>
<path style=" stroke:none;fill-rule:nonzero;fill:rgb(100%,76.078431%,5.490196%);fill-opacity:1;" d="M 121.539062 137.738281 L 122.816406 137.738281 L 122.816406 144.199219 L 121.539062 144.199219 Z M 121.539062 137.738281 "/>
<path style=" stroke:none;fill-rule:nonzero;fill:rgb(100%,76.078431%,5.490196%);fill-opacity:1;" d="M 127.929688 139.316406 C 127.664062 139.164062 127.441406 139.050781 127.175781 138.976562 C 126.914062 138.902344 126.6875 138.863281 126.460938 138.863281 C 126.199219 138.863281 125.972656 138.902344 125.824219 139.015625 C 125.671875 139.128906 125.597656 139.277344 125.597656 139.503906 C 125.597656 139.652344 125.671875 139.804688 125.785156 139.917969 C 125.898438 140.03125 126.050781 140.140625 126.238281 140.253906 C 126.425781 140.328125 126.613281 140.441406 126.839844 140.519531 C 127.027344 140.59375 127.214844 140.667969 127.402344 140.78125 C 127.589844 140.894531 127.738281 141.007812 127.890625 141.15625 C 128.039062 141.308594 128.152344 141.496094 128.230469 141.683594 C 128.304688 141.910156 128.339844 142.171875 128.339844 142.472656 C 128.339844 142.808594 128.265625 143.109375 128.078125 143.375 C 127.890625 143.636719 127.664062 143.863281 127.328125 144.050781 C 126.988281 144.238281 126.613281 144.3125 126.125 144.3125 C 125.859375 144.3125 125.636719 144.277344 125.371094 144.238281 C 125.109375 144.199219 124.882812 144.125 124.621094 144.011719 C 124.359375 143.898438 124.132812 143.789062 123.90625 143.636719 L 124.46875 142.660156 C 124.621094 142.773438 124.769531 142.886719 124.960938 142.960938 C 125.148438 143.035156 125.335938 143.109375 125.484375 143.148438 C 125.671875 143.1875 125.824219 143.222656 125.972656 143.222656 C 126.125 143.222656 126.273438 143.1875 126.425781 143.148438 C 126.574219 143.109375 126.726562 143.035156 126.800781 142.921875 C 126.914062 142.808594 126.949219 142.660156 126.949219 142.472656 C 126.949219 142.359375 126.914062 142.210938 126.839844 142.132812 C 126.761719 142.019531 126.648438 141.945312 126.5 141.832031 C 126.351562 141.71875 126.199219 141.683594 126.050781 141.609375 C 125.859375 141.53125 125.636719 141.457031 125.449219 141.34375 C 125.222656 141.230469 125.035156 141.121094 124.847656 140.96875 C 124.660156 140.820312 124.507812 140.628906 124.394531 140.441406 C 124.28125 140.21875 124.207031 139.953125 124.207031 139.652344 C 124.207031 139.277344 124.28125 138.941406 124.46875 138.675781 C 124.621094 138.414062 124.882812 138.1875 125.183594 138.039062 C 125.484375 137.886719 125.824219 137.773438 126.238281 137.773438 C 126.761719 137.773438 127.175781 137.851562 127.515625 137.960938 C 127.851562 138.074219 128.117188 138.226562 128.378906 138.414062 Z M 127.929688 139.316406 "/>
<path style=" stroke:none;fill-rule:nonzero;fill:rgb(100%,76.078431%,5.490196%);fill-opacity:1;" d="M 129.167969 137.738281 L 133.527344 137.738281 L 133.527344 138.976562 L 131.949219 138.976562 L 131.949219 144.199219 L 130.671875 144.199219 L 130.671875 138.976562 L 129.167969 138.976562 Z M 129.167969 137.738281 "/>
<path style=" stroke:none;fill-rule:nonzero;fill:rgb(100%,76.078431%,5.490196%);fill-opacity:1;" d="M 134.015625 144.199219 L 136.910156 137.511719 L 136.984375 137.511719 L 139.878906 144.199219 L 138.414062 144.199219 L 136.570312 139.464844 L 137.511719 138.828125 L 135.292969 144.164062 L 134.015625 144.164062 Z M 136.007812 141.871094 L 137.960938 141.871094 L 138.414062 142.921875 L 135.632812 142.921875 Z M 136.007812 141.871094 "/>
<path style=" stroke:none;fill-rule:nonzero;fill:rgb(100%,76.078431%,5.490196%);fill-opacity:1;" d="M 146.605469 144.464844 L 141.71875 140.03125 L 142.097656 140.253906 L 142.132812 144.199219 L 140.855469 144.199219 L 140.855469 137.511719 L 140.894531 137.511719 L 145.667969 141.910156 L 145.402344 141.796875 L 145.367188 137.773438 L 146.644531 137.773438 Z M 146.605469 144.464844 "/>
<path style=" stroke:none;fill-rule:nonzero;fill:rgb(100%,76.078431%,5.490196%);fill-opacity:1;" d="M 86.289062 158.21875 C 85.6875 158.21875 85.160156 158.179688 84.746094 158.105469 C 84.332031 158.03125 84.03125 157.878906 83.808594 157.65625 C 83.582031 157.429688 83.429688 157.167969 83.320312 156.789062 C 83.242188 156.414062 83.167969 155.964844 83.167969 155.398438 C 83.167969 155.0625 83.167969 154.761719 83.207031 154.421875 C 83.242188 154.085938 83.28125 153.785156 83.355469 153.484375 C 83.429688 153.183594 83.46875 152.882812 83.582031 152.582031 L 85.121094 152.84375 C 85.011719 153.21875 84.933594 153.632812 84.898438 154.011719 C 84.859375 154.386719 84.820312 154.761719 84.820312 155.136719 C 84.820312 155.398438 84.820312 155.664062 84.859375 155.851562 C 84.859375 156.039062 84.898438 156.265625 84.933594 156.414062 L 86.589844 156.414062 C 87 156.414062 87.300781 156.378906 87.488281 156.300781 C 87.679688 156.226562 87.789062 156.039062 87.789062 155.8125 L 87.789062 150.027344 L 89.445312 150.027344 L 89.445312 155.511719 C 89.445312 156.039062 89.40625 156.488281 89.332031 156.867188 C 89.257812 157.242188 89.105469 157.503906 88.878906 157.730469 C 88.65625 157.917969 88.316406 158.070312 87.902344 158.179688 C 87.527344 158.179688 86.964844 158.21875 86.289062 158.21875 Z M 86.363281 148.636719 C 86.25 148.636719 86.136719 148.597656 85.988281 148.484375 C 85.835938 148.371094 85.722656 148.261719 85.609375 148.109375 C 85.5 147.960938 85.460938 147.847656 85.460938 147.734375 C 85.460938 147.621094 85.5 147.507812 85.609375 147.359375 C 85.722656 147.207031 85.835938 147.09375 85.988281 146.980469 C 86.136719 146.871094 86.25 146.832031 86.363281 146.832031 C 86.476562 146.832031 86.589844 146.871094 86.738281 146.980469 C 86.890625 147.09375 87 147.207031 87.113281 147.359375 C 87.226562 147.507812 87.265625 147.621094 87.265625 147.734375 C 87.265625 147.847656 87.226562 147.960938 87.113281 148.109375 C 87 148.261719 86.890625 148.371094 86.738281 148.484375 C 86.589844 148.558594 86.476562 148.636719 86.363281 148.636719 Z M 86.363281 148.636719 "/>
<path style=" stroke:none;fill-rule:nonzero;fill:rgb(100%,76.078431%,5.490196%);fill-opacity:1;" d="M 91.285156 155.4375 L 91.285156 148.109375 L 92.941406 148.109375 L 92.941406 153.597656 L 93.839844 153.597656 L 93.839844 155.4375 Z M 93.804688 155.4375 L 93.804688 153.597656 C 93.878906 153.597656 93.953125 153.671875 93.992188 153.859375 C 94.03125 154.011719 94.066406 154.234375 94.066406 154.535156 C 94.066406 154.835938 94.03125 155.0625 93.992188 155.210938 C 93.953125 155.363281 93.878906 155.4375 93.804688 155.4375 Z M 93.804688 155.4375 "/>
<path style=" stroke:none;fill-rule:nonzero;fill:rgb(100%,76.078431%,5.490196%);fill-opacity:1;" d="M 93.804688 155.4375 C 93.730469 155.4375 93.652344 155.363281 93.617188 155.210938 C 93.578125 155.0625 93.539062 154.835938 93.539062 154.535156 C 93.539062 154.273438 93.578125 154.046875 93.617188 153.859375 C 93.652344 153.671875 93.730469 153.597656 93.804688 153.597656 Z M 93.804688 155.4375 L 93.804688 153.597656 L 96.621094 153.597656 L 96.621094 155.4375 Z M 96.621094 155.4375 L 96.621094 153.597656 C 96.699219 153.597656 96.773438 153.671875 96.808594 153.859375 C 96.847656 154.011719 96.886719 154.234375 96.886719 154.535156 C 96.886719 154.835938 96.847656 155.0625 96.808594 155.210938 C 96.773438 155.363281 96.734375 155.4375 96.621094 155.4375 Z M 96.621094 155.4375 "/>
<path style=" stroke:none;fill-rule:nonzero;fill:rgb(100%,76.078431%,5.490196%);fill-opacity:1;" d="M 96.621094 155.4375 C 96.546875 155.4375 96.472656 155.363281 96.433594 155.210938 C 96.398438 155.0625 96.359375 154.835938 96.359375 154.535156 C 96.359375 154.273438 96.398438 154.046875 96.433594 153.859375 C 96.472656 153.710938 96.546875 153.597656 96.621094 153.597656 Z M 96.621094 155.4375 L 96.621094 153.597656 L 98.988281 153.597656 L 98.125 154.421875 L 98.125 149.949219 L 99.78125 149.949219 L 99.78125 155.398438 L 96.621094 155.398438 Z M 97.9375 148.636719 C 97.824219 148.636719 97.710938 148.597656 97.5625 148.484375 C 97.410156 148.371094 97.300781 148.261719 97.1875 148.109375 C 97.074219 147.960938 97.035156 147.847656 97.035156 147.734375 C 97.035156 147.621094 97.074219 147.507812 97.1875 147.359375 C 97.300781 147.207031 97.410156 147.09375 97.5625 146.980469 C 97.710938 146.871094 97.824219 146.832031 97.9375 146.832031 C 98.050781 146.832031 98.164062 146.871094 98.3125 146.980469 C 98.464844 147.09375 98.578125 147.207031 98.691406 147.359375 C 98.800781 147.507812 98.839844 147.621094 98.839844 147.734375 C 98.839844 147.847656 98.800781 147.960938 98.691406 148.109375 C 98.578125 148.261719 98.464844 148.371094 98.3125 148.484375 C 98.199219 148.558594 98.050781 148.636719 97.9375 148.636719 Z M 100.042969 148.636719 C 99.929688 148.636719 99.816406 148.597656 99.667969 148.484375 C 99.515625 148.371094 99.402344 148.261719 99.289062 148.109375 C 99.179688 147.960938 99.140625 147.847656 99.140625 147.734375 C 99.140625 147.621094 99.179688 147.507812 99.289062 147.359375 C 99.402344 147.207031 99.515625 147.09375 99.667969 146.980469 C 99.816406 146.871094 99.929688 146.832031 100.042969 146.832031 C 100.15625 146.832031 100.269531 146.871094 100.417969 146.980469 C 100.570312 147.09375 100.679688 147.207031 100.792969 147.359375 C 100.90625 147.507812 100.945312 147.621094 100.945312 147.734375 C 100.945312 147.847656 100.90625 147.960938 100.792969 148.109375 C 100.679688 148.261719 100.570312 148.371094 100.417969 148.484375 C 100.269531 148.558594 100.15625 148.636719 100.042969 148.636719 Z M 99.816406 155.4375 L 99.816406 153.597656 L 100.71875 153.597656 L 100.71875 155.4375 Z M 100.71875 155.4375 L 100.71875 153.597656 C 100.792969 153.597656 100.871094 153.671875 100.90625 153.859375 C 100.945312 154.011719 100.980469 154.234375 100.980469 154.535156 C 100.980469 154.835938 100.945312 155.0625 100.90625 155.210938 C 100.832031 155.363281 100.792969 155.4375 100.71875 155.4375 Z M 100.71875 155.4375 "/>
<path style=" stroke:none;fill-rule:nonzero;fill:rgb(100%,76.078431%,5.490196%);fill-opacity:1;" d="M 100.71875 155.4375 C 100.644531 155.4375 100.570312 155.363281 100.53125 155.210938 C 100.492188 155.0625 100.457031 154.835938 100.457031 154.535156 C 100.457031 154.273438 100.492188 154.046875 100.53125 153.859375 C 100.570312 153.710938 100.644531 153.597656 100.71875 153.597656 Z M 100.71875 155.4375 L 100.71875 153.597656 L 102.261719 153.597656 L 102.261719 151.003906 L 103.914062 151.003906 L 103.914062 155.398438 L 100.71875 155.398438 Z M 103.875 155.4375 L 103.875 153.597656 L 105.339844 153.597656 C 105.640625 153.597656 105.828125 153.558594 105.980469 153.484375 C 106.128906 153.410156 106.207031 153.21875 106.207031 152.996094 L 106.207031 151.039062 L 107.859375 151.039062 L 107.859375 152.65625 C 107.859375 153.21875 107.820312 153.671875 107.746094 154.046875 C 107.671875 154.421875 107.519531 154.6875 107.296875 154.910156 C 107.070312 155.101562 106.769531 155.25 106.394531 155.363281 C 105.980469 155.4375 105.492188 155.476562 104.851562 155.476562 L 103.875 155.476562 Z M 108.949219 155.4375 C 108.386719 155.4375 107.933594 155.398438 107.558594 155.324219 C 107.183594 155.25 106.921875 155.101562 106.730469 154.875 C 106.542969 154.6875 106.394531 154.386719 106.320312 154.011719 C 106.242188 153.632812 106.207031 153.183594 106.207031 152.621094 L 106.207031 151.003906 L 107.859375 151.003906 L 107.859375 152.957031 C 107.859375 153.21875 107.933594 153.371094 108.085938 153.445312 C 108.234375 153.519531 108.460938 153.558594 108.722656 153.558594 L 110.078125 153.558594 C 110.113281 153.410156 110.152344 153.21875 110.152344 153.03125 C 110.152344 152.84375 110.191406 152.621094 110.191406 152.394531 C 110.191406 152.019531 110.152344 151.679688 110.113281 151.304688 C 110.039062 150.929688 109.964844 150.550781 109.890625 150.175781 L 111.503906 149.949219 C 111.578125 150.175781 111.65625 150.441406 111.691406 150.703125 C 111.730469 150.964844 111.769531 151.230469 111.804688 151.492188 C 111.84375 151.753906 111.84375 152.019531 111.84375 152.28125 C 111.84375 153.109375 111.730469 153.710938 111.542969 154.160156 C 111.355469 154.609375 111.015625 154.910156 110.601562 155.101562 C 110.152344 155.363281 109.589844 155.4375 108.949219 155.4375 Z M 108.875 155.4375 L 110.828125 153.597656 L 112.707031 153.597656 L 112.707031 155.4375 Z M 112.707031 155.4375 L 112.707031 153.597656 C 112.78125 153.597656 112.859375 153.671875 112.894531 153.859375 C 112.933594 154.011719 112.96875 154.234375 112.96875 154.535156 C 112.96875 154.835938 112.933594 155.0625 112.894531 155.210938 C 112.859375 155.363281 112.78125 155.4375 112.707031 155.4375 Z M 112.707031 155.4375 "/>
<path style=" stroke:none;fill-rule:nonzero;fill:rgb(100%,76.078431%,5.490196%);fill-opacity:1;" d="M 112.707031 155.4375 C 112.632812 155.4375 112.558594 155.363281 112.519531 155.210938 C 112.480469 155.0625 112.445312 154.835938 112.445312 154.535156 C 112.445312 154.273438 112.480469 154.046875 112.519531 153.859375 C 112.558594 153.710938 112.632812 153.597656 112.707031 153.597656 Z M 112.707031 155.4375 L 112.707031 153.597656 L 115.074219 153.597656 L 114.210938 154.421875 L 114.210938 149.949219 L 115.863281 149.949219 L 115.863281 155.398438 L 112.707031 155.398438 Z M 113.082031 148.636719 C 112.96875 148.636719 112.859375 148.597656 112.707031 148.484375 C 112.558594 148.371094 112.445312 148.261719 112.332031 148.109375 C 112.21875 147.960938 112.179688 147.847656 112.179688 147.734375 C 112.179688 147.621094 112.21875 147.507812 112.332031 147.359375 C 112.445312 147.207031 112.558594 147.09375 112.707031 146.980469 C 112.859375 146.871094 112.96875 146.832031 113.082031 146.832031 C 113.195312 146.832031 113.308594 146.871094 113.460938 146.980469 C 113.609375 147.09375 113.722656 147.207031 113.835938 147.359375 C 113.949219 147.507812 113.984375 147.621094 113.984375 147.734375 C 113.984375 147.847656 113.949219 147.960938 113.835938 148.109375 C 113.722656 148.261719 113.609375 148.371094 113.460938 148.484375 C 113.308594 148.558594 113.160156 148.636719 113.082031 148.636719 Z M 115.148438 148.636719 C 115.039062 148.636719 114.925781 148.597656 114.773438 148.484375 C 114.625 148.371094 114.511719 148.261719 114.398438 148.109375 C 114.285156 147.960938 114.25 147.847656 114.25 147.734375 C 114.25 147.621094 114.285156 147.507812 114.398438 147.359375 C 114.511719 147.207031 114.625 147.09375 114.773438 146.980469 C 114.925781 146.871094 115.039062 146.832031 115.148438 146.832031 C 115.261719 146.832031 115.375 146.871094 115.527344 146.980469 C 115.675781 147.09375 115.789062 147.207031 115.902344 147.359375 C 116.015625 147.507812 116.050781 147.621094 116.050781 147.734375 C 116.050781 147.847656 116.015625 147.960938 115.902344 148.109375 C 115.789062 148.261719 115.675781 148.371094 115.527344 148.484375 C 115.375 148.558594 115.261719 148.636719 115.148438 148.636719 Z M 115.148438 148.636719 "/>
<path style=" stroke:none;fill-rule:nonzero;fill:rgb(100%,76.078431%,5.490196%);fill-opacity:1;" d="M 117.59375 158.671875 L 116.992188 157.203125 C 117.292969 157.054688 117.519531 156.902344 117.707031 156.753906 C 117.855469 156.601562 117.96875 156.414062 118.042969 156.152344 C 118.121094 155.890625 118.121094 155.589844 118.121094 155.175781 L 118.121094 149.949219 L 119.734375 149.949219 L 119.734375 155.175781 C 119.734375 155.777344 119.660156 156.339844 119.511719 156.753906 C 119.359375 157.203125 119.132812 157.578125 118.832031 157.878906 C 118.53125 158.179688 118.121094 158.445312 117.59375 158.671875 Z M 117.59375 158.671875 "/>
<path style=" stroke:none;fill-rule:nonzero;fill:rgb(100%,76.078431%,5.490196%);fill-opacity:1;" d="M 121.539062 155.4375 L 121.539062 148.109375 L 123.191406 148.109375 L 123.191406 153.597656 L 124.09375 153.597656 L 124.09375 155.4375 Z M 124.058594 155.4375 L 124.058594 153.597656 C 124.132812 153.597656 124.207031 153.671875 124.246094 153.859375 C 124.28125 154.011719 124.320312 154.234375 124.320312 154.535156 C 124.320312 154.835938 124.28125 155.0625 124.246094 155.210938 C 124.207031 155.363281 124.132812 155.4375 124.058594 155.4375 Z M 124.058594 155.4375 "/>
<path style=" stroke:none;fill-rule:nonzero;fill:rgb(100%,76.078431%,5.490196%);fill-opacity:1;" d="M 124.058594 155.4375 C 123.980469 155.4375 123.90625 155.363281 123.871094 155.210938 C 123.832031 155.0625 123.792969 154.835938 123.792969 154.535156 C 123.792969 154.273438 123.832031 154.046875 123.871094 153.859375 C 123.90625 153.710938 123.980469 153.597656 124.058594 153.597656 Z M 124.058594 155.4375 L 124.058594 153.597656 L 126.875 153.597656 L 126.875 155.4375 Z M 126.914062 155.4375 L 126.914062 153.597656 C 126.988281 153.597656 127.0625 153.671875 127.101562 153.859375 C 127.140625 154.011719 127.175781 154.234375 127.175781 154.535156 C 127.175781 154.835938 127.140625 155.0625 127.101562 155.210938 C 127.027344 155.363281 126.988281 155.4375 126.914062 155.4375 Z M 126.914062 155.4375 "/>
<path style=" stroke:none;fill-rule:nonzero;fill:rgb(100%,76.078431%,5.490196%);fill-opacity:1;" d="M 126.914062 155.4375 C 126.839844 155.4375 126.761719 155.363281 126.726562 155.210938 C 126.6875 155.0625 126.648438 154.835938 126.648438 154.535156 C 126.648438 154.273438 126.6875 154.046875 126.726562 153.859375 C 126.761719 153.710938 126.839844 153.597656 126.914062 153.597656 Z M 126.914062 155.4375 L 126.914062 153.597656 L 129.730469 153.597656 L 129.730469 155.4375 Z M 129.730469 155.4375 L 129.730469 153.597656 C 129.808594 153.597656 129.882812 153.671875 129.921875 153.859375 C 129.957031 154.011719 129.996094 154.234375 129.996094 154.535156 C 129.996094 154.835938 129.957031 155.0625 129.921875 155.210938 C 129.882812 155.363281 129.808594 155.4375 129.730469 155.4375 Z M 129.730469 155.4375 "/>
<path style=" stroke:none;fill-rule:nonzero;fill:rgb(100%,76.078431%,5.490196%);fill-opacity:1;" d="M 129.730469 155.4375 C 129.65625 155.4375 129.582031 155.363281 129.542969 155.210938 C 129.507812 155.0625 129.46875 154.835938 129.46875 154.535156 C 129.46875 154.273438 129.507812 154.046875 129.542969 153.859375 C 129.582031 153.710938 129.65625 153.597656 129.730469 153.597656 Z M 129.730469 155.4375 L 129.730469 153.597656 L 132.550781 153.597656 L 132.550781 155.4375 Z M 132.550781 155.4375 L 132.550781 153.597656 C 132.625 153.597656 132.699219 153.671875 132.738281 153.859375 C 132.777344 154.011719 132.8125 154.234375 132.8125 154.535156 C 132.8125 154.835938 132.777344 155.0625 132.738281 155.210938 C 132.699219 155.363281 132.664062 155.4375 132.550781 155.4375 Z M 132.550781 155.4375 "/>
<path style=" stroke:none;fill-rule:nonzero;fill:rgb(100%,76.078431%,5.490196%);fill-opacity:1;" d="M 132.550781 155.4375 C 132.476562 155.4375 132.398438 155.363281 132.363281 155.210938 C 132.324219 155.0625 132.289062 154.835938 132.289062 154.535156 C 132.289062 154.273438 132.324219 154.046875 132.363281 153.859375 C 132.398438 153.710938 132.476562 153.597656 132.550781 153.597656 Z M 132.550781 155.4375 L 132.550781 153.597656 L 135.371094 153.597656 L 135.371094 155.4375 Z M 135.40625 155.4375 L 135.40625 153.597656 C 135.480469 153.597656 135.558594 153.671875 135.59375 153.859375 C 135.632812 154.011719 135.671875 154.234375 135.671875 154.535156 C 135.671875 154.835938 135.632812 155.0625 135.59375 155.210938 C 135.519531 155.363281 135.480469 155.4375 135.40625 155.4375 Z M 135.40625 155.4375 "/>
<path style=" stroke:none;fill-rule:nonzero;fill:rgb(100%,76.078431%,5.490196%);fill-opacity:1;" d="M 135.40625 155.4375 C 135.332031 155.4375 135.257812 155.363281 135.21875 155.210938 C 135.179688 155.0625 135.144531 154.835938 135.144531 154.535156 C 135.144531 154.273438 135.179688 154.046875 135.21875 153.859375 C 135.257812 153.710938 135.332031 153.597656 135.40625 153.597656 Z M 135.40625 155.4375 L 135.40625 153.597656 L 137.585938 153.597656 C 137.886719 153.597656 138.1875 153.558594 138.414062 153.445312 C 138.640625 153.371094 138.828125 153.21875 139.015625 153.070312 C 139.164062 152.921875 139.316406 152.730469 139.429688 152.542969 C 139.539062 152.355469 139.617188 152.128906 139.691406 151.90625 L 141.195312 152.429688 C 141.042969 152.996094 140.820312 153.445312 140.59375 153.820312 C 140.328125 154.199219 140.066406 154.535156 139.730469 154.761719 C 139.390625 154.988281 139.050781 155.175781 138.640625 155.289062 C 138.261719 155.398438 137.851562 155.4375 137.4375 155.4375 Z M 141.496094 155.4375 C 141.230469 155.4375 141.042969 155.398438 140.894531 155.289062 C 140.742188 155.175781 140.628906 155.023438 140.554688 154.800781 L 139.839844 152.996094 C 139.730469 152.695312 139.578125 152.429688 139.390625 152.242188 C 139.203125 152.054688 138.976562 151.90625 138.714844 151.828125 C 138.449219 151.753906 138.074219 151.679688 137.660156 151.679688 C 137.472656 151.679688 137.25 151.679688 137.023438 151.679688 C 136.796875 151.679688 136.535156 151.71875 136.269531 151.753906 L 136.046875 149.949219 C 136.347656 149.914062 136.648438 149.875 136.910156 149.875 C 137.171875 149.839844 137.4375 149.839844 137.660156 149.839844 C 138.339844 149.839844 138.902344 149.914062 139.390625 150.101562 C 139.878906 150.289062 140.253906 150.550781 140.554688 150.890625 C 140.855469 151.265625 141.121094 151.71875 141.34375 152.320312 L 141.832031 153.632812 L 142.511719 153.632812 L 142.511719 155.476562 L 141.496094 155.476562 Z M 138.941406 158.179688 C 138.828125 158.179688 138.714844 158.144531 138.5625 158.03125 C 138.414062 157.917969 138.300781 157.804688 138.1875 157.65625 C 138.074219 157.503906 138.039062 157.390625 138.039062 157.28125 C 138.039062 157.167969 138.074219 157.054688 138.1875 156.902344 C 138.300781 156.753906 138.414062 156.640625 138.5625 156.527344 C 138.714844 156.414062 138.828125 156.378906 138.941406 156.378906 C 139.050781 156.378906 139.164062 156.414062 139.316406 156.527344 C 139.464844 156.640625 139.578125 156.753906 139.691406 156.902344 C 139.804688 157.054688 139.839844 157.167969 139.839844 157.28125 C 139.839844 157.390625 139.804688 157.503906 139.691406 157.65625 C 139.578125 157.804688 139.464844 157.917969 139.316406 158.03125 C 139.164062 158.105469 139.050781 158.179688 138.941406 158.179688 Z M 142.472656 155.4375 L 142.472656 153.597656 C 142.546875 153.597656 142.621094 153.671875 142.660156 153.859375 C 142.699219 154.011719 142.734375 154.234375 142.734375 154.535156 C 142.734375 154.835938 142.699219 155.0625 142.660156 155.210938 C 142.585938 155.363281 142.546875 155.4375 142.472656 155.4375 Z M 142.472656 155.4375 "/>
<path style=" stroke:none;fill-rule:nonzero;fill:rgb(100%,76.078431%,5.490196%);fill-opacity:1;" d="M 142.472656 155.4375 C 142.398438 155.4375 142.320312 155.363281 142.285156 155.210938 C 142.246094 155.0625 142.210938 154.835938 142.210938 154.535156 C 142.210938 154.273438 142.246094 154.046875 142.285156 153.859375 C 142.320312 153.710938 142.398438 153.597656 142.472656 153.597656 Z M 142.472656 155.4375 L 142.472656 153.597656 L 144.839844 153.597656 L 143.976562 154.421875 L 143.976562 149.949219 L 145.628906 149.949219 L 145.628906 155.398438 L 142.472656 155.398438 Z M 142.660156 148.636719 C 142.546875 148.636719 142.433594 148.597656 142.285156 148.484375 C 142.132812 148.371094 142.019531 148.261719 141.910156 148.109375 C 141.796875 147.960938 141.757812 147.847656 141.757812 147.734375 C 141.757812 147.621094 141.796875 147.507812 141.910156 147.359375 C 142.019531 147.207031 142.132812 147.09375 142.285156 146.980469 C 142.433594 146.871094 142.546875 146.832031 142.660156 146.832031 C 142.773438 146.832031 142.886719 146.871094 143.035156 146.980469 C 143.1875 147.09375 143.300781 147.207031 143.410156 147.359375 C 143.523438 147.507812 143.5625 147.621094 143.5625 147.734375 C 143.5625 147.847656 143.523438 147.960938 143.410156 148.109375 C 143.300781 148.261719 143.1875 148.371094 143.035156 148.484375 C 142.921875 148.558594 142.773438 148.636719 142.660156 148.636719 Z M 144.765625 148.636719 C 144.652344 148.636719 144.539062 148.597656 144.390625 148.484375 C 144.238281 148.371094 144.125 148.261719 144.011719 148.109375 C 143.898438 147.960938 143.863281 147.847656 143.863281 147.734375 C 143.863281 147.621094 143.898438 147.507812 144.011719 147.359375 C 144.125 147.207031 144.238281 147.09375 144.390625 146.980469 C 144.539062 146.871094 144.652344 146.832031 144.765625 146.832031 C 144.878906 146.832031 144.988281 146.871094 145.140625 146.980469 C 145.289062 147.09375 145.402344 147.207031 145.515625 147.359375 C 145.628906 147.507812 145.667969 147.621094 145.667969 147.734375 C 145.667969 147.847656 145.628906 147.960938 145.515625 148.109375 C 145.402344 148.261719 145.289062 148.371094 145.140625 148.484375 C 144.988281 148.558594 144.878906 148.636719 144.765625 148.636719 Z M 144.765625 148.636719 "/>
<path style=" stroke:none;fill-rule:evenodd;fill:rgb(100%,76.078431%,5.490196%);fill-opacity:1;" d="M 121.011719 75.351562 L 141.421875 87.113281 L 134.878906 90.871094 L 127.929688 86.851562 L 121.011719 90.871094 L 119.621094 91.699219 L 115.902344 93.839844 L 114.511719 94.667969 L 107.972656 90.910156 L 109.363281 90.082031 L 113.082031 87.941406 L 114.472656 87.113281 L 121.390625 83.09375 L 114.4375 79.070312 Z M 134.878906 90.871094 L 141.421875 94.628906 L 141.421875 118.195312 L 134.878906 114.4375 L 134.878906 106.429688 L 127.929688 102.410156 L 126.539062 101.582031 L 122.816406 99.441406 L 121.425781 98.613281 L 121.425781 91.058594 L 122.816406 91.886719 L 126.539062 94.03125 L 127.929688 94.855469 L 134.878906 98.878906 Z M 134.878906 114.4375 L 134.878906 121.988281 L 114.472656 133.753906 L 114.472656 126.199219 L 121.425781 122.179688 L 121.425781 106.65625 L 127.964844 102.898438 L 127.964844 118.421875 Z M 114.472656 126.199219 L 107.933594 129.957031 L 87.566406 118.195312 L 94.105469 114.4375 L 101.019531 118.457031 L 107.972656 114.4375 L 109.363281 113.609375 L 113.082031 111.46875 L 114.472656 110.640625 L 121.011719 114.398438 L 119.621094 115.226562 L 115.902344 117.367188 L 114.511719 118.195312 L 107.597656 122.214844 Z M 94.105469 114.4375 L 87.566406 110.679688 L 87.566406 87.113281 L 94.105469 90.871094 L 94.105469 98.878906 L 101.019531 102.898438 L 102.410156 103.726562 L 106.128906 105.867188 L 107.519531 106.695312 L 107.519531 114.25 L 106.128906 113.421875 L 102.410156 111.28125 L 101.019531 110.453125 L 94.066406 106.429688 Z M 94.105469 90.871094 L 94.105469 83.320312 L 114.511719 71.554688 L 114.511719 79.109375 L 107.597656 83.128906 L 107.597656 98.652344 L 101.058594 102.410156 L 101.058594 86.890625 Z M 94.105469 90.871094 "/>
</g>
</svg>
