<?xml version="1.0" encoding="UTF-8"?>
<svg xmlns="http://www.w3.org/2000/svg" xmlns:xlink="http://www.w3.org/1999/xlink" width="301px" height="301px" viewBox="0 0 301 301" version="1.1">
<g id="surface1">
<path style=" stroke:none;fill-rule:nonzero;fill:rgb(100%,76.078431%,5.490196%);fill-opacity:1;" d="M 108.992188 180.253906 L 114.695312 180.253906 L 114.695312 181.878906 L 112.628906 181.878906 L 112.628906 188.71875 L 110.957031 188.71875 L 110.957031 181.878906 L 108.992188 181.878906 Z M 108.992188 180.253906 "/>
<path style=" stroke:none;fill-rule:nonzero;fill:rgb(100%,76.078431%,5.490196%);fill-opacity:1;" d="M 116.269531 180.253906 L 122.023438 180.253906 L 122.023438 181.878906 L 117.941406 181.878906 L 117.941406 183.699219 L 121.578125 183.699219 L 121.578125 185.324219 L 117.941406 185.324219 L 117.941406 187.140625 L 122.21875 187.140625 L 122.21875 188.765625 L 116.316406 188.765625 L 116.316406 180.253906 Z M 116.269531 180.253906 "/>
<path style=" stroke:none;fill-rule:nonzero;fill:rgb(100%,76.078431%,5.490196%);fill-opacity:1;" d="M 126.300781 186.945312 C 126.300781 187.683594 126.152344 188.320312 125.859375 188.816406 C 125.566406 189.304688 125.167969 189.746094 124.628906 189.996094 C 124.140625 190.289062 123.5 190.4375 122.808594 190.4375 L 122.808594 188.863281 C 123.351562 188.816406 123.742188 188.664062 124.089844 188.371094 C 124.433594 188.074219 124.582031 187.585938 124.582031 186.894531 L 124.582031 180.253906 L 126.25 180.253906 L 126.25 186.945312 Z M 126.300781 186.945312 "/>
<path style=" stroke:none;fill-rule:nonzero;fill:rgb(100%,76.078431%,5.490196%);fill-opacity:1;" d="M 127.53125 188.71875 L 131.320312 179.960938 L 131.417969 179.960938 L 135.203125 188.71875 L 133.285156 188.71875 L 130.875 182.515625 L 132.105469 181.683594 L 129.203125 188.664062 L 127.53125 188.664062 Z M 130.140625 185.667969 L 132.695312 185.667969 L 133.285156 187.042969 L 129.644531 187.042969 Z M 130.140625 185.667969 "/>
<path style=" stroke:none;fill-rule:nonzero;fill:rgb(100%,76.078431%,5.490196%);fill-opacity:1;" d="M 139.039062 180.253906 C 139.582031 180.253906 140.023438 180.304688 140.464844 180.449219 C 140.859375 180.601562 141.203125 180.796875 141.5 181.042969 C 141.796875 181.289062 141.992188 181.582031 142.140625 181.929688 C 142.285156 182.273438 142.335938 182.664062 142.335938 183.109375 C 142.335938 183.453125 142.285156 183.796875 142.1875 184.144531 C 142.089844 184.484375 141.894531 184.78125 141.699219 185.074219 C 141.449219 185.371094 141.15625 185.566406 140.761719 185.765625 C 140.367188 185.910156 139.925781 186.007812 139.335938 186.007812 L 138.152344 186.007812 L 138.152344 188.71875 L 136.484375 188.71875 L 136.484375 180.253906 Z M 139.335938 184.4375 C 139.582031 184.4375 139.777344 184.386719 139.976562 184.289062 C 140.121094 184.191406 140.269531 184.09375 140.367188 183.941406 C 140.464844 183.796875 140.519531 183.699219 140.566406 183.550781 C 140.617188 183.402344 140.617188 183.257812 140.617188 183.160156 C 140.617188 183.058594 140.617188 182.960938 140.566406 182.8125 C 140.519531 182.664062 140.464844 182.515625 140.414062 182.371094 C 140.316406 182.222656 140.21875 182.125 140.023438 182.027344 C 139.828125 181.929688 139.632812 181.878906 139.335938 181.878906 L 138.152344 181.878906 L 138.152344 184.4375 Z M 140.910156 185.46875 L 142.976562 188.71875 L 141.058594 188.71875 L 138.941406 185.519531 Z M 140.910156 185.46875 "/>
<path style=" stroke:none;fill-rule:nonzero;fill:rgb(100%,76.078431%,5.490196%);fill-opacity:1;" d="M 143.417969 188.71875 L 147.203125 179.960938 L 147.300781 179.960938 L 151.09375 188.71875 L 149.171875 188.71875 L 146.761719 182.515625 L 147.992188 181.683594 L 145.089844 188.664062 L 143.417969 188.664062 Z M 146.023438 185.667969 L 148.582031 185.667969 L 149.171875 187.042969 L 145.535156 187.042969 Z M 146.023438 185.667969 "/>
<path style=" stroke:none;fill-rule:nonzero;fill:rgb(100%,76.078431%,5.490196%);fill-opacity:1;" d="M 151.777344 180.253906 L 157.484375 180.253906 L 157.484375 181.878906 L 155.417969 181.878906 L 155.417969 188.71875 L 153.746094 188.71875 L 153.746094 181.878906 L 151.777344 181.878906 Z M 151.777344 180.253906 "/>
<path style=" stroke:none;fill-rule:nonzero;fill:rgb(100%,76.078431%,5.490196%);fill-opacity:1;" d="M 159.058594 180.253906 L 160.730469 180.253906 L 160.730469 188.71875 L 159.058594 188.71875 Z M 159.058594 180.253906 "/>
<path style=" stroke:none;fill-rule:nonzero;fill:rgb(100%,76.078431%,5.490196%);fill-opacity:1;" d="M 167.417969 182.320312 C 167.074219 182.125 166.78125 181.976562 166.4375 181.878906 C 166.089844 181.78125 165.796875 181.734375 165.5 181.734375 C 165.15625 181.734375 164.859375 181.78125 164.664062 181.929688 C 164.46875 182.074219 164.371094 182.273438 164.371094 182.566406 C 164.371094 182.761719 164.46875 182.960938 164.617188 183.109375 C 164.761719 183.257812 164.957031 183.402344 165.207031 183.550781 C 165.453125 183.648438 165.699219 183.796875 165.992188 183.894531 C 166.238281 183.992188 166.484375 184.09375 166.730469 184.242188 C 166.976562 184.386719 167.171875 184.535156 167.367188 184.730469 C 167.570312 184.925781 167.714844 185.171875 167.8125 185.421875 C 167.910156 185.714844 167.960938 186.058594 167.960938 186.453125 C 167.960938 186.894531 167.863281 187.289062 167.617188 187.636719 C 167.367188 187.976562 167.074219 188.273438 166.632812 188.515625 C 166.1875 188.765625 165.699219 188.863281 165.058594 188.863281 C 164.714844 188.863281 164.417969 188.816406 164.078125 188.765625 C 163.730469 188.71875 163.433594 188.613281 163.09375 188.46875 C 162.746094 188.320312 162.449219 188.175781 162.15625 187.976562 L 162.894531 186.699219 C 163.09375 186.847656 163.289062 186.992188 163.53125 187.089844 C 163.777344 187.191406 164.027344 187.289062 164.222656 187.335938 C 164.46875 187.386719 164.664062 187.433594 164.859375 187.433594 C 165.058594 187.433594 165.257812 187.386719 165.453125 187.335938 C 165.648438 187.289062 165.84375 187.191406 165.941406 187.042969 C 166.089844 186.894531 166.140625 186.699219 166.140625 186.453125 C 166.140625 186.304688 166.089844 186.105469 165.992188 186.007812 C 165.894531 185.863281 165.746094 185.765625 165.550781 185.617188 C 165.355469 185.46875 165.15625 185.421875 164.957031 185.324219 C 164.714844 185.226562 164.417969 185.125 164.175781 184.976562 C 163.875 184.828125 163.632812 184.683594 163.386719 184.484375 C 163.140625 184.289062 162.945312 184.042969 162.792969 183.796875 C 162.648438 183.5 162.550781 183.160156 162.550781 182.761719 C 162.550781 182.273438 162.648438 181.832031 162.894531 181.484375 C 163.09375 181.140625 163.433594 180.847656 163.828125 180.652344 C 164.222656 180.449219 164.664062 180.304688 165.207031 180.304688 C 165.894531 180.304688 166.4375 180.402344 166.878906 180.550781 C 167.320312 180.699219 167.667969 180.894531 168.007812 181.140625 Z M 167.417969 182.320312 "/>
<path style=" stroke:none;fill-rule:nonzero;fill:rgb(100%,76.078431%,5.490196%);fill-opacity:1;" d="M 169.042969 180.253906 L 174.75 180.253906 L 174.75 181.878906 L 172.683594 181.878906 L 172.683594 188.71875 L 171.007812 188.71875 L 171.007812 181.878906 L 169.042969 181.878906 Z M 169.042969 180.253906 "/>
<path style=" stroke:none;fill-rule:nonzero;fill:rgb(100%,76.078431%,5.490196%);fill-opacity:1;" d="M 175.386719 188.71875 L 179.171875 179.960938 L 179.269531 179.960938 L 183.058594 188.71875 L 181.140625 188.71875 L 178.730469 182.515625 L 179.960938 181.683594 L 177.058594 188.664062 L 175.386719 188.664062 Z M 177.992188 185.667969 L 180.550781 185.667969 L 181.140625 187.042969 L 177.5 187.042969 Z M 177.992188 185.667969 "/>
<path style=" stroke:none;fill-rule:nonzero;fill:rgb(100%,76.078431%,5.490196%);fill-opacity:1;" d="M 191.863281 189.058594 L 185.46875 183.257812 L 185.960938 183.550781 L 186.007812 188.71875 L 184.339844 188.71875 L 184.339844 179.960938 L 184.386719 179.960938 L 190.632812 185.714844 L 190.289062 185.566406 L 190.242188 180.304688 L 191.910156 180.304688 Z M 191.863281 189.058594 "/>
<path style=" stroke:none;fill-rule:nonzero;fill:rgb(100%,76.078431%,5.490196%);fill-opacity:1;" d="M 112.925781 207.058594 C 112.136719 207.058594 111.449219 207.011719 110.90625 206.914062 C 110.367188 206.816406 109.976562 206.617188 109.675781 206.320312 C 109.382812 206.027344 109.1875 205.683594 109.039062 205.195312 C 108.941406 204.699219 108.84375 204.109375 108.84375 203.371094 C 108.84375 202.929688 108.84375 202.535156 108.894531 202.09375 C 108.941406 201.652344 108.992188 201.257812 109.089844 200.863281 C 109.1875 200.472656 109.234375 200.074219 109.382812 199.683594 L 111.402344 200.027344 C 111.253906 200.519531 111.15625 201.058594 111.101562 201.550781 C 111.054688 202.042969 111.003906 202.535156 111.003906 203.027344 C 111.003906 203.371094 111.003906 203.714844 111.054688 203.960938 C 111.054688 204.210938 111.101562 204.503906 111.15625 204.699219 L 113.316406 204.699219 C 113.859375 204.699219 114.25 204.648438 114.496094 204.550781 C 114.746094 204.453125 114.894531 204.210938 114.894531 203.910156 L 114.894531 196.339844 L 117.058594 196.339844 L 117.058594 203.519531 C 117.058594 204.210938 117.007812 204.796875 116.90625 205.292969 C 116.808594 205.78125 116.613281 206.125 116.316406 206.421875 C 116.023438 206.667969 115.578125 206.863281 115.039062 207.011719 C 114.546875 207.011719 113.808594 207.058594 112.925781 207.058594 Z M 113.023438 194.515625 C 112.875 194.515625 112.726562 194.46875 112.53125 194.320312 C 112.335938 194.175781 112.183594 194.027344 112.039062 193.832031 C 111.890625 193.632812 111.839844 193.488281 111.839844 193.335938 C 111.839844 193.191406 111.890625 193.042969 112.039062 192.847656 C 112.183594 192.652344 112.335938 192.503906 112.53125 192.355469 C 112.726562 192.207031 112.875 192.15625 113.023438 192.15625 C 113.167969 192.15625 113.316406 192.207031 113.515625 192.355469 C 113.710938 192.503906 113.859375 192.652344 114.007812 192.847656 C 114.152344 193.042969 114.203125 193.191406 114.203125 193.335938 C 114.203125 193.488281 114.152344 193.632812 114.007812 193.832031 C 113.859375 194.027344 113.710938 194.175781 113.515625 194.320312 C 113.316406 194.417969 113.167969 194.515625 113.023438 194.515625 Z M 113.023438 194.515625 "/>
<path style=" stroke:none;fill-rule:nonzero;fill:rgb(100%,76.078431%,5.490196%);fill-opacity:1;" d="M 119.46875 203.421875 L 119.46875 193.832031 L 121.628906 193.832031 L 121.628906 201.011719 L 122.808594 201.011719 L 122.808594 203.421875 Z M 122.757812 203.421875 L 122.757812 201.011719 C 122.855469 201.011719 122.960938 201.109375 123.007812 201.355469 C 123.058594 201.550781 123.105469 201.847656 123.105469 202.242188 C 123.105469 202.632812 123.058594 202.929688 123.007812 203.125 C 122.960938 203.324219 122.855469 203.421875 122.757812 203.421875 Z M 122.757812 203.421875 "/>
<path style=" stroke:none;fill-rule:nonzero;fill:rgb(100%,76.078431%,5.490196%);fill-opacity:1;" d="M 122.757812 203.421875 C 122.660156 203.421875 122.5625 203.324219 122.515625 203.125 C 122.464844 202.929688 122.417969 202.632812 122.417969 202.242188 C 122.417969 201.898438 122.464844 201.597656 122.515625 201.355469 C 122.5625 201.109375 122.660156 201.011719 122.757812 201.011719 Z M 122.757812 203.421875 L 122.757812 201.011719 L 126.453125 201.011719 L 126.453125 203.421875 Z M 126.453125 203.421875 L 126.453125 201.011719 C 126.550781 201.011719 126.648438 201.109375 126.695312 201.355469 C 126.746094 201.550781 126.792969 201.847656 126.792969 202.242188 C 126.792969 202.632812 126.746094 202.929688 126.695312 203.125 C 126.648438 203.324219 126.597656 203.421875 126.453125 203.421875 Z M 126.453125 203.421875 "/>
<path style=" stroke:none;fill-rule:nonzero;fill:rgb(100%,76.078431%,5.490196%);fill-opacity:1;" d="M 126.453125 203.421875 C 126.347656 203.421875 126.25 203.324219 126.203125 203.125 C 126.152344 202.929688 126.105469 202.632812 126.105469 202.242188 C 126.105469 201.898438 126.152344 201.597656 126.203125 201.355469 C 126.25 201.15625 126.347656 201.011719 126.453125 201.011719 Z M 126.453125 203.421875 L 126.453125 201.011719 L 129.546875 201.011719 L 128.414062 202.09375 L 128.414062 196.242188 L 130.582031 196.242188 L 130.582031 203.371094 L 126.453125 203.371094 Z M 128.171875 194.515625 C 128.023438 194.515625 127.875 194.46875 127.679688 194.320312 C 127.480469 194.175781 127.332031 194.027344 127.1875 193.832031 C 127.039062 193.632812 126.992188 193.488281 126.992188 193.335938 C 126.992188 193.191406 127.039062 193.042969 127.1875 192.847656 C 127.332031 192.652344 127.480469 192.503906 127.679688 192.355469 C 127.875 192.207031 128.023438 192.15625 128.171875 192.15625 C 128.316406 192.15625 128.464844 192.207031 128.660156 192.355469 C 128.859375 192.503906 129.007812 192.652344 129.15625 192.847656 C 129.300781 193.042969 129.351562 193.191406 129.351562 193.335938 C 129.351562 193.488281 129.300781 193.632812 129.15625 193.832031 C 129.007812 194.027344 128.859375 194.175781 128.660156 194.320312 C 128.515625 194.417969 128.316406 194.515625 128.171875 194.515625 Z M 130.921875 194.515625 C 130.777344 194.515625 130.628906 194.46875 130.433594 194.320312 C 130.238281 194.175781 130.089844 194.027344 129.945312 193.832031 C 129.792969 193.632812 129.742188 193.488281 129.742188 193.335938 C 129.742188 193.191406 129.792969 193.042969 129.945312 192.847656 C 130.089844 192.652344 130.238281 192.503906 130.433594 192.355469 C 130.628906 192.207031 130.777344 192.15625 130.921875 192.15625 C 131.070312 192.15625 131.222656 192.207031 131.417969 192.355469 C 131.613281 192.503906 131.761719 192.652344 131.90625 192.847656 C 132.054688 193.042969 132.105469 193.191406 132.105469 193.335938 C 132.105469 193.488281 132.054688 193.632812 131.90625 193.832031 C 131.761719 194.027344 131.613281 194.175781 131.417969 194.320312 C 131.222656 194.417969 131.070312 194.515625 130.921875 194.515625 Z M 130.628906 203.421875 L 130.628906 201.011719 L 131.808594 201.011719 L 131.808594 203.421875 Z M 131.808594 203.421875 L 131.808594 201.011719 C 131.90625 201.011719 132.007812 201.109375 132.054688 201.355469 C 132.105469 201.550781 132.152344 201.847656 132.152344 202.242188 C 132.152344 202.632812 132.105469 202.929688 132.054688 203.125 C 131.957031 203.324219 131.90625 203.421875 131.808594 203.421875 Z M 131.808594 203.421875 "/>
<path style=" stroke:none;fill-rule:nonzero;fill:rgb(100%,76.078431%,5.490196%);fill-opacity:1;" d="M 131.808594 203.421875 C 131.710938 203.421875 131.613281 203.324219 131.566406 203.125 C 131.515625 202.929688 131.46875 202.632812 131.46875 202.242188 C 131.46875 201.898438 131.515625 201.597656 131.566406 201.355469 C 131.613281 201.15625 131.710938 201.011719 131.808594 201.011719 Z M 131.808594 203.421875 L 131.808594 201.011719 L 133.828125 201.011719 L 133.828125 197.617188 L 135.992188 197.617188 L 135.992188 203.371094 L 131.808594 203.371094 Z M 135.941406 203.421875 L 135.941406 201.011719 L 137.859375 201.011719 C 138.253906 201.011719 138.5 200.960938 138.695312 200.863281 C 138.890625 200.765625 138.992188 200.519531 138.992188 200.222656 L 138.992188 197.667969 L 141.15625 197.667969 L 141.15625 199.78125 C 141.15625 200.519531 141.105469 201.109375 141.007812 201.597656 C 140.910156 202.09375 140.714844 202.4375 140.414062 202.730469 C 140.121094 202.980469 139.730469 203.175781 139.234375 203.324219 C 138.695312 203.421875 138.054688 203.46875 137.222656 203.46875 L 135.941406 203.46875 Z M 142.582031 203.421875 C 141.84375 203.421875 141.253906 203.371094 140.761719 203.273438 C 140.269531 203.175781 139.925781 202.980469 139.679688 202.683594 C 139.433594 202.4375 139.234375 202.042969 139.136719 201.550781 C 139.039062 201.058594 138.992188 200.472656 138.992188 199.734375 L 138.992188 197.617188 L 141.15625 197.617188 L 141.15625 200.175781 C 141.15625 200.519531 141.253906 200.71875 141.449219 200.816406 C 141.644531 200.914062 141.941406 200.960938 142.285156 200.960938 L 144.058594 200.960938 C 144.109375 200.765625 144.15625 200.519531 144.15625 200.273438 C 144.15625 200.027344 144.207031 199.734375 144.207031 199.4375 C 144.207031 198.945312 144.15625 198.503906 144.109375 198.007812 C 144.007812 197.519531 143.90625 197.027344 143.808594 196.535156 L 145.925781 196.242188 C 146.023438 196.535156 146.121094 196.878906 146.171875 197.226562 C 146.21875 197.566406 146.269531 197.910156 146.316406 198.257812 C 146.367188 198.601562 146.367188 198.945312 146.367188 199.289062 C 146.367188 200.371094 146.21875 201.15625 145.972656 201.75 C 145.730469 202.339844 145.289062 202.730469 144.746094 202.980469 C 144.15625 203.324219 143.417969 203.421875 142.582031 203.421875 Z M 142.484375 203.421875 L 145.039062 201.011719 L 147.5 201.011719 L 147.5 203.421875 Z M 147.5 203.421875 L 147.5 201.011719 C 147.601562 201.011719 147.699219 201.109375 147.746094 201.355469 C 147.796875 201.550781 147.84375 201.847656 147.84375 202.242188 C 147.84375 202.632812 147.796875 202.929688 147.746094 203.125 C 147.699219 203.324219 147.601562 203.421875 147.5 203.421875 Z M 147.5 203.421875 "/>
<path style=" stroke:none;fill-rule:nonzero;fill:rgb(100%,76.078431%,5.490196%);fill-opacity:1;" d="M 147.5 203.421875 C 147.398438 203.421875 147.300781 203.324219 147.253906 203.125 C 147.203125 202.929688 147.15625 202.632812 147.15625 202.242188 C 147.15625 201.898438 147.203125 201.597656 147.253906 201.355469 C 147.300781 201.15625 147.398438 201.011719 147.5 201.011719 Z M 147.5 203.421875 L 147.5 201.011719 L 150.597656 201.011719 L 149.464844 202.09375 L 149.464844 196.242188 L 151.632812 196.242188 L 151.632812 203.371094 L 147.5 203.371094 Z M 147.992188 194.515625 C 147.84375 194.515625 147.699219 194.46875 147.5 194.320312 C 147.300781 194.175781 147.15625 194.027344 147.007812 193.832031 C 146.859375 193.632812 146.8125 193.488281 146.8125 193.335938 C 146.8125 193.191406 146.859375 193.042969 147.007812 192.847656 C 147.15625 192.652344 147.300781 192.503906 147.5 192.355469 C 147.699219 192.207031 147.84375 192.15625 147.992188 192.15625 C 148.140625 192.15625 148.285156 192.207031 148.480469 192.355469 C 148.679688 192.503906 148.828125 192.652344 148.976562 192.847656 C 149.125 193.042969 149.171875 193.191406 149.171875 193.335938 C 149.171875 193.488281 149.125 193.632812 148.976562 193.832031 C 148.828125 194.027344 148.679688 194.175781 148.480469 194.320312 C 148.285156 194.417969 148.089844 194.515625 147.992188 194.515625 Z M 150.695312 194.515625 C 150.550781 194.515625 150.402344 194.46875 150.207031 194.320312 C 150.011719 194.175781 149.859375 194.027344 149.710938 193.832031 C 149.566406 193.632812 149.515625 193.488281 149.515625 193.335938 C 149.515625 193.191406 149.566406 193.042969 149.710938 192.847656 C 149.859375 192.652344 150.011719 192.503906 150.207031 192.355469 C 150.402344 192.207031 150.550781 192.15625 150.695312 192.15625 C 150.84375 192.15625 150.988281 192.207031 151.191406 192.355469 C 151.386719 192.503906 151.535156 192.652344 151.679688 192.847656 C 151.828125 193.042969 151.875 193.191406 151.875 193.335938 C 151.875 193.488281 151.828125 193.632812 151.679688 193.832031 C 151.535156 194.027344 151.386719 194.175781 151.191406 194.320312 C 150.988281 194.417969 150.84375 194.515625 150.695312 194.515625 Z M 150.695312 194.515625 "/>
<path style=" stroke:none;fill-rule:nonzero;fill:rgb(100%,76.078431%,5.490196%);fill-opacity:1;" d="M 153.894531 207.652344 L 153.105469 205.734375 C 153.5 205.535156 153.796875 205.339844 154.042969 205.140625 C 154.238281 204.945312 154.382812 204.699219 154.480469 204.355469 C 154.582031 204.011719 154.582031 203.617188 154.582031 203.078125 L 154.582031 196.242188 L 156.695312 196.242188 L 156.695312 203.078125 C 156.695312 203.863281 156.597656 204.601562 156.402344 205.140625 C 156.207031 205.734375 155.910156 206.222656 155.515625 206.617188 C 155.125 207.011719 154.582031 207.355469 153.894531 207.652344 Z M 153.894531 207.652344 "/>
<path style=" stroke:none;fill-rule:nonzero;fill:rgb(100%,76.078431%,5.490196%);fill-opacity:1;" d="M 159.058594 203.421875 L 159.058594 193.832031 L 161.222656 193.832031 L 161.222656 201.011719 L 162.402344 201.011719 L 162.402344 203.421875 Z M 162.351562 203.421875 L 162.351562 201.011719 C 162.449219 201.011719 162.550781 201.109375 162.597656 201.355469 C 162.648438 201.550781 162.695312 201.847656 162.695312 202.242188 C 162.695312 202.632812 162.648438 202.929688 162.597656 203.125 C 162.550781 203.324219 162.449219 203.421875 162.351562 203.421875 Z M 162.351562 203.421875 "/>
<path style=" stroke:none;fill-rule:nonzero;fill:rgb(100%,76.078431%,5.490196%);fill-opacity:1;" d="M 162.351562 203.421875 C 162.253906 203.421875 162.15625 203.324219 162.109375 203.125 C 162.058594 202.929688 162.007812 202.632812 162.007812 202.242188 C 162.007812 201.898438 162.058594 201.597656 162.109375 201.355469 C 162.15625 201.15625 162.253906 201.011719 162.351562 201.011719 Z M 162.351562 203.421875 L 162.351562 201.011719 L 166.039062 201.011719 L 166.039062 203.421875 Z M 166.089844 203.421875 L 166.089844 201.011719 C 166.1875 201.011719 166.285156 201.109375 166.335938 201.355469 C 166.386719 201.550781 166.4375 201.847656 166.4375 202.242188 C 166.4375 202.632812 166.386719 202.929688 166.335938 203.125 C 166.238281 203.324219 166.1875 203.421875 166.089844 203.421875 Z M 166.089844 203.421875 "/>
<path style=" stroke:none;fill-rule:nonzero;fill:rgb(100%,76.078431%,5.490196%);fill-opacity:1;" d="M 166.089844 203.421875 C 165.992188 203.421875 165.894531 203.324219 165.84375 203.125 C 165.796875 202.929688 165.746094 202.632812 165.746094 202.242188 C 165.746094 201.898438 165.796875 201.597656 165.84375 201.355469 C 165.894531 201.15625 165.992188 201.011719 166.089844 201.011719 Z M 166.089844 203.421875 L 166.089844 201.011719 L 169.777344 201.011719 L 169.777344 203.421875 Z M 169.777344 203.421875 L 169.777344 201.011719 C 169.875 201.011719 169.976562 201.109375 170.027344 201.355469 C 170.078125 201.550781 170.125 201.847656 170.125 202.242188 C 170.125 202.632812 170.078125 202.929688 170.027344 203.125 C 169.976562 203.324219 169.875 203.421875 169.777344 203.421875 Z M 169.777344 203.421875 "/>
<path style=" stroke:none;fill-rule:nonzero;fill:rgb(100%,76.078431%,5.490196%);fill-opacity:1;" d="M 169.777344 203.421875 C 169.679688 203.421875 169.582031 203.324219 169.53125 203.125 C 169.484375 202.929688 169.433594 202.632812 169.433594 202.242188 C 169.433594 201.898438 169.484375 201.597656 169.53125 201.355469 C 169.582031 201.15625 169.679688 201.011719 169.777344 201.011719 Z M 169.777344 203.421875 L 169.777344 201.011719 L 173.46875 201.011719 L 173.46875 203.421875 Z M 173.46875 203.421875 L 173.46875 201.011719 C 173.566406 201.011719 173.667969 201.109375 173.714844 201.355469 C 173.765625 201.550781 173.8125 201.847656 173.8125 202.242188 C 173.8125 202.632812 173.765625 202.929688 173.714844 203.125 C 173.667969 203.324219 173.617188 203.421875 173.46875 203.421875 Z M 173.46875 203.421875 "/>
<path style=" stroke:none;fill-rule:nonzero;fill:rgb(100%,76.078431%,5.490196%);fill-opacity:1;" d="M 173.46875 203.421875 C 173.367188 203.421875 173.269531 203.324219 173.222656 203.125 C 173.171875 202.929688 173.125 202.632812 173.125 202.242188 C 173.125 201.898438 173.171875 201.597656 173.222656 201.355469 C 173.269531 201.15625 173.367188 201.011719 173.46875 201.011719 Z M 173.46875 203.421875 L 173.46875 201.011719 L 177.160156 201.011719 L 177.160156 203.421875 Z M 177.207031 203.421875 L 177.207031 201.011719 C 177.304688 201.011719 177.402344 201.109375 177.453125 201.355469 C 177.5 201.550781 177.550781 201.847656 177.550781 202.242188 C 177.550781 202.632812 177.5 202.929688 177.453125 203.125 C 177.355469 203.324219 177.304688 203.421875 177.207031 203.421875 Z M 177.207031 203.421875 "/>
<path style=" stroke:none;fill-rule:nonzero;fill:rgb(100%,76.078431%,5.490196%);fill-opacity:1;" d="M 177.207031 203.421875 C 177.109375 203.421875 177.011719 203.324219 176.960938 203.125 C 176.910156 202.929688 176.859375 202.632812 176.859375 202.242188 C 176.859375 201.898438 176.910156 201.597656 176.960938 201.355469 C 177.011719 201.15625 177.109375 201.011719 177.207031 201.011719 Z M 177.207031 203.421875 L 177.207031 201.011719 L 180.058594 201.011719 C 180.449219 201.011719 180.847656 200.960938 181.140625 200.816406 C 181.433594 200.71875 181.683594 200.519531 181.929688 200.320312 C 182.125 200.125 182.320312 199.878906 182.46875 199.632812 C 182.617188 199.390625 182.714844 199.089844 182.8125 198.796875 L 184.78125 199.488281 C 184.582031 200.222656 184.289062 200.816406 183.992188 201.304688 C 183.648438 201.800781 183.304688 202.242188 182.863281 202.535156 C 182.417969 202.832031 181.976562 203.078125 181.433594 203.226562 C 180.945312 203.371094 180.402344 203.421875 179.863281 203.421875 Z M 185.171875 203.421875 C 184.828125 203.421875 184.582031 203.371094 184.386719 203.226562 C 184.191406 203.078125 184.042969 202.882812 183.941406 202.582031 L 183.011719 200.222656 C 182.863281 199.832031 182.664062 199.488281 182.417969 199.238281 C 182.175781 198.992188 181.878906 198.796875 181.53125 198.699219 C 181.191406 198.601562 180.699219 198.503906 180.15625 198.503906 C 179.910156 198.503906 179.617188 198.503906 179.324219 198.503906 C 179.023438 198.503906 178.683594 198.550781 178.339844 198.601562 L 178.039062 196.242188 C 178.4375 196.191406 178.828125 196.140625 179.171875 196.140625 C 179.519531 196.09375 179.863281 196.09375 180.15625 196.09375 C 181.042969 196.09375 181.78125 196.191406 182.417969 196.4375 C 183.058594 196.683594 183.550781 197.027344 183.941406 197.46875 C 184.339844 197.960938 184.683594 198.550781 184.976562 199.339844 L 185.617188 201.058594 L 186.503906 201.058594 L 186.503906 203.46875 L 185.171875 203.46875 Z M 181.832031 207.011719 C 181.683594 207.011719 181.53125 206.960938 181.335938 206.816406 C 181.140625 206.667969 180.992188 206.519531 180.847656 206.320312 C 180.699219 206.125 180.652344 205.976562 180.652344 205.832031 C 180.652344 205.683594 180.699219 205.535156 180.847656 205.339844 C 180.992188 205.140625 181.140625 204.992188 181.335938 204.847656 C 181.53125 204.699219 181.683594 204.648438 181.832031 204.648438 C 181.976562 204.648438 182.125 204.699219 182.320312 204.847656 C 182.515625 204.992188 182.664062 205.140625 182.8125 205.339844 C 182.960938 205.535156 183.011719 205.683594 183.011719 205.832031 C 183.011719 205.976562 182.960938 206.125 182.8125 206.320312 C 182.664062 206.519531 182.515625 206.667969 182.320312 206.816406 C 182.125 206.914062 181.976562 207.011719 181.832031 207.011719 Z M 186.453125 203.421875 L 186.453125 201.011719 C 186.550781 201.011719 186.652344 201.109375 186.699219 201.355469 C 186.75 201.550781 186.796875 201.847656 186.796875 202.242188 C 186.796875 202.632812 186.75 202.929688 186.699219 203.125 C 186.601562 203.324219 186.550781 203.421875 186.453125 203.421875 Z M 186.453125 203.421875 "/>
<path style=" stroke:none;fill-rule:nonzero;fill:rgb(100%,76.078431%,5.490196%);fill-opacity:1;" d="M 186.453125 203.421875 C 186.351562 203.421875 186.253906 203.324219 186.207031 203.125 C 186.15625 202.929688 186.105469 202.632812 186.105469 202.242188 C 186.105469 201.898438 186.15625 201.597656 186.207031 201.355469 C 186.253906 201.15625 186.351562 201.011719 186.453125 201.011719 Z M 186.453125 203.421875 L 186.453125 201.011719 L 189.550781 201.011719 L 188.417969 202.09375 L 188.417969 196.242188 L 190.582031 196.242188 L 190.582031 203.371094 L 186.453125 203.371094 Z M 186.699219 194.515625 C 186.550781 194.515625 186.40625 194.46875 186.207031 194.320312 C 186.007812 194.175781 185.863281 194.027344 185.714844 193.832031 C 185.566406 193.632812 185.519531 193.488281 185.519531 193.335938 C 185.519531 193.191406 185.566406 193.042969 185.714844 192.847656 C 185.863281 192.652344 186.007812 192.503906 186.207031 192.355469 C 186.40625 192.207031 186.550781 192.15625 186.699219 192.15625 C 186.847656 192.15625 186.992188 192.207031 187.191406 192.355469 C 187.386719 192.503906 187.53125 192.652344 187.683594 192.847656 C 187.832031 193.042969 187.878906 193.191406 187.878906 193.335938 C 187.878906 193.488281 187.832031 193.632812 187.683594 193.832031 C 187.53125 194.027344 187.386719 194.175781 187.191406 194.320312 C 187.042969 194.417969 186.847656 194.515625 186.699219 194.515625 Z M 189.453125 194.515625 C 189.304688 194.515625 189.160156 194.46875 188.960938 194.320312 C 188.765625 194.175781 188.613281 194.027344 188.46875 193.832031 C 188.320312 193.632812 188.273438 193.488281 188.273438 193.335938 C 188.273438 193.191406 188.320312 193.042969 188.46875 192.847656 C 188.613281 192.652344 188.765625 192.503906 188.960938 192.355469 C 189.160156 192.207031 189.304688 192.15625 189.453125 192.15625 C 189.597656 192.15625 189.746094 192.207031 189.945312 192.355469 C 190.144531 192.503906 190.289062 192.652344 190.4375 192.847656 C 190.582031 193.042969 190.632812 193.191406 190.632812 193.335938 C 190.632812 193.488281 190.582031 193.632812 190.4375 193.832031 C 190.289062 194.027344 190.144531 194.175781 189.945312 194.320312 C 189.746094 194.417969 189.597656 194.515625 189.453125 194.515625 Z M 189.453125 194.515625 "/>
<path style=" stroke:none;fill-rule:evenodd;fill:rgb(100%,76.078431%,5.490196%);fill-opacity:1;" d="M 158.371094 98.613281 L 185.074219 114.007812 L 176.515625 118.925781 L 167.417969 113.664062 L 158.371094 118.925781 L 156.550781 120.007812 L 151.679688 122.808594 L 149.859375 123.890625 L 141.300781 118.972656 L 143.125 117.890625 L 147.992188 115.089844 L 149.808594 114.007812 L 158.859375 108.742188 L 149.761719 103.480469 Z M 176.515625 118.925781 L 185.074219 123.839844 L 185.074219 154.683594 L 176.515625 149.761719 L 176.515625 139.285156 L 167.417969 134.023438 L 165.601562 132.941406 L 160.730469 130.140625 L 158.910156 129.058594 L 158.910156 119.167969 L 160.730469 120.25 L 165.601562 123.058594 L 167.417969 124.140625 L 176.515625 129.398438 Z M 176.515625 149.761719 L 176.515625 159.648438 L 149.808594 175.042969 L 149.808594 165.15625 L 158.910156 159.894531 L 158.910156 139.582031 L 167.464844 134.664062 L 167.464844 154.976562 Z M 149.808594 165.15625 L 141.253906 170.078125 L 114.59375 154.683594 L 123.15625 149.761719 L 132.203125 155.027344 L 141.300781 149.761719 L 143.125 148.679688 L 147.992188 145.875 L 149.808594 144.792969 L 158.371094 149.710938 L 156.550781 150.792969 L 151.679688 153.601562 L 149.859375 154.683594 L 140.8125 159.941406 Z M 123.15625 149.761719 L 114.59375 144.84375 L 114.59375 114.007812 L 123.15625 118.925781 L 123.15625 129.398438 L 132.203125 134.664062 L 134.023438 135.742188 L 138.890625 138.550781 L 140.714844 139.632812 L 140.714844 149.515625 L 138.890625 148.433594 L 134.023438 145.632812 L 132.203125 144.550781 L 123.105469 139.285156 Z M 123.15625 118.925781 L 123.15625 109.039062 L 149.859375 93.644531 L 149.859375 103.53125 L 140.8125 108.792969 L 140.8125 129.105469 L 132.25 134.023438 L 132.25 113.710938 Z M 123.15625 118.925781 "/>
</g>
</svg>
