<?xml version="1.0" standalone="no"?>
<!DOCTYPE svg PUBLIC "-//W3C//DTD SVG 1.0//EN" "http://www.w3.org/TR/2001/REC-SVG-20010904/DTD/svg10.dtd">
<svg xmlns="http://www.w3.org/2000/svg" xmlns:xlink="http://www.w3.org/1999/xlink" id="body_1" width="1055" height="791">

<g transform="matrix(1.2924837 0 0 1.2924837 131.99998 -0)">
	<g>
		<g>
			<g>
                <path d="M221.6 366.5L233.20001 366.5L233.20001 369.8L229 369.8L229 383.69998L225.6 383.69998L225.6 369.8L221.6 369.8L221.6 366.5z" stroke="none" fill="#FFC20E" fill-rule="nonzero" />
                <path d="M236.4 366.5L248.09999 366.5L248.09999 369.8L239.79999 369.8L239.79999 373.5L247.19998 373.5L247.19998 376.8L239.79999 376.8L239.79999 380.5L248.49998 380.5L248.49998 383.8L236.49998 383.8L236.49998 366.5L236.4 366.5z" stroke="none" fill="#FFC20E" fill-rule="nonzero" />
                <path d="M256.8 380.1C 256.8 381.6 256.5 382.9 255.9 383.9C 255.29999 384.9 254.5 385.8 253.4 386.3C 252.4 386.9 251.09999 387.19998 249.7 387.19998L249.7 387.19998L249.7 384C 250.8 383.9 251.59999 383.6 252.3 383C 253 382.4 253.3 381.4 253.3 380L253.3 380L253.3 366.5L256.7 366.5L256.7 380.1L256.8 380.1z" stroke="none" fill="#FFC20E" fill-rule="nonzero" />
                <path d="M259.3 383.7L267 365.90002L267.2 365.90002L274.90002 383.7L271.00003 383.7L266.10004 371.1L268.60004 369.4L262.70004 383.6L259.3 383.6L259.3 383.7zM264.6 377.5L269.80002 377.5L271.00003 380.3L263.60004 380.3L264.6 377.5z" stroke="none" fill="#FFC20E" fill-rule="nonzero" />
                <path d="M282.7 366.5C 283.80002 366.5 284.7 366.6 285.6 366.9C 286.4 367.19998 287.1 367.6 287.7 368.1C 288.30002 368.6 288.7 369.2 289 369.9C 289.3 370.59998 289.4 371.4 289.4 372.3C 289.4 373 289.3 373.69998 289.1 374.4C 288.90002 375.1 288.5 375.69998 288.1 376.3C 287.6 376.9 287 377.3 286.2 377.69998C 285.40002 377.99997 284.5 378.19998 283.30002 378.19998L283.30002 378.19998L280.90002 378.19998L280.90002 383.69998L277.50003 383.69998L277.50003 366.49997L282.7 366.49997L282.7 366.5zM283.3 375C 283.8 375 284.19998 374.9 284.59998 374.7C 284.89996 374.5 285.19998 374.30002 285.39996 374C 285.59998 373.7 285.69995 373.5 285.79996 373.2C 285.89996 372.90002 285.89996 372.6 285.89996 372.40002C 285.89996 372.2 285.89996 372.00003 285.79996 371.7C 285.69995 371.40002 285.59995 371.1 285.49997 370.80002C 285.29996 370.50003 285.09998 370.30002 284.69998 370.1C 284.3 369.9 283.9 369.80002 283.3 369.80002L283.3 369.80002L280.9 369.80002L280.9 375.00003L283.3 375.00003zM286.5 377.1L290.7 383.7L286.80002 383.7L282.50003 377.2L286.5 377.1z" stroke="none" fill="#FFC20E" fill-rule="nonzero" />
                <path d="M291.6 383.7L299.30002 365.90002L299.50003 365.90002L307.20004 383.7L303.30005 383.7L298.40005 371.1L300.90005 369.4L295.00006 383.6L291.6 383.6L291.6 383.7zM296.9 377.5L302.1 377.5L303.30002 380.3L295.90002 380.3L296.9 377.5z" stroke="none" fill="#FFC20E" fill-rule="nonzero" />
                <path d="M308.6 366.5L320.2 366.5L320.2 369.8L316 369.8L316 383.69998L312.6 383.69998L312.6 369.8L308.6 369.8L308.6 366.5z" stroke="none" fill="#FFC20E" fill-rule="nonzero" />
                <path d="M323.4 366.5L326.8 366.5L326.8 383.7L323.4 383.7L323.4 366.5z" stroke="none" fill="#FFC20E" fill-rule="nonzero" />
                <path d="M340.4 370.7C 339.69998 370.30002 339.1 370 338.4 369.80002C 337.69998 369.6 337.1 369.50003 336.5 369.50003C 335.8 369.50003 335.2 369.60004 334.8 369.90002C 334.39996 370.2 334.19998 370.60004 334.19998 371.2C 334.19998 371.6 334.4 372 334.69998 372.30002C 334.99997 372.6 335.4 372.90002 335.9 373.2C 336.4 373.40002 336.9 373.7 337.5 373.90002C 338 374.10004 338.5 374.30002 339 374.60004C 339.5 374.90002 339.9 375.20004 340.3 375.60004C 340.69998 376.00003 341 376.50003 341.19998 377.00003C 341.4 377.60004 341.49997 378.30002 341.49997 379.10004C 341.49997 380.00003 341.29996 380.80005 340.79996 381.50003C 340.29996 382.20004 339.69995 382.80002 338.79996 383.30002C 337.89996 383.80002 336.89996 384.00003 335.59995 384.00003C 334.89993 384.00003 334.29996 383.90002 333.59995 383.80002C 332.89993 383.7 332.29996 383.50003 331.59995 383.2C 330.89993 382.9 330.29996 382.6 329.69995 382.2L329.69995 382.2L331.19995 379.6C 331.59995 379.9 331.99994 380.2 332.49994 380.4C 332.99994 380.6 333.49994 380.8 333.89993 380.9C 334.39993 381 334.79993 381.1 335.19992 381.1C 335.5999 381.1 335.9999 381 336.39993 380.9C 336.79993 380.8 337.19992 380.6 337.39993 380.3C 337.69992 380 337.79993 379.59998 337.79993 379.09998C 337.79993 378.8 337.69992 378.39996 337.49994 378.19998C 337.29993 377.9 336.99994 377.69998 336.59995 377.4C 336.19995 377.1 335.79996 377 335.39993 376.8C 334.89993 376.59998 334.29993 376.4 333.79993 376.09998C 333.19992 375.8 332.69992 375.49997 332.19992 375.09998C 331.69992 374.69998 331.29993 374.19998 330.9999 373.69998C 330.69992 373.09998 330.4999 372.4 330.4999 371.59998C 330.4999 370.59998 330.69992 369.69998 331.19992 368.99997C 331.5999 368.29996 332.29993 367.69998 333.0999 367.29996C 333.8999 366.89996 334.79993 366.59995 335.8999 366.59995C 337.2999 366.59995 338.3999 366.79996 339.2999 367.09995C 340.1999 367.39993 340.8999 367.79996 341.59988 368.29996L341.59988 368.29996L340.4 370.7z" stroke="none" fill="#FFC20E" fill-rule="nonzero" />
                <path d="M343.7 366.5L355.30002 366.5L355.30002 369.8L351.1 369.8L351.1 383.69998L347.7 383.69998L347.7 369.8L343.7 369.8L343.7 366.5z" stroke="none" fill="#FFC20E" fill-rule="nonzero" />
                <path d="M356.6 383.7L364.30002 365.90002L364.50003 365.90002L372.20004 383.7L368.30005 383.7L363.40005 371.1L365.90005 369.4L360.00006 383.6L356.6 383.6L356.6 383.7zM361.9 377.5L367.1 377.5L368.30002 380.3L360.90002 380.3L361.9 377.5z" stroke="none" fill="#FFC20E" fill-rule="nonzero" />
                <path d="M390.1 384.4L377.1 372.6L378.1 373.2L378.2 383.7L374.80002 383.7L374.80002 365.90002L374.90002 365.90002L387.60004 377.60004L386.90002 377.30005L386.80002 366.60004L390.2 366.60004L390.1 384.4z" stroke="none" fill="#FFC20E" fill-rule="nonzero" />
			</g>
		</g>
		<g>
            <path d="M229.6 421C 228 421 226.6 420.9 225.5 420.7C 224.4 420.5 223.6 420.1 223 419.5C 222.4 418.9 222 418.2 221.7 417.2C 221.5 416.2 221.3 415 221.3 413.5C 221.3 412.6 221.3 411.8 221.40001 410.9C 221.50002 410 221.6 409.19998 221.8 408.4C 222 407.6 222.1 406.8 222.40001 406L222.40001 406L226.50002 406.7C 226.20001 407.7 226.00002 408.80002 225.90001 409.80002C 225.8 410.80002 225.70001 411.80002 225.70001 412.80002C 225.70001 413.50003 225.70001 414.2 225.80002 414.7C 225.80002 415.2 225.90002 415.80002 226.00002 416.2L226.00002 416.2L230.40001 416.2C 231.50002 416.2 232.3 416.1 232.8 415.90002C 233.3 415.7 233.6 415.2 233.6 414.60004L233.6 414.60004L233.6 399.20004L238 399.20004L238 413.80005C 238 415.20004 237.9 416.40005 237.7 417.40005C 237.5 418.40005 237.09999 419.10007 236.5 419.70004C 235.9 420.20004 235 420.60004 233.9 420.90005C 232.9 420.9 231.4 421 229.6 421zM229.8 395.5C 229.5 395.5 229.2 395.4 228.8 395.1C 228.40001 394.80002 228.1 394.5 227.8 394.1C 227.5 393.7 227.40001 393.4 227.40001 393.1C 227.40001 392.80002 227.50002 392.5 227.8 392.1C 228.1 391.7 228.40001 391.4 228.8 391.1C 229.2 390.80002 229.5 390.7 229.8 390.7C 230.1 390.7 230.40001 390.80002 230.8 391.1C 231.2 391.4 231.5 391.7 231.8 392.1C 232.1 392.5 232.2 392.80002 232.2 393.1C 232.2 393.4 232.09999 393.7 231.8 394.1C 231.5 394.5 231.2 394.80002 230.8 395.1C 230.4 395.3 230.1 395.5 229.8 395.5z" stroke="none" fill="#FFC20E" fill-rule="nonzero" />
            <path d="M242.9 413.6L242.9 394.1L247.29999 394.1L247.29999 408.7L249.69998 408.7L249.69998 413.6L242.9 413.6zM249.6 413.6L249.6 408.7C 249.8 408.7 250 408.90002 250.1 409.40002C 250.20001 409.80002 250.3 410.40002 250.3 411.2C 250.3 412 250.2 412.6 250.1 413C 250 413.4 249.8 413.6 249.6 413.6z" stroke="none" fill="#FFC20E" fill-rule="nonzero" />
            <path d="M249.6 413.6C 249.40001 413.6 249.20001 413.4 249.1 413C 249 412.6 248.90001 412 248.90001 411.2C 248.90001 410.5 249.00002 409.90002 249.1 409.40002C 249.2 408.90002 249.40001 408.7 249.6 408.7L249.6 408.7L249.6 413.6zM249.6 413.6L249.6 408.7L257.1 408.7L257.1 413.6L249.6 413.6zM257.1 413.6L257.1 408.7C 257.30002 408.7 257.5 408.90002 257.6 409.40002C 257.7 409.80002 257.80002 410.40002 257.80002 411.2C 257.80002 412 257.7 412.6 257.6 413C 257.5 413.4 257.4 413.6 257.1 413.6z" stroke="none" fill="#FFC20E" fill-rule="nonzero" />
            <path d="M257.1 413.6C 256.9 413.6 256.7 413.4 256.6 413C 256.5 412.6 256.4 412 256.4 411.2C 256.4 410.5 256.5 409.90002 256.6 409.40002C 256.7 409.00003 256.9 408.7 257.1 408.7L257.1 408.7L257.1 413.6zM257.1 413.6L257.1 408.7L263.4 408.7L261.1 410.90002L261.1 399.00003L265.5 399.00003L265.5 413.50003L257.1 413.50003zM260.6 395.5C 260.30002 395.5 260 395.4 259.6 395.1C 259.2 394.80002 258.9 394.5 258.6 394.1C 258.30002 393.7 258.2 393.4 258.2 393.1C 258.2 392.80002 258.30002 392.5 258.6 392.1C 258.9 391.7 259.2 391.4 259.6 391.1C 260 390.80002 260.30002 390.7 260.6 390.7C 260.9 390.7 261.2 390.80002 261.6 391.1C 262 391.4 262.30002 391.7 262.6 392.1C 262.9 392.5 263 392.80002 263 393.1C 263 393.4 262.9 393.7 262.6 394.1C 262.30002 394.5 262 394.80002 261.6 395.1C 261.3 395.3 260.9 395.5 260.6 395.5zM266.2 395.5C 265.90002 395.5 265.6 395.4 265.2 395.1C 264.80002 394.80002 264.5 394.5 264.2 394.1C 263.90002 393.7 263.80002 393.4 263.80002 393.1C 263.80002 392.80002 263.90002 392.5 264.2 392.1C 264.5 391.7 264.80002 391.4 265.2 391.1C 265.6 390.80002 265.90002 390.7 266.2 390.7C 266.5 390.7 266.80002 390.80002 267.2 391.1C 267.6 391.4 267.90002 391.7 268.2 392.1C 268.5 392.5 268.6 392.80002 268.6 393.1C 268.6 393.4 268.5 393.7 268.2 394.1C 267.90002 394.5 267.6 394.80002 267.2 395.1C 266.8 395.3 266.5 395.5 266.2 395.5zM265.6 413.6L265.6 408.7L268 408.7L268 413.6L265.6 413.6zM268 413.6L268 408.7C 268.2 408.7 268.4 408.90002 268.5 409.40002C 268.6 409.80002 268.7 410.40002 268.7 411.2C 268.7 412 268.6 412.6 268.5 413C 268.3 413.4 268.2 413.6 268 413.6z" stroke="none" fill="#FFC20E" fill-rule="nonzero" />
            <path d="M268 413.6C 267.8 413.6 267.6 413.4 267.5 413C 267.4 412.6 267.3 412 267.3 411.2C 267.3 410.5 267.4 409.90002 267.5 409.40002C 267.6 409.00003 267.8 408.7 268 408.7L268 408.7L268 413.6zM268 413.6L268 408.7L272.1 408.7L272.1 401.80002L276.5 401.80002L276.5 413.50003L268 413.50003zM276.4 413.6L276.4 408.7L280.3 408.7C 281.09998 408.7 281.59998 408.6 282 408.40002C 282.4 408.2 282.6 407.7 282.6 407.10004L282.6 407.10004L282.6 401.90002L287 401.90002L287 406.2C 287 407.7 286.9 408.90002 286.7 409.90002C 286.5 410.90002 286.1 411.60004 285.5 412.2C 284.9 412.7 284.1 413.1 283.1 413.40002C 282 413.60004 280.7 413.7 279 413.7L279 413.7L276.4 413.7zM289.9 413.6C 288.4 413.6 287.19998 413.5 286.19998 413.30002C 285.19998 413.1 284.49997 412.7 283.99997 412.1C 283.49997 411.6 283.09998 410.80002 282.89996 409.80002C 282.69995 408.80002 282.59998 407.6 282.59998 406.1L282.59998 406.1L282.59998 401.80002L286.99997 401.80002L286.99997 407.00003C 286.99997 407.70004 287.19998 408.10004 287.59998 408.30002C 287.99997 408.50003 288.59998 408.6 289.3 408.6L289.3 408.6L292.9 408.6C 293 408.2 293.1 407.7 293.1 407.2C 293.1 406.7 293.2 406.1 293.2 405.5C 293.2 404.5 293.1 403.6 293 402.6C 292.8 401.6 292.6 400.6 292.4 399.6L292.4 399.6L296.69998 399C 296.9 399.6 297.09998 400.3 297.19998 401C 297.3 401.7 297.4 402.4 297.49997 403.1C 297.59998 403.80002 297.59998 404.5 297.59998 405.2C 297.59998 407.40002 297.3 409 296.8 410.2C 296.3 411.40002 295.4 412.2 294.3 412.7C 293.1 413.4 291.6 413.6 289.9 413.6zM289.7 413.6L294.90002 408.7L299.90002 408.7L299.90002 413.6L289.7 413.6zM299.9 413.6L299.9 408.7C 300.1 408.7 300.3 408.90002 300.4 409.40002C 300.5 409.80002 300.6 410.40002 300.6 411.2C 300.6 412 300.5 412.6 300.4 413C 300.3 413.4 300.1 413.6 299.9 413.6z" stroke="none" fill="#FFC20E" fill-rule="nonzero" />
            <path d="M299.9 413.6C 299.69998 413.6 299.5 413.4 299.4 413C 299.3 412.6 299.19998 412 299.19998 411.2C 299.19998 410.5 299.3 409.90002 299.4 409.40002C 299.5 409.00003 299.69998 408.7 299.9 408.7L299.9 408.7L299.9 413.6zM299.9 413.6L299.9 408.7L306.19998 408.7L303.9 410.90002L303.9 399.00003L308.3 399.00003L308.3 413.50003L299.9 413.50003zM300.9 395.5C 300.6 395.5 300.3 395.4 299.9 395.1C 299.5 394.80002 299.19998 394.5 298.9 394.1C 298.6 393.7 298.5 393.4 298.5 393.1C 298.5 392.80002 298.6 392.5 298.9 392.1C 299.19998 391.7 299.5 391.4 299.9 391.1C 300.3 390.80002 300.6 390.7 300.9 390.7C 301.19998 390.7 301.5 390.80002 301.9 391.1C 302.3 391.4 302.6 391.7 302.9 392.1C 303.19998 392.5 303.3 392.80002 303.3 393.1C 303.3 393.4 303.19998 393.7 302.9 394.1C 302.6 394.5 302.3 394.80002 301.9 395.1C 301.5 395.3 301.1 395.5 300.9 395.5zM306.4 395.5C 306.1 395.5 305.8 395.4 305.4 395.1C 305 394.80002 304.69998 394.5 304.4 394.1C 304.1 393.7 304 393.4 304 393.1C 304 392.80002 304.1 392.5 304.4 392.1C 304.69998 391.7 305 391.4 305.4 391.1C 305.8 390.80002 306.1 390.7 306.4 390.7C 306.69998 390.7 307 390.80002 307.4 391.1C 307.8 391.4 308.1 391.7 308.4 392.1C 308.69998 392.5 308.8 392.80002 308.8 393.1C 308.8 393.4 308.69998 393.7 308.4 394.1C 308.1 394.5 307.8 394.80002 307.4 395.1C 307 395.3 306.7 395.5 306.4 395.5z" stroke="none" fill="#FFC20E" fill-rule="nonzero" />
            <path d="M312.9 422.2L311.3 418.30002C 312.09998 417.90002 312.69998 417.50003 313.19998 417.1C 313.59998 416.7 313.9 416.2 314.09998 415.5C 314.3 414.8 314.3 414 314.3 412.9L314.3 412.9L314.3 399L318.59998 399L318.59998 412.9C 318.59998 414.5 318.39996 416 317.99997 417.1C 317.59998 418.30002 316.99997 419.30002 316.19998 420.1C 315.4 420.9 314.3 421.6 312.9 422.2z" stroke="none" fill="#FFC20E" fill-rule="nonzero" />
            <path d="M323.4 413.6L323.4 394.1L327.8 394.1L327.8 408.7L330.19998 408.7L330.19998 413.6L323.4 413.6zM330.1 413.6L330.1 408.7C 330.30002 408.7 330.5 408.90002 330.6 409.40002C 330.7 409.80002 330.80002 410.40002 330.80002 411.2C 330.80002 412 330.7 412.6 330.6 413C 330.5 413.4 330.3 413.6 330.1 413.6z" stroke="none" fill="#FFC20E" fill-rule="nonzero" />
            <path d="M330.1 413.6C 329.9 413.6 329.7 413.4 329.6 413C 329.5 412.6 329.4 412 329.4 411.2C 329.4 410.5 329.5 409.90002 329.6 409.40002C 329.7 409.00003 329.9 408.7 330.1 408.7L330.1 408.7L330.1 413.6zM330.1 413.6L330.1 408.7L337.6 408.7L337.6 413.6L330.1 413.6zM337.7 413.6L337.7 408.7C 337.90002 408.7 338.1 408.90002 338.2 409.40002C 338.30002 409.80002 338.40002 410.40002 338.40002 411.2C 338.40002 412 338.30002 412.6 338.2 413C 338 413.4 337.9 413.6 337.7 413.6z" stroke="none" fill="#FFC20E" fill-rule="nonzero" />
            <path d="M337.7 413.6C 337.5 413.6 337.30002 413.4 337.2 413C 337.1 412.6 337 412 337 411.2C 337 410.5 337.1 409.90002 337.2 409.40002C 337.30002 409.00003 337.5 408.7 337.7 408.7L337.7 408.7L337.7 413.6zM337.7 413.6L337.7 408.7L345.2 408.7L345.2 413.6L337.7 413.6zM345.2 413.6L345.2 408.7C 345.40002 408.7 345.6 408.90002 345.7 409.40002C 345.80002 409.80002 345.90002 410.40002 345.90002 411.2C 345.90002 412 345.80002 412.6 345.7 413C 345.6 413.4 345.4 413.6 345.2 413.6z" stroke="none" fill="#FFC20E" fill-rule="nonzero" />
            <path d="M345.2 413.6C 345 413.6 344.80002 413.4 344.7 413C 344.6 412.6 344.5 412 344.5 411.2C 344.5 410.5 344.6 409.90002 344.7 409.40002C 344.80002 409.00003 345 408.7 345.2 408.7L345.2 408.7L345.2 413.6zM345.2 413.6L345.2 408.7L352.7 408.7L352.7 413.6L345.2 413.6zM352.7 413.6L352.7 408.7C 352.90002 408.7 353.1 408.90002 353.2 409.40002C 353.30002 409.80002 353.40002 410.40002 353.40002 411.2C 353.40002 412 353.30002 412.6 353.2 413C 353.1 413.4 353 413.6 352.7 413.6z" stroke="none" fill="#FFC20E" fill-rule="nonzero" />
            <path d="M352.7 413.6C 352.5 413.6 352.30002 413.4 352.2 413C 352.1 412.6 352 412 352 411.2C 352 410.5 352.1 409.90002 352.2 409.40002C 352.30002 409.00003 352.5 408.7 352.7 408.7L352.7 408.7L352.7 413.6zM352.7 413.6L352.7 408.7L360.2 408.7L360.2 413.6L352.7 413.6zM360.3 413.6L360.3 408.7C 360.5 408.7 360.69998 408.90002 360.8 409.40002C 360.9 409.80002 361 410.40002 361 411.2C 361 412 360.9 412.6 360.8 413C 360.6 413.4 360.5 413.6 360.3 413.6z" stroke="none" fill="#FFC20E" fill-rule="nonzero" />
            <path d="M360.3 413.6C 360.09998 413.6 359.9 413.4 359.8 413C 359.69998 412.6 359.59998 412 359.59998 411.2C 359.59998 410.5 359.69998 409.90002 359.8 409.40002C 359.9 409.00003 360.09998 408.7 360.3 408.7L360.3 408.7L360.3 413.6zM360.3 413.6L360.3 408.7L366.09998 408.7C 366.89996 408.7 367.69998 408.6 368.3 408.30002C 368.9 408.1 369.4 407.7 369.9 407.30002C 370.3 406.90002 370.69998 406.40002 371 405.90002C 371.3 405.40002 371.5 404.80002 371.7 404.2L371.7 404.2L375.7 405.6C 375.30002 407.1 374.7 408.30002 374.1 409.30002C 373.4 410.30002 372.7 411.2 371.80002 411.80002C 370.90002 412.40002 370.00003 412.90002 368.90002 413.2C 367.90002 413.5 366.80002 413.6 365.7 413.6L365.7 413.6L360.3 413.6zM376.5 413.6C 375.8 413.6 375.3 413.5 374.9 413.2C 374.5 412.90002 374.19998 412.5 374 411.90002L374 411.90002L372.1 407.10004C 371.80002 406.30005 371.4 405.60004 370.9 405.10004C 370.4 404.60004 369.8 404.20004 369.1 404.00003C 368.4 403.80002 367.4 403.60004 366.30002 403.60004C 365.80002 403.60004 365.2 403.60004 364.6 403.60004C 364 403.60004 363.30002 403.70004 362.6 403.80005L362.6 403.80005L362 399.00006C 362.8 398.90005 363.6 398.80005 364.3 398.80005C 365 398.70004 365.69998 398.70004 366.3 398.70004C 368.09998 398.70004 369.59998 398.90005 370.9 399.40005C 372.2 399.90005 373.19998 400.60007 374 401.50006C 374.8 402.50006 375.5 403.70007 376.1 405.30005L376.1 405.30005L377.4 408.80005L379.19998 408.80005L379.19998 413.70004L376.5 413.70004zM369.7 420.9C 369.40002 420.9 369.1 420.8 368.7 420.5C 368.30002 420.2 368 419.9 367.7 419.5C 367.40002 419.1 367.30002 418.8 367.30002 418.5C 367.30002 418.2 367.40002 417.9 367.7 417.5C 368 417.1 368.30002 416.8 368.7 416.5C 369.1 416.2 369.40002 416.1 369.7 416.1C 370 416.1 370.30002 416.2 370.7 416.5C 371.1 416.8 371.40002 417.1 371.7 417.5C 372 417.9 372.1 418.2 372.1 418.5C 372.1 418.8 372 419.1 371.7 419.5C 371.40002 419.9 371.1 420.2 370.7 420.5C 370.3 420.7 370 420.9 369.7 420.9zM379.1 413.6L379.1 408.7C 379.30002 408.7 379.5 408.90002 379.6 409.40002C 379.7 409.80002 379.80002 410.40002 379.80002 411.2C 379.80002 412 379.7 412.6 379.6 413C 379.4 413.4 379.3 413.6 379.1 413.6z" stroke="none" fill="#FFC20E" fill-rule="nonzero" />
            <path d="M379.1 413.6C 378.9 413.6 378.7 413.4 378.6 413C 378.5 412.6 378.4 412 378.4 411.2C 378.4 410.5 378.5 409.90002 378.6 409.40002C 378.7 409.00003 378.9 408.7 379.1 408.7L379.1 408.7L379.1 413.6zM379.1 413.6L379.1 408.7L385.4 408.7L383.1 410.90002L383.1 399.00003L387.5 399.00003L387.5 413.50003L379.1 413.50003zM379.6 395.5C 379.30002 395.5 379 395.4 378.6 395.1C 378.2 394.80002 377.9 394.5 377.6 394.1C 377.30002 393.7 377.2 393.4 377.2 393.1C 377.2 392.80002 377.30002 392.5 377.6 392.1C 377.9 391.7 378.2 391.4 378.6 391.1C 379 390.80002 379.30002 390.7 379.6 390.7C 379.9 390.7 380.2 390.80002 380.6 391.1C 381 391.4 381.30002 391.7 381.6 392.1C 381.9 392.5 382 392.80002 382 393.1C 382 393.4 381.9 393.7 381.6 394.1C 381.30002 394.5 381 394.80002 380.6 395.1C 380.3 395.3 379.9 395.5 379.6 395.5zM385.2 395.5C 384.90002 395.5 384.6 395.4 384.2 395.1C 383.80002 394.80002 383.5 394.5 383.2 394.1C 382.90002 393.7 382.80002 393.4 382.80002 393.1C 382.80002 392.80002 382.90002 392.5 383.2 392.1C 383.5 391.7 383.80002 391.4 384.2 391.1C 384.6 390.80002 384.90002 390.7 385.2 390.7C 385.5 390.7 385.80002 390.80002 386.2 391.1C 386.6 391.4 386.90002 391.7 387.2 392.1C 387.5 392.5 387.6 392.80002 387.6 393.1C 387.6 393.4 387.5 393.7 387.2 394.1C 386.90002 394.5 386.6 394.80002 386.2 395.1C 385.8 395.3 385.5 395.5 385.2 395.5z" stroke="none" fill="#FFC20E" fill-rule="nonzero" />
		</g>
        <path d="M322 200.5L376.3 231.8L358.9 241.8L340.4 231.1L322 241.8L318.3 244L308.4 249.7L304.69998 251.9L287.3 241.9L291 239.7L300.9 234L304.6 231.8L323 221.1L304.5 210.40001L322 200.5zM358.9 241.8L376.3 251.8L376.3 272.8L376.3 314.5L358.9 304.5L358.9 283.2L340.4 272.5L336.69998 270.3L326.8 264.59998L323.09998 262.39996L323.09998 242.29996L326.8 244.49995L336.69998 250.19995L340.4 252.39995L358.9 263.09995L358.9 241.8zM358.9 304.5L358.9 324.6L304.6 355.9L304.6 335.8L323.1 325.09998L323.1 303.8L323.1 299.5L323.1 288.1L323.1 283.80002L340.5 273.80002L340.5 278.1L340.5 289.5L340.5 293.8L340.5 315.09998L358.9 304.5zM304.6 335.8L287.2 345.8L233 314.5L250.4 304.5L268.8 315.2L287.3 304.5L291 302.3L300.9 296.59998L304.6 294.39996L322 304.39996L318.3 306.59998L308.4 312.3L304.69998 314.5L286.3 325.2L304.6 335.8zM250.4 304.5L233 294.5L233 273.5L233 231.8L250.4 241.8L250.4 263.1L268.8 273.80002L272.5 276.00003L282.4 281.70004L286.1 283.90005L286.1 304.00006L282.4 301.80005L272.5 296.10004L268.8 293.90002L250.29999 283.2L250.4 304.5zM250.4 241.8L250.4 221.7L304.69998 190.4L304.69998 210.5L286.3 221.2L286.3 242.5L286.3 246.8L286.3 258.2L286.3 262.5L268.9 272.5L268.9 268.2L268.9 256.80002L268.9 252.50002L268.9 231.20001L250.4 241.8z" stroke="none" fill="#FFC20E" fill-rule="nonzero" />
	</g>
</g>
</svg>