<?xml version="1.0" encoding="UTF-8"?>
<svg xmlns="http://www.w3.org/2000/svg" xmlns:xlink="http://www.w3.org/1999/xlink" width="180px" height="180px" viewBox="0 0 180 180" version="1.1">
<g id="surface1">
<path style=" stroke:none;fill-rule:nonzero;fill:rgb(100%,76.078431%,5.490196%);fill-opacity:1;" d="M 65.175781 107.792969 L 68.589844 107.792969 L 68.589844 108.765625 L 67.351562 108.765625 L 67.351562 112.851562 L 66.351562 112.851562 L 66.351562 108.765625 L 65.175781 108.765625 Z M 65.175781 107.792969 "/>
<path style=" stroke:none;fill-rule:nonzero;fill:rgb(100%,76.078431%,5.490196%);fill-opacity:1;" d="M 69.53125 107.792969 L 72.96875 107.792969 L 72.96875 108.765625 L 70.53125 108.765625 L 70.53125 109.851562 L 72.707031 109.851562 L 72.707031 110.824219 L 70.53125 110.824219 L 70.53125 111.910156 L 73.089844 111.910156 L 73.089844 112.882812 L 69.558594 112.882812 L 69.558594 107.792969 Z M 69.53125 107.792969 "/>
<path style=" stroke:none;fill-rule:nonzero;fill:rgb(100%,76.078431%,5.490196%);fill-opacity:1;" d="M 75.53125 111.792969 C 75.53125 112.234375 75.441406 112.617188 75.265625 112.910156 C 75.089844 113.207031 74.851562 113.46875 74.53125 113.617188 C 74.234375 113.792969 73.851562 113.882812 73.441406 113.882812 L 73.441406 112.941406 C 73.765625 112.910156 74 112.824219 74.207031 112.648438 C 74.410156 112.46875 74.5 112.175781 74.5 111.765625 L 74.5 107.792969 L 75.5 107.792969 L 75.5 111.792969 Z M 75.53125 111.792969 "/>
<path style=" stroke:none;fill-rule:nonzero;fill:rgb(100%,76.078431%,5.490196%);fill-opacity:1;" d="M 76.265625 112.851562 L 78.53125 107.617188 L 78.589844 107.617188 L 80.851562 112.851562 L 79.707031 112.851562 L 78.265625 109.148438 L 79 108.648438 L 77.265625 112.824219 L 76.265625 112.824219 Z M 77.824219 111.03125 L 79.351562 111.03125 L 79.707031 111.851562 L 77.53125 111.851562 Z M 77.824219 111.03125 "/>
<path style=" stroke:none;fill-rule:nonzero;fill:rgb(100%,76.078431%,5.490196%);fill-opacity:1;" d="M 83.148438 107.792969 C 83.46875 107.792969 83.734375 107.824219 84 107.910156 C 84.234375 108 84.441406 108.117188 84.617188 108.265625 C 84.792969 108.410156 84.910156 108.589844 85 108.792969 C 85.089844 109 85.117188 109.234375 85.117188 109.5 C 85.117188 109.707031 85.089844 109.910156 85.03125 110.117188 C 84.96875 110.324219 84.851562 110.5 84.734375 110.675781 C 84.589844 110.851562 84.410156 110.96875 84.175781 111.089844 C 83.941406 111.175781 83.675781 111.234375 83.324219 111.234375 L 82.617188 111.234375 L 82.617188 112.851562 L 81.617188 112.851562 L 81.617188 107.792969 Z M 83.324219 110.292969 C 83.46875 110.292969 83.589844 110.265625 83.707031 110.207031 C 83.792969 110.148438 83.882812 110.089844 83.941406 110 C 84 109.910156 84.03125 109.851562 84.058594 109.765625 C 84.089844 109.675781 84.089844 109.589844 84.089844 109.53125 C 84.089844 109.46875 84.089844 109.410156 84.058594 109.324219 C 84.03125 109.234375 84 109.148438 83.96875 109.058594 C 83.910156 108.96875 83.851562 108.910156 83.734375 108.851562 C 83.617188 108.792969 83.5 108.765625 83.324219 108.765625 L 82.617188 108.765625 L 82.617188 110.292969 Z M 84.265625 110.910156 L 85.5 112.851562 L 84.351562 112.851562 L 83.089844 110.941406 Z M 84.265625 110.910156 "/>
<path style=" stroke:none;fill-rule:nonzero;fill:rgb(100%,76.078431%,5.490196%);fill-opacity:1;" d="M 85.765625 112.851562 L 88.03125 107.617188 L 88.089844 107.617188 L 90.351562 112.851562 L 89.207031 112.851562 L 87.765625 109.148438 L 88.5 108.648438 L 86.765625 112.824219 L 85.765625 112.824219 Z M 87.324219 111.03125 L 88.851562 111.03125 L 89.207031 111.851562 L 87.03125 111.851562 Z M 87.324219 111.03125 "/>
<path style=" stroke:none;fill-rule:nonzero;fill:rgb(100%,76.078431%,5.490196%);fill-opacity:1;" d="M 90.765625 107.792969 L 94.175781 107.792969 L 94.175781 108.765625 L 92.941406 108.765625 L 92.941406 112.851562 L 91.941406 112.851562 L 91.941406 108.765625 L 90.765625 108.765625 Z M 90.765625 107.792969 "/>
<path style=" stroke:none;fill-rule:nonzero;fill:rgb(100%,76.078431%,5.490196%);fill-opacity:1;" d="M 95.117188 107.792969 L 96.117188 107.792969 L 96.117188 112.851562 L 95.117188 112.851562 Z M 95.117188 107.792969 "/>
<path style=" stroke:none;fill-rule:nonzero;fill:rgb(100%,76.078431%,5.490196%);fill-opacity:1;" d="M 100.117188 109.03125 C 99.910156 108.910156 99.734375 108.824219 99.53125 108.765625 C 99.324219 108.707031 99.148438 108.675781 98.96875 108.675781 C 98.765625 108.675781 98.589844 108.707031 98.46875 108.792969 C 98.351562 108.882812 98.292969 109 98.292969 109.175781 C 98.292969 109.292969 98.351562 109.410156 98.441406 109.5 C 98.53125 109.589844 98.648438 109.675781 98.792969 109.765625 C 98.941406 109.824219 99.089844 109.910156 99.265625 109.96875 C 99.410156 110.03125 99.558594 110.089844 99.707031 110.175781 C 99.851562 110.265625 99.96875 110.351562 100.089844 110.46875 C 100.207031 110.589844 100.292969 110.734375 100.351562 110.882812 C 100.410156 111.058594 100.441406 111.265625 100.441406 111.5 C 100.441406 111.765625 100.382812 112 100.234375 112.207031 C 100.089844 112.410156 99.910156 112.589844 99.648438 112.734375 C 99.382812 112.882812 99.089844 112.941406 98.707031 112.941406 C 98.5 112.941406 98.324219 112.910156 98.117188 112.882812 C 97.910156 112.851562 97.734375 112.792969 97.53125 112.707031 C 97.324219 112.617188 97.148438 112.53125 96.96875 112.410156 L 97.410156 111.648438 C 97.53125 111.734375 97.648438 111.824219 97.792969 111.882812 C 97.941406 111.941406 98.089844 112 98.207031 112.03125 C 98.351562 112.058594 98.46875 112.089844 98.589844 112.089844 C 98.707031 112.089844 98.824219 112.058594 98.941406 112.03125 C 99.058594 112 99.175781 111.941406 99.234375 111.851562 C 99.324219 111.765625 99.351562 111.648438 99.351562 111.5 C 99.351562 111.410156 99.324219 111.292969 99.265625 111.234375 C 99.207031 111.148438 99.117188 111.089844 99 111 C 98.882812 110.910156 98.765625 110.882812 98.648438 110.824219 C 98.5 110.765625 98.324219 110.707031 98.175781 110.617188 C 98 110.53125 97.851562 110.441406 97.707031 110.324219 C 97.558594 110.207031 97.441406 110.058594 97.351562 109.910156 C 97.265625 109.734375 97.207031 109.53125 97.207031 109.292969 C 97.207031 109 97.265625 108.734375 97.410156 108.53125 C 97.53125 108.324219 97.734375 108.148438 97.96875 108.03125 C 98.207031 107.910156 98.46875 107.824219 98.792969 107.824219 C 99.207031 107.824219 99.53125 107.882812 99.792969 107.96875 C 100.058594 108.058594 100.265625 108.175781 100.46875 108.324219 Z M 100.117188 109.03125 "/>
<path style=" stroke:none;fill-rule:nonzero;fill:rgb(100%,76.078431%,5.490196%);fill-opacity:1;" d="M 101.089844 107.792969 L 104.5 107.792969 L 104.5 108.765625 L 103.265625 108.765625 L 103.265625 112.851562 L 102.265625 112.851562 L 102.265625 108.765625 L 101.089844 108.765625 Z M 101.089844 107.792969 "/>
<path style=" stroke:none;fill-rule:nonzero;fill:rgb(100%,76.078431%,5.490196%);fill-opacity:1;" d="M 104.882812 112.851562 L 107.148438 107.617188 L 107.207031 107.617188 L 109.46875 112.851562 L 108.324219 112.851562 L 106.882812 109.148438 L 107.617188 108.648438 L 105.882812 112.824219 L 104.882812 112.824219 Z M 106.441406 111.03125 L 107.96875 111.03125 L 108.324219 111.851562 L 106.148438 111.851562 Z M 106.441406 111.03125 "/>
<path style=" stroke:none;fill-rule:nonzero;fill:rgb(100%,76.078431%,5.490196%);fill-opacity:1;" d="M 114.734375 113.058594 L 110.910156 109.589844 L 111.207031 109.765625 L 111.234375 112.851562 L 110.234375 112.851562 L 110.234375 107.617188 L 110.265625 107.617188 L 114 111.058594 L 113.792969 110.96875 L 113.765625 107.824219 L 114.765625 107.824219 Z M 114.734375 113.058594 "/>
<path style=" stroke:none;fill-rule:nonzero;fill:rgb(100%,76.078431%,5.490196%);fill-opacity:1;" d="M 67.53125 123.824219 C 67.058594 123.824219 66.648438 123.792969 66.324219 123.734375 C 66 123.675781 65.765625 123.558594 65.589844 123.382812 C 65.410156 123.207031 65.292969 123 65.207031 122.707031 C 65.148438 122.410156 65.089844 122.058594 65.089844 121.617188 C 65.089844 121.351562 65.089844 121.117188 65.117188 120.851562 C 65.148438 120.589844 65.175781 120.351562 65.234375 120.117188 C 65.292969 119.882812 65.324219 119.648438 65.410156 119.410156 L 66.617188 119.617188 C 66.53125 119.910156 66.46875 120.234375 66.441406 120.53125 C 66.410156 120.824219 66.382812 121.117188 66.382812 121.410156 C 66.382812 121.617188 66.382812 121.824219 66.410156 121.96875 C 66.410156 122.117188 66.441406 122.292969 66.46875 122.410156 L 67.765625 122.410156 C 68.089844 122.410156 68.324219 122.382812 68.46875 122.324219 C 68.617188 122.265625 68.707031 122.117188 68.707031 121.941406 L 68.707031 117.410156 L 70 117.410156 L 70 121.707031 C 70 122.117188 69.96875 122.46875 69.910156 122.765625 C 69.851562 123.058594 69.734375 123.265625 69.558594 123.441406 C 69.382812 123.589844 69.117188 123.707031 68.792969 123.792969 C 68.5 123.792969 68.058594 123.824219 67.53125 123.824219 Z M 67.589844 116.324219 C 67.5 116.324219 67.410156 116.292969 67.292969 116.207031 C 67.175781 116.117188 67.089844 116.03125 67 115.910156 C 66.910156 115.792969 66.882812 115.707031 66.882812 115.617188 C 66.882812 115.53125 66.910156 115.441406 67 115.324219 C 67.089844 115.207031 67.175781 115.117188 67.292969 115.03125 C 67.410156 114.941406 67.5 114.910156 67.589844 114.910156 C 67.675781 114.910156 67.765625 114.941406 67.882812 115.03125 C 68 115.117188 68.089844 115.207031 68.175781 115.324219 C 68.265625 115.441406 68.292969 115.53125 68.292969 115.617188 C 68.292969 115.707031 68.265625 115.792969 68.175781 115.910156 C 68.089844 116.03125 68 116.117188 67.882812 116.207031 C 67.765625 116.265625 67.675781 116.324219 67.589844 116.324219 Z M 67.589844 116.324219 "/>
<path style=" stroke:none;fill-rule:nonzero;fill:rgb(100%,76.078431%,5.490196%);fill-opacity:1;" d="M 71.441406 121.648438 L 71.441406 115.910156 L 72.734375 115.910156 L 72.734375 120.207031 L 73.441406 120.207031 L 73.441406 121.648438 Z M 73.410156 121.648438 L 73.410156 120.207031 C 73.46875 120.207031 73.53125 120.265625 73.558594 120.410156 C 73.589844 120.53125 73.617188 120.707031 73.617188 120.941406 C 73.617188 121.175781 73.589844 121.351562 73.558594 121.46875 C 73.53125 121.589844 73.46875 121.648438 73.410156 121.648438 Z M 73.410156 121.648438 "/>
<path style=" stroke:none;fill-rule:nonzero;fill:rgb(100%,76.078431%,5.490196%);fill-opacity:1;" d="M 73.410156 121.648438 C 73.351562 121.648438 73.292969 121.589844 73.265625 121.46875 C 73.234375 121.351562 73.207031 121.175781 73.207031 120.941406 C 73.207031 120.734375 73.234375 120.558594 73.265625 120.410156 C 73.292969 120.265625 73.351562 120.207031 73.410156 120.207031 Z M 73.410156 121.648438 L 73.410156 120.207031 L 75.617188 120.207031 L 75.617188 121.648438 Z M 75.617188 121.648438 L 75.617188 120.207031 C 75.675781 120.207031 75.734375 120.265625 75.765625 120.410156 C 75.792969 120.53125 75.824219 120.707031 75.824219 120.941406 C 75.824219 121.175781 75.792969 121.351562 75.765625 121.46875 C 75.734375 121.589844 75.707031 121.648438 75.617188 121.648438 Z M 75.617188 121.648438 "/>
<path style=" stroke:none;fill-rule:nonzero;fill:rgb(100%,76.078431%,5.490196%);fill-opacity:1;" d="M 75.617188 121.648438 C 75.558594 121.648438 75.5 121.589844 75.46875 121.46875 C 75.441406 121.351562 75.410156 121.175781 75.410156 120.941406 C 75.410156 120.734375 75.441406 120.558594 75.46875 120.410156 C 75.5 120.292969 75.558594 120.207031 75.617188 120.207031 Z M 75.617188 121.648438 L 75.617188 120.207031 L 77.46875 120.207031 L 76.792969 120.851562 L 76.792969 117.351562 L 78.089844 117.351562 L 78.089844 121.617188 L 75.617188 121.617188 Z M 76.648438 116.324219 C 76.558594 116.324219 76.46875 116.292969 76.351562 116.207031 C 76.234375 116.117188 76.148438 116.03125 76.058594 115.910156 C 75.96875 115.792969 75.941406 115.707031 75.941406 115.617188 C 75.941406 115.53125 75.96875 115.441406 76.058594 115.324219 C 76.148438 115.207031 76.234375 115.117188 76.351562 115.03125 C 76.46875 114.941406 76.558594 114.910156 76.648438 114.910156 C 76.734375 114.910156 76.824219 114.941406 76.941406 115.03125 C 77.058594 115.117188 77.148438 115.207031 77.234375 115.324219 C 77.324219 115.441406 77.351562 115.53125 77.351562 115.617188 C 77.351562 115.707031 77.324219 115.792969 77.234375 115.910156 C 77.148438 116.03125 77.058594 116.117188 76.941406 116.207031 C 76.851562 116.265625 76.734375 116.324219 76.648438 116.324219 Z M 78.292969 116.324219 C 78.207031 116.324219 78.117188 116.292969 78 116.207031 C 77.882812 116.117188 77.792969 116.03125 77.707031 115.910156 C 77.617188 115.792969 77.589844 115.707031 77.589844 115.617188 C 77.589844 115.53125 77.617188 115.441406 77.707031 115.324219 C 77.792969 115.207031 77.882812 115.117188 78 115.03125 C 78.117188 114.941406 78.207031 114.910156 78.292969 114.910156 C 78.382812 114.910156 78.46875 114.941406 78.589844 115.03125 C 78.707031 115.117188 78.792969 115.207031 78.882812 115.324219 C 78.96875 115.441406 79 115.53125 79 115.617188 C 79 115.707031 78.96875 115.792969 78.882812 115.910156 C 78.792969 116.03125 78.707031 116.117188 78.589844 116.207031 C 78.46875 116.265625 78.382812 116.324219 78.292969 116.324219 Z M 78.117188 121.648438 L 78.117188 120.207031 L 78.824219 120.207031 L 78.824219 121.648438 Z M 78.824219 121.648438 L 78.824219 120.207031 C 78.882812 120.207031 78.941406 120.265625 78.96875 120.410156 C 79 120.53125 79.03125 120.707031 79.03125 120.941406 C 79.03125 121.175781 79 121.351562 78.96875 121.46875 C 78.910156 121.589844 78.882812 121.648438 78.824219 121.648438 Z M 78.824219 121.648438 "/>
<path style=" stroke:none;fill-rule:nonzero;fill:rgb(100%,76.078431%,5.490196%);fill-opacity:1;" d="M 78.824219 121.648438 C 78.765625 121.648438 78.707031 121.589844 78.675781 121.46875 C 78.648438 121.351562 78.617188 121.175781 78.617188 120.941406 C 78.617188 120.734375 78.648438 120.558594 78.675781 120.410156 C 78.707031 120.292969 78.765625 120.207031 78.824219 120.207031 Z M 78.824219 121.648438 L 78.824219 120.207031 L 80.03125 120.207031 L 80.03125 118.175781 L 81.324219 118.175781 L 81.324219 121.617188 L 78.824219 121.617188 Z M 81.292969 121.648438 L 81.292969 120.207031 L 82.441406 120.207031 C 82.675781 120.207031 82.824219 120.175781 82.941406 120.117188 C 83.058594 120.058594 83.117188 119.910156 83.117188 119.734375 L 83.117188 118.207031 L 84.410156 118.207031 L 84.410156 119.46875 C 84.410156 119.910156 84.382812 120.265625 84.324219 120.558594 C 84.265625 120.851562 84.148438 121.058594 83.96875 121.234375 C 83.792969 121.382812 83.558594 121.5 83.265625 121.589844 C 82.941406 121.648438 82.558594 121.675781 82.058594 121.675781 L 81.292969 121.675781 Z M 85.265625 121.648438 C 84.824219 121.648438 84.46875 121.617188 84.175781 121.558594 C 83.882812 121.5 83.675781 121.382812 83.53125 121.207031 C 83.382812 121.058594 83.265625 120.824219 83.207031 120.53125 C 83.148438 120.234375 83.117188 119.882812 83.117188 119.441406 L 83.117188 118.175781 L 84.410156 118.175781 L 84.410156 119.707031 C 84.410156 119.910156 84.46875 120.03125 84.589844 120.089844 C 84.707031 120.148438 84.882812 120.175781 85.089844 120.175781 L 86.148438 120.175781 C 86.175781 120.058594 86.207031 119.910156 86.207031 119.765625 C 86.207031 119.617188 86.234375 119.441406 86.234375 119.265625 C 86.234375 118.96875 86.207031 118.707031 86.175781 118.410156 C 86.117188 118.117188 86.058594 117.824219 86 117.53125 L 87.265625 117.351562 C 87.324219 117.53125 87.382812 117.734375 87.410156 117.941406 C 87.441406 118.148438 87.46875 118.351562 87.5 118.558594 C 87.53125 118.765625 87.53125 118.96875 87.53125 119.175781 C 87.53125 119.824219 87.441406 120.292969 87.292969 120.648438 C 87.148438 121 86.882812 121.234375 86.558594 121.382812 C 86.207031 121.589844 85.765625 121.648438 85.265625 121.648438 Z M 85.207031 121.648438 L 86.734375 120.207031 L 88.207031 120.207031 L 88.207031 121.648438 Z M 88.207031 121.648438 L 88.207031 120.207031 C 88.265625 120.207031 88.324219 120.265625 88.351562 120.410156 C 88.382812 120.53125 88.410156 120.707031 88.410156 120.941406 C 88.410156 121.175781 88.382812 121.351562 88.351562 121.46875 C 88.324219 121.589844 88.265625 121.648438 88.207031 121.648438 Z M 88.207031 121.648438 "/>
<path style=" stroke:none;fill-rule:nonzero;fill:rgb(100%,76.078431%,5.490196%);fill-opacity:1;" d="M 88.207031 121.648438 C 88.148438 121.648438 88.089844 121.589844 88.058594 121.46875 C 88.03125 121.351562 88 121.175781 88 120.941406 C 88 120.734375 88.03125 120.558594 88.058594 120.410156 C 88.089844 120.292969 88.148438 120.207031 88.207031 120.207031 Z M 88.207031 121.648438 L 88.207031 120.207031 L 90.058594 120.207031 L 89.382812 120.851562 L 89.382812 117.351562 L 90.675781 117.351562 L 90.675781 121.617188 L 88.207031 121.617188 Z M 88.5 116.324219 C 88.410156 116.324219 88.324219 116.292969 88.207031 116.207031 C 88.089844 116.117188 88 116.03125 87.910156 115.910156 C 87.824219 115.792969 87.792969 115.707031 87.792969 115.617188 C 87.792969 115.53125 87.824219 115.441406 87.910156 115.324219 C 88 115.207031 88.089844 115.117188 88.207031 115.03125 C 88.324219 114.941406 88.410156 114.910156 88.5 114.910156 C 88.589844 114.910156 88.675781 114.941406 88.792969 115.03125 C 88.910156 115.117188 89 115.207031 89.089844 115.324219 C 89.175781 115.441406 89.207031 115.53125 89.207031 115.617188 C 89.207031 115.707031 89.175781 115.792969 89.089844 115.910156 C 89 116.03125 88.910156 116.117188 88.792969 116.207031 C 88.675781 116.265625 88.558594 116.324219 88.5 116.324219 Z M 90.117188 116.324219 C 90.03125 116.324219 89.941406 116.292969 89.824219 116.207031 C 89.707031 116.117188 89.617188 116.03125 89.53125 115.910156 C 89.441406 115.792969 89.410156 115.707031 89.410156 115.617188 C 89.410156 115.53125 89.441406 115.441406 89.53125 115.324219 C 89.617188 115.207031 89.707031 115.117188 89.824219 115.03125 C 89.941406 114.941406 90.03125 114.910156 90.117188 114.910156 C 90.207031 114.910156 90.292969 114.941406 90.410156 115.03125 C 90.53125 115.117188 90.617188 115.207031 90.707031 115.324219 C 90.792969 115.441406 90.824219 115.53125 90.824219 115.617188 C 90.824219 115.707031 90.792969 115.792969 90.707031 115.910156 C 90.617188 116.03125 90.53125 116.117188 90.410156 116.207031 C 90.292969 116.265625 90.207031 116.324219 90.117188 116.324219 Z M 90.117188 116.324219 "/>
<path style=" stroke:none;fill-rule:nonzero;fill:rgb(100%,76.078431%,5.490196%);fill-opacity:1;" d="M 92.03125 124.175781 L 91.558594 123.03125 C 91.792969 122.910156 91.96875 122.792969 92.117188 122.675781 C 92.234375 122.558594 92.324219 122.410156 92.382812 122.207031 C 92.441406 122 92.441406 121.765625 92.441406 121.441406 L 92.441406 117.351562 L 93.707031 117.351562 L 93.707031 121.441406 C 93.707031 121.910156 93.648438 122.351562 93.53125 122.675781 C 93.410156 123.03125 93.234375 123.324219 93 123.558594 C 92.765625 123.792969 92.441406 124 92.03125 124.175781 Z M 92.03125 124.175781 "/>
<path style=" stroke:none;fill-rule:nonzero;fill:rgb(100%,76.078431%,5.490196%);fill-opacity:1;" d="M 95.117188 121.648438 L 95.117188 115.910156 L 96.410156 115.910156 L 96.410156 120.207031 L 97.117188 120.207031 L 97.117188 121.648438 Z M 97.089844 121.648438 L 97.089844 120.207031 C 97.148438 120.207031 97.207031 120.265625 97.234375 120.410156 C 97.265625 120.53125 97.292969 120.707031 97.292969 120.941406 C 97.292969 121.175781 97.265625 121.351562 97.234375 121.46875 C 97.207031 121.589844 97.148438 121.648438 97.089844 121.648438 Z M 97.089844 121.648438 "/>
<path style=" stroke:none;fill-rule:nonzero;fill:rgb(100%,76.078431%,5.490196%);fill-opacity:1;" d="M 97.089844 121.648438 C 97.03125 121.648438 96.96875 121.589844 96.941406 121.46875 C 96.910156 121.351562 96.882812 121.175781 96.882812 120.941406 C 96.882812 120.734375 96.910156 120.558594 96.941406 120.410156 C 96.96875 120.292969 97.03125 120.207031 97.089844 120.207031 Z M 97.089844 121.648438 L 97.089844 120.207031 L 99.292969 120.207031 L 99.292969 121.648438 Z M 99.324219 121.648438 L 99.324219 120.207031 C 99.382812 120.207031 99.441406 120.265625 99.46875 120.410156 C 99.5 120.53125 99.53125 120.707031 99.53125 120.941406 C 99.53125 121.175781 99.5 121.351562 99.46875 121.46875 C 99.410156 121.589844 99.382812 121.648438 99.324219 121.648438 Z M 99.324219 121.648438 "/>
<path style=" stroke:none;fill-rule:nonzero;fill:rgb(100%,76.078431%,5.490196%);fill-opacity:1;" d="M 99.324219 121.648438 C 99.265625 121.648438 99.207031 121.589844 99.175781 121.46875 C 99.148438 121.351562 99.117188 121.175781 99.117188 120.941406 C 99.117188 120.734375 99.148438 120.558594 99.175781 120.410156 C 99.207031 120.292969 99.265625 120.207031 99.324219 120.207031 Z M 99.324219 121.648438 L 99.324219 120.207031 L 101.53125 120.207031 L 101.53125 121.648438 Z M 101.53125 121.648438 L 101.53125 120.207031 C 101.589844 120.207031 101.648438 120.265625 101.675781 120.410156 C 101.707031 120.53125 101.734375 120.707031 101.734375 120.941406 C 101.734375 121.175781 101.707031 121.351562 101.675781 121.46875 C 101.648438 121.589844 101.589844 121.648438 101.53125 121.648438 Z M 101.53125 121.648438 "/>
<path style=" stroke:none;fill-rule:nonzero;fill:rgb(100%,76.078431%,5.490196%);fill-opacity:1;" d="M 101.53125 121.648438 C 101.46875 121.648438 101.410156 121.589844 101.382812 121.46875 C 101.351562 121.351562 101.324219 121.175781 101.324219 120.941406 C 101.324219 120.734375 101.351562 120.558594 101.382812 120.410156 C 101.410156 120.292969 101.46875 120.207031 101.53125 120.207031 Z M 101.53125 121.648438 L 101.53125 120.207031 L 103.734375 120.207031 L 103.734375 121.648438 Z M 103.734375 121.648438 L 103.734375 120.207031 C 103.792969 120.207031 103.851562 120.265625 103.882812 120.410156 C 103.910156 120.53125 103.941406 120.707031 103.941406 120.941406 C 103.941406 121.175781 103.910156 121.351562 103.882812 121.46875 C 103.851562 121.589844 103.824219 121.648438 103.734375 121.648438 Z M 103.734375 121.648438 "/>
<path style=" stroke:none;fill-rule:nonzero;fill:rgb(100%,76.078431%,5.490196%);fill-opacity:1;" d="M 103.734375 121.648438 C 103.675781 121.648438 103.617188 121.589844 103.589844 121.46875 C 103.558594 121.351562 103.53125 121.175781 103.53125 120.941406 C 103.53125 120.734375 103.558594 120.558594 103.589844 120.410156 C 103.617188 120.292969 103.675781 120.207031 103.734375 120.207031 Z M 103.734375 121.648438 L 103.734375 120.207031 L 105.941406 120.207031 L 105.941406 121.648438 Z M 105.96875 121.648438 L 105.96875 120.207031 C 106.03125 120.207031 106.089844 120.265625 106.117188 120.410156 C 106.148438 120.53125 106.175781 120.707031 106.175781 120.941406 C 106.175781 121.175781 106.148438 121.351562 106.117188 121.46875 C 106.058594 121.589844 106.03125 121.648438 105.96875 121.648438 Z M 105.96875 121.648438 "/>
<path style=" stroke:none;fill-rule:nonzero;fill:rgb(100%,76.078431%,5.490196%);fill-opacity:1;" d="M 105.96875 121.648438 C 105.910156 121.648438 105.851562 121.589844 105.824219 121.46875 C 105.792969 121.351562 105.765625 121.175781 105.765625 120.941406 C 105.765625 120.734375 105.792969 120.558594 105.824219 120.410156 C 105.851562 120.292969 105.910156 120.207031 105.96875 120.207031 Z M 105.96875 121.648438 L 105.96875 120.207031 L 107.675781 120.207031 C 107.910156 120.207031 108.148438 120.175781 108.324219 120.089844 C 108.5 120.03125 108.648438 119.910156 108.792969 119.792969 C 108.910156 119.675781 109.03125 119.53125 109.117188 119.382812 C 109.207031 119.234375 109.265625 119.058594 109.324219 118.882812 L 110.5 119.292969 C 110.382812 119.734375 110.207031 120.089844 110.03125 120.382812 C 109.824219 120.675781 109.617188 120.941406 109.351562 121.117188 C 109.089844 121.292969 108.824219 121.441406 108.5 121.53125 C 108.207031 121.617188 107.882812 121.648438 107.558594 121.648438 Z M 110.734375 121.648438 C 110.53125 121.648438 110.382812 121.617188 110.265625 121.53125 C 110.148438 121.441406 110.058594 121.324219 110 121.148438 L 109.441406 119.734375 C 109.351562 119.5 109.234375 119.292969 109.089844 119.148438 C 108.941406 119 108.765625 118.882812 108.558594 118.824219 C 108.351562 118.765625 108.058594 118.707031 107.734375 118.707031 C 107.589844 118.707031 107.410156 118.707031 107.234375 118.707031 C 107.058594 118.707031 106.851562 118.734375 106.648438 118.765625 L 106.46875 117.351562 C 106.707031 117.324219 106.941406 117.292969 107.148438 117.292969 C 107.351562 117.265625 107.558594 117.265625 107.734375 117.265625 C 108.265625 117.265625 108.707031 117.324219 109.089844 117.46875 C 109.46875 117.617188 109.765625 117.824219 110 118.089844 C 110.234375 118.382812 110.441406 118.734375 110.617188 119.207031 L 111 120.234375 L 111.53125 120.234375 L 111.53125 121.675781 L 110.734375 121.675781 Z M 108.734375 123.792969 C 108.648438 123.792969 108.558594 123.765625 108.441406 123.675781 C 108.324219 123.589844 108.234375 123.5 108.148438 123.382812 C 108.058594 123.265625 108.03125 123.175781 108.03125 123.089844 C 108.03125 123 108.058594 122.910156 108.148438 122.792969 C 108.234375 122.675781 108.324219 122.589844 108.441406 122.5 C 108.558594 122.410156 108.648438 122.382812 108.734375 122.382812 C 108.824219 122.382812 108.910156 122.410156 109.03125 122.5 C 109.148438 122.589844 109.234375 122.675781 109.324219 122.792969 C 109.410156 122.910156 109.441406 123 109.441406 123.089844 C 109.441406 123.175781 109.410156 123.265625 109.324219 123.382812 C 109.234375 123.5 109.148438 123.589844 109.03125 123.675781 C 108.910156 123.734375 108.824219 123.792969 108.734375 123.792969 Z M 111.5 121.648438 L 111.5 120.207031 C 111.558594 120.207031 111.617188 120.265625 111.648438 120.410156 C 111.675781 120.53125 111.707031 120.707031 111.707031 120.941406 C 111.707031 121.175781 111.675781 121.351562 111.648438 121.46875 C 111.589844 121.589844 111.558594 121.648438 111.5 121.648438 Z M 111.5 121.648438 "/>
<path style=" stroke:none;fill-rule:nonzero;fill:rgb(100%,76.078431%,5.490196%);fill-opacity:1;" d="M 111.5 121.648438 C 111.441406 121.648438 111.382812 121.589844 111.351562 121.46875 C 111.324219 121.351562 111.292969 121.175781 111.292969 120.941406 C 111.292969 120.734375 111.324219 120.558594 111.351562 120.410156 C 111.382812 120.292969 111.441406 120.207031 111.5 120.207031 Z M 111.5 121.648438 L 111.5 120.207031 L 113.351562 120.207031 L 112.675781 120.851562 L 112.675781 117.351562 L 113.96875 117.351562 L 113.96875 121.617188 L 111.5 121.617188 Z M 111.648438 116.324219 C 111.558594 116.324219 111.46875 116.292969 111.351562 116.207031 C 111.234375 116.117188 111.148438 116.03125 111.058594 115.910156 C 110.96875 115.792969 110.941406 115.707031 110.941406 115.617188 C 110.941406 115.53125 110.96875 115.441406 111.058594 115.324219 C 111.148438 115.207031 111.234375 115.117188 111.351562 115.03125 C 111.46875 114.941406 111.558594 114.910156 111.648438 114.910156 C 111.734375 114.910156 111.824219 114.941406 111.941406 115.03125 C 112.058594 115.117188 112.148438 115.207031 112.234375 115.324219 C 112.324219 115.441406 112.351562 115.53125 112.351562 115.617188 C 112.351562 115.707031 112.324219 115.792969 112.234375 115.910156 C 112.148438 116.03125 112.058594 116.117188 111.941406 116.207031 C 111.851562 116.265625 111.734375 116.324219 111.648438 116.324219 Z M 113.292969 116.324219 C 113.207031 116.324219 113.117188 116.292969 113 116.207031 C 112.882812 116.117188 112.792969 116.03125 112.707031 115.910156 C 112.617188 115.792969 112.589844 115.707031 112.589844 115.617188 C 112.589844 115.53125 112.617188 115.441406 112.707031 115.324219 C 112.792969 115.207031 112.882812 115.117188 113 115.03125 C 113.117188 114.941406 113.207031 114.910156 113.292969 114.910156 C 113.382812 114.910156 113.46875 114.941406 113.589844 115.03125 C 113.707031 115.117188 113.792969 115.207031 113.882812 115.324219 C 113.96875 115.441406 114 115.53125 114 115.617188 C 114 115.707031 113.96875 115.792969 113.882812 115.910156 C 113.792969 116.03125 113.707031 116.117188 113.589844 116.207031 C 113.46875 116.265625 113.382812 116.324219 113.292969 116.324219 Z M 113.292969 116.324219 "/>
<path style=" stroke:none;fill-rule:evenodd;fill:rgb(100%,76.078431%,5.490196%);fill-opacity:1;" d="M 94.707031 58.96875 L 110.675781 68.175781 L 105.558594 71.117188 L 100.117188 67.96875 L 94.707031 71.117188 L 93.617188 71.765625 L 90.707031 73.441406 L 89.617188 74.089844 L 84.5 71.148438 L 85.589844 70.5 L 88.5 68.824219 L 89.589844 68.175781 L 95 65.03125 L 89.558594 61.882812 Z M 105.558594 71.117188 L 110.675781 74.058594 L 110.675781 92.5 L 105.558594 89.558594 L 105.558594 83.292969 L 100.117188 80.148438 L 99.03125 79.5 L 96.117188 77.824219 L 95.03125 77.175781 L 95.03125 71.265625 L 96.117188 71.910156 L 99.03125 73.589844 L 100.117188 74.234375 L 105.558594 77.382812 Z M 105.558594 89.558594 L 105.558594 95.46875 L 89.589844 104.675781 L 89.589844 98.765625 L 95.03125 95.617188 L 95.03125 83.46875 L 100.148438 80.53125 L 100.148438 92.675781 Z M 89.589844 98.765625 L 84.46875 101.707031 L 68.53125 92.5 L 73.648438 89.558594 L 79.058594 92.707031 L 84.5 89.558594 L 85.589844 88.910156 L 88.5 87.234375 L 89.589844 86.589844 L 94.707031 89.53125 L 93.617188 90.175781 L 90.707031 91.851562 L 89.617188 92.5 L 84.207031 95.648438 Z M 73.648438 89.558594 L 68.53125 86.617188 L 68.53125 68.175781 L 73.648438 71.117188 L 73.648438 77.382812 L 79.058594 80.53125 L 80.148438 81.175781 L 83.058594 82.851562 L 84.148438 83.5 L 84.148438 89.410156 L 83.058594 88.765625 L 80.148438 87.089844 L 79.058594 86.441406 L 73.617188 83.292969 Z M 73.648438 71.117188 L 73.648438 65.207031 L 89.617188 56 L 89.617188 61.910156 L 84.207031 65.058594 L 84.207031 77.207031 L 79.089844 80.148438 L 79.089844 68 Z M 73.648438 71.117188 "/>
</g>
</svg>
