<?xml version="1.0" encoding="UTF-8"?>
<svg xmlns="http://www.w3.org/2000/svg" xmlns:xlink="http://www.w3.org/1999/xlink" width="73px" height="100px" viewBox="0 0 73 100" version="1.1">
<g id="surface1">
<path style=" stroke:none;fill-rule:nonzero;fill:rgb(100%,76.078431%,5.490196%);fill-opacity:1;" d="M 0.132812 75.953125 L 5.144531 75.953125 L 5.144531 77.375 L 3.328125 77.375 L 3.328125 83.371094 L 1.859375 83.371094 L 1.859375 77.375 L 0.132812 77.375 Z M 0.132812 75.953125 "/>
<path style=" stroke:none;fill-rule:nonzero;fill:rgb(100%,76.078431%,5.490196%);fill-opacity:1;" d="M 6.527344 75.953125 L 11.582031 75.953125 L 11.582031 77.375 L 8 77.375 L 8 78.972656 L 11.195312 78.972656 L 11.195312 80.394531 L 8 80.394531 L 8 81.988281 L 11.757812 81.988281 L 11.757812 83.410156 L 6.570312 83.410156 L 6.570312 75.953125 Z M 6.527344 75.953125 "/>
<path style=" stroke:none;fill-rule:nonzero;fill:rgb(100%,76.078431%,5.490196%);fill-opacity:1;" d="M 15.34375 81.816406 C 15.34375 82.460938 15.214844 83.023438 14.957031 83.457031 C 14.699219 83.882812 14.347656 84.273438 13.875 84.488281 C 13.445312 84.746094 12.882812 84.878906 12.277344 84.878906 L 12.277344 83.496094 C 12.75 83.457031 13.097656 83.324219 13.398438 83.066406 C 13.703125 82.804688 13.832031 82.375 13.832031 81.773438 L 13.832031 75.953125 L 15.300781 75.953125 L 15.300781 81.816406 Z M 15.34375 81.816406 "/>
<path style=" stroke:none;fill-rule:nonzero;fill:rgb(100%,76.078431%,5.490196%);fill-opacity:1;" d="M 16.425781 83.371094 L 19.753906 75.695312 L 19.839844 75.695312 L 23.167969 83.371094 L 21.484375 83.371094 L 19.363281 77.933594 L 20.445312 77.203125 L 17.894531 83.324219 L 16.425781 83.324219 Z M 18.71875 80.695312 L 20.960938 80.695312 L 21.484375 81.902344 L 18.28125 81.902344 Z M 18.71875 80.695312 "/>
<path style=" stroke:none;fill-rule:nonzero;fill:rgb(100%,76.078431%,5.490196%);fill-opacity:1;" d="M 26.539062 75.953125 C 27.015625 75.953125 27.402344 75.996094 27.792969 76.125 C 28.136719 76.253906 28.441406 76.425781 28.703125 76.644531 C 28.960938 76.859375 29.132812 77.117188 29.261719 77.417969 C 29.390625 77.722656 29.4375 78.066406 29.4375 78.453125 C 29.4375 78.757812 29.390625 79.058594 29.304688 79.359375 C 29.21875 79.660156 29.046875 79.921875 28.875 80.179688 C 28.65625 80.4375 28.398438 80.609375 28.050781 80.78125 C 27.707031 80.910156 27.316406 80.996094 26.796875 80.996094 L 25.761719 80.996094 L 25.761719 83.371094 L 24.292969 83.371094 L 24.292969 75.953125 Z M 26.796875 79.617188 C 27.015625 79.617188 27.1875 79.574219 27.363281 79.488281 C 27.488281 79.402344 27.621094 79.316406 27.707031 79.183594 C 27.792969 79.058594 27.835938 78.972656 27.878906 78.839844 C 27.921875 78.710938 27.921875 78.585938 27.921875 78.5 C 27.921875 78.410156 27.921875 78.324219 27.878906 78.195312 C 27.835938 78.066406 27.792969 77.933594 27.746094 77.808594 C 27.660156 77.675781 27.574219 77.589844 27.402344 77.503906 C 27.230469 77.417969 27.058594 77.375 26.796875 77.375 L 25.761719 77.375 L 25.761719 79.617188 Z M 28.183594 80.523438 L 29.996094 83.371094 L 28.3125 83.371094 L 26.453125 80.566406 Z M 28.183594 80.523438 "/>
<path style=" stroke:none;fill-rule:nonzero;fill:rgb(100%,76.078431%,5.490196%);fill-opacity:1;" d="M 30.386719 83.371094 L 33.714844 75.695312 L 33.800781 75.695312 L 37.128906 83.371094 L 35.441406 83.371094 L 33.324219 77.933594 L 34.40625 77.203125 L 31.855469 83.324219 L 30.386719 83.324219 Z M 32.675781 80.695312 L 34.925781 80.695312 L 35.441406 81.902344 L 32.246094 81.902344 Z M 32.675781 80.695312 "/>
<path style=" stroke:none;fill-rule:nonzero;fill:rgb(100%,76.078431%,5.490196%);fill-opacity:1;" d="M 37.734375 75.953125 L 42.746094 75.953125 L 42.746094 77.375 L 40.933594 77.375 L 40.933594 83.371094 L 39.460938 83.371094 L 39.460938 77.375 L 37.734375 77.375 Z M 37.734375 75.953125 "/>
<path style=" stroke:none;fill-rule:nonzero;fill:rgb(100%,76.078431%,5.490196%);fill-opacity:1;" d="M 44.132812 75.953125 L 45.601562 75.953125 L 45.601562 83.371094 L 44.132812 83.371094 Z M 44.132812 75.953125 "/>
<path style=" stroke:none;fill-rule:nonzero;fill:rgb(100%,76.078431%,5.490196%);fill-opacity:1;" d="M 51.480469 77.761719 C 51.175781 77.589844 50.917969 77.460938 50.613281 77.375 C 50.3125 77.289062 50.054688 77.246094 49.792969 77.246094 C 49.492188 77.246094 49.230469 77.289062 49.058594 77.417969 C 48.886719 77.546875 48.800781 77.722656 48.800781 77.980469 C 48.800781 78.152344 48.886719 78.324219 49.015625 78.453125 C 49.144531 78.585938 49.316406 78.710938 49.535156 78.839844 C 49.75 78.925781 49.96875 79.058594 50.226562 79.144531 C 50.441406 79.230469 50.65625 79.316406 50.875 79.445312 C 51.089844 79.574219 51.261719 79.703125 51.433594 79.875 C 51.609375 80.046875 51.738281 80.265625 51.824219 80.480469 C 51.910156 80.738281 51.953125 81.039062 51.953125 81.382812 C 51.953125 81.773438 51.867188 82.117188 51.652344 82.421875 C 51.433594 82.71875 51.175781 82.980469 50.785156 83.195312 C 50.398438 83.410156 49.96875 83.496094 49.40625 83.496094 C 49.101562 83.496094 48.839844 83.457031 48.542969 83.410156 C 48.238281 83.371094 47.976562 83.28125 47.675781 83.152344 C 47.375 83.023438 47.113281 82.894531 46.855469 82.71875 L 47.5 81.601562 C 47.675781 81.730469 47.847656 81.859375 48.0625 81.945312 C 48.28125 82.03125 48.496094 82.117188 48.667969 82.160156 C 48.886719 82.203125 49.058594 82.246094 49.230469 82.246094 C 49.40625 82.246094 49.578125 82.203125 49.75 82.160156 C 49.921875 82.117188 50.09375 82.03125 50.179688 81.902344 C 50.3125 81.773438 50.355469 81.601562 50.355469 81.382812 C 50.355469 81.257812 50.3125 81.082031 50.226562 80.996094 C 50.140625 80.867188 50.007812 80.78125 49.835938 80.652344 C 49.664062 80.523438 49.492188 80.480469 49.316406 80.394531 C 49.101562 80.308594 48.839844 80.222656 48.628906 80.09375 C 48.367188 79.960938 48.152344 79.835938 47.933594 79.660156 C 47.71875 79.488281 47.546875 79.269531 47.414062 79.058594 C 47.289062 78.796875 47.203125 78.5 47.203125 78.152344 C 47.203125 77.722656 47.289062 77.332031 47.5 77.03125 C 47.675781 76.730469 47.976562 76.472656 48.324219 76.300781 C 48.667969 76.125 49.058594 75.996094 49.535156 75.996094 C 50.140625 75.996094 50.613281 76.082031 51.003906 76.210938 C 51.394531 76.339844 51.695312 76.511719 51.996094 76.730469 Z M 51.480469 77.761719 "/>
<path style=" stroke:none;fill-rule:nonzero;fill:rgb(100%,76.078431%,5.490196%);fill-opacity:1;" d="M 52.90625 75.953125 L 57.921875 75.953125 L 57.921875 77.375 L 56.105469 77.375 L 56.105469 83.371094 L 54.632812 83.371094 L 54.632812 77.375 L 52.90625 77.375 Z M 52.90625 75.953125 "/>
<path style=" stroke:none;fill-rule:nonzero;fill:rgb(100%,76.078431%,5.490196%);fill-opacity:1;" d="M 58.480469 83.371094 L 61.808594 75.695312 L 61.894531 75.695312 L 65.222656 83.371094 L 63.539062 83.371094 L 61.417969 77.933594 L 62.5 77.203125 L 59.949219 83.324219 L 58.480469 83.324219 Z M 60.773438 80.695312 L 63.019531 80.695312 L 63.539062 81.902344 L 60.339844 81.902344 Z M 60.773438 80.695312 "/>
<path style=" stroke:none;fill-rule:nonzero;fill:rgb(100%,76.078431%,5.490196%);fill-opacity:1;" d="M 72.960938 83.667969 L 67.339844 78.585938 L 67.773438 78.839844 L 67.816406 83.371094 L 66.347656 83.371094 L 66.347656 75.695312 L 66.390625 75.695312 L 71.878906 80.738281 L 71.578125 80.609375 L 71.535156 75.996094 L 73.003906 75.996094 Z M 72.960938 83.667969 "/>
<path style=" stroke:none;fill-rule:nonzero;fill:rgb(100%,76.078431%,5.490196%);fill-opacity:1;" d="M 3.589844 99.445312 C 2.898438 99.445312 2.289062 99.40625 1.816406 99.320312 C 1.339844 99.234375 0.996094 99.058594 0.734375 98.800781 C 0.476562 98.542969 0.304688 98.242188 0.171875 97.8125 C 0.0859375 97.378906 0 96.859375 0 96.214844 C 0 95.824219 0 95.480469 0.046875 95.09375 C 0.0859375 94.707031 0.132812 94.363281 0.21875 94.015625 C 0.304688 93.671875 0.34375 93.324219 0.476562 92.980469 L 2.25 93.285156 C 2.117188 93.710938 2.03125 94.1875 1.988281 94.621094 C 1.945312 95.050781 1.902344 95.480469 1.902344 95.910156 C 1.902344 96.214844 1.902344 96.515625 1.945312 96.730469 C 1.945312 96.949219 1.988281 97.207031 2.03125 97.378906 L 3.933594 97.378906 C 4.410156 97.378906 4.753906 97.332031 4.96875 97.246094 C 5.1875 97.160156 5.320312 96.949219 5.320312 96.6875 L 5.320312 90.050781 L 7.21875 90.050781 L 7.21875 96.34375 C 7.21875 96.949219 7.175781 97.464844 7.089844 97.898438 C 7.003906 98.328125 6.832031 98.628906 6.570312 98.886719 C 6.308594 99.101562 5.921875 99.273438 5.445312 99.40625 C 5.015625 99.40625 4.363281 99.445312 3.589844 99.445312 Z M 3.675781 88.453125 C 3.542969 88.453125 3.414062 88.414062 3.242188 88.28125 C 3.070312 88.15625 2.9375 88.023438 2.8125 87.851562 C 2.679688 87.675781 2.636719 87.550781 2.636719 87.417969 C 2.636719 87.292969 2.679688 87.160156 2.8125 86.988281 C 2.9375 86.816406 3.070312 86.6875 3.242188 86.558594 C 3.414062 86.429688 3.542969 86.386719 3.675781 86.386719 C 3.804688 86.386719 3.933594 86.429688 4.105469 86.558594 C 4.277344 86.6875 4.410156 86.816406 4.539062 86.988281 C 4.667969 87.160156 4.710938 87.292969 4.710938 87.417969 C 4.710938 87.550781 4.667969 87.675781 4.539062 87.851562 C 4.410156 88.023438 4.277344 88.15625 4.105469 88.28125 C 3.933594 88.367188 3.804688 88.453125 3.675781 88.453125 Z M 3.675781 88.453125 "/>
<path style=" stroke:none;fill-rule:nonzero;fill:rgb(100%,76.078431%,5.490196%);fill-opacity:1;" d="M 9.339844 96.257812 L 9.339844 87.851562 L 11.238281 87.851562 L 11.238281 94.144531 L 12.277344 94.144531 L 12.277344 96.257812 Z M 12.230469 96.257812 L 12.230469 94.144531 C 12.316406 94.144531 12.40625 94.230469 12.449219 94.449219 C 12.492188 94.621094 12.535156 94.878906 12.535156 95.222656 C 12.535156 95.566406 12.492188 95.824219 12.449219 95.996094 C 12.40625 96.171875 12.316406 96.257812 12.230469 96.257812 Z M 12.230469 96.257812 "/>
<path style=" stroke:none;fill-rule:nonzero;fill:rgb(100%,76.078431%,5.490196%);fill-opacity:1;" d="M 12.230469 96.257812 C 12.144531 96.257812 12.058594 96.171875 12.019531 95.996094 C 11.972656 95.824219 11.929688 95.566406 11.929688 95.222656 C 11.929688 94.921875 11.972656 94.660156 12.019531 94.449219 C 12.058594 94.230469 12.144531 94.144531 12.230469 94.144531 Z M 12.230469 96.257812 L 12.230469 94.144531 L 15.476562 94.144531 L 15.476562 96.257812 Z M 15.476562 96.257812 L 15.476562 94.144531 C 15.5625 94.144531 15.648438 94.230469 15.6875 94.449219 C 15.734375 94.621094 15.777344 94.878906 15.777344 95.222656 C 15.777344 95.566406 15.734375 95.824219 15.6875 95.996094 C 15.648438 96.171875 15.601562 96.257812 15.476562 96.257812 Z M 15.476562 96.257812 "/>
<path style=" stroke:none;fill-rule:nonzero;fill:rgb(100%,76.078431%,5.490196%);fill-opacity:1;" d="M 15.476562 96.257812 C 15.386719 96.257812 15.300781 96.171875 15.257812 95.996094 C 15.214844 95.824219 15.171875 95.566406 15.171875 95.222656 C 15.171875 94.921875 15.214844 94.660156 15.257812 94.449219 C 15.300781 94.273438 15.386719 94.144531 15.476562 94.144531 Z M 15.476562 96.257812 L 15.476562 94.144531 L 18.195312 94.144531 L 17.203125 95.09375 L 17.203125 89.964844 L 19.105469 89.964844 L 19.105469 96.214844 L 15.476562 96.214844 Z M 16.988281 88.453125 C 16.855469 88.453125 16.726562 88.414062 16.554688 88.28125 C 16.382812 88.15625 16.25 88.023438 16.125 87.851562 C 15.992188 87.675781 15.949219 87.550781 15.949219 87.417969 C 15.949219 87.292969 15.992188 87.160156 16.125 86.988281 C 16.25 86.816406 16.382812 86.6875 16.554688 86.558594 C 16.726562 86.429688 16.855469 86.386719 16.988281 86.386719 C 17.117188 86.386719 17.246094 86.429688 17.417969 86.558594 C 17.589844 86.6875 17.722656 86.816406 17.851562 86.988281 C 17.980469 87.160156 18.023438 87.292969 18.023438 87.417969 C 18.023438 87.550781 17.980469 87.675781 17.851562 87.851562 C 17.722656 88.023438 17.589844 88.15625 17.417969 88.28125 C 17.289062 88.367188 17.117188 88.453125 16.988281 88.453125 Z M 19.40625 88.453125 C 19.277344 88.453125 19.148438 88.414062 18.976562 88.28125 C 18.804688 88.15625 18.671875 88.023438 18.542969 87.851562 C 18.414062 87.675781 18.367188 87.550781 18.367188 87.417969 C 18.367188 87.292969 18.414062 87.160156 18.542969 86.988281 C 18.671875 86.816406 18.804688 86.6875 18.976562 86.558594 C 19.148438 86.429688 19.277344 86.386719 19.40625 86.386719 C 19.535156 86.386719 19.667969 86.429688 19.839844 86.558594 C 20.011719 86.6875 20.144531 86.816406 20.269531 86.988281 C 20.402344 87.160156 20.445312 87.292969 20.445312 87.417969 C 20.445312 87.550781 20.402344 87.675781 20.269531 87.851562 C 20.144531 88.023438 20.011719 88.15625 19.839844 88.28125 C 19.667969 88.367188 19.535156 88.453125 19.40625 88.453125 Z M 19.148438 96.257812 L 19.148438 94.144531 L 20.183594 94.144531 L 20.183594 96.257812 Z M 20.183594 96.257812 L 20.183594 94.144531 C 20.269531 94.144531 20.359375 94.230469 20.402344 94.449219 C 20.445312 94.621094 20.488281 94.878906 20.488281 95.222656 C 20.488281 95.566406 20.445312 95.824219 20.402344 95.996094 C 20.316406 96.171875 20.269531 96.257812 20.183594 96.257812 Z M 20.183594 96.257812 "/>
<path style=" stroke:none;fill-rule:nonzero;fill:rgb(100%,76.078431%,5.490196%);fill-opacity:1;" d="M 20.183594 96.257812 C 20.097656 96.257812 20.011719 96.171875 19.96875 95.996094 C 19.925781 95.824219 19.882812 95.566406 19.882812 95.222656 C 19.882812 94.921875 19.925781 94.660156 19.96875 94.449219 C 20.011719 94.273438 20.097656 94.144531 20.183594 94.144531 Z M 20.183594 96.257812 L 20.183594 94.144531 L 21.957031 94.144531 L 21.957031 91.171875 L 23.859375 91.171875 L 23.859375 96.214844 L 20.183594 96.214844 Z M 23.816406 96.257812 L 23.816406 94.144531 L 25.503906 94.144531 C 25.847656 94.144531 26.0625 94.101562 26.234375 94.015625 C 26.40625 93.929688 26.496094 93.710938 26.496094 93.457031 L 26.496094 91.214844 L 28.398438 91.214844 L 28.398438 93.066406 C 28.398438 93.710938 28.355469 94.230469 28.269531 94.660156 C 28.183594 95.09375 28.007812 95.394531 27.746094 95.652344 C 27.488281 95.871094 27.144531 96.042969 26.710938 96.171875 C 26.234375 96.257812 25.675781 96.300781 24.941406 96.300781 L 23.816406 96.300781 Z M 29.652344 96.257812 C 29 96.257812 28.484375 96.214844 28.050781 96.128906 C 27.621094 96.042969 27.316406 95.871094 27.101562 95.613281 C 26.882812 95.394531 26.710938 95.050781 26.625 94.621094 C 26.539062 94.1875 26.496094 93.671875 26.496094 93.027344 L 26.496094 91.171875 L 28.398438 91.171875 L 28.398438 93.414062 C 28.398438 93.710938 28.484375 93.886719 28.65625 93.972656 C 28.828125 94.058594 29.085938 94.101562 29.390625 94.101562 L 30.949219 94.101562 C 30.992188 93.929688 31.035156 93.710938 31.035156 93.5 C 31.035156 93.285156 31.078125 93.027344 31.078125 92.765625 C 31.078125 92.335938 31.035156 91.945312 30.992188 91.515625 C 30.90625 91.085938 30.816406 90.652344 30.730469 90.222656 L 32.589844 89.964844 C 32.675781 90.222656 32.761719 90.523438 32.808594 90.828125 C 32.847656 91.125 32.894531 91.429688 32.933594 91.730469 C 32.980469 92.03125 32.980469 92.335938 32.980469 92.636719 C 32.980469 93.585938 32.847656 94.273438 32.632812 94.792969 C 32.417969 95.308594 32.027344 95.652344 31.554688 95.871094 C 31.035156 96.171875 30.386719 96.257812 29.652344 96.257812 Z M 29.566406 96.257812 L 31.8125 94.144531 L 33.976562 94.144531 L 33.976562 96.257812 Z M 33.976562 96.257812 L 33.976562 94.144531 C 34.0625 94.144531 34.148438 94.230469 34.1875 94.449219 C 34.234375 94.621094 34.273438 94.878906 34.273438 95.222656 C 34.273438 95.566406 34.234375 95.824219 34.1875 95.996094 C 34.148438 96.171875 34.0625 96.257812 33.976562 96.257812 Z M 33.976562 96.257812 "/>
<path style=" stroke:none;fill-rule:nonzero;fill:rgb(100%,76.078431%,5.490196%);fill-opacity:1;" d="M 33.976562 96.257812 C 33.886719 96.257812 33.800781 96.171875 33.757812 95.996094 C 33.714844 95.824219 33.671875 95.566406 33.671875 95.222656 C 33.671875 94.921875 33.714844 94.660156 33.757812 94.449219 C 33.800781 94.273438 33.886719 94.144531 33.976562 94.144531 Z M 33.976562 96.257812 L 33.976562 94.144531 L 36.695312 94.144531 L 35.699219 95.09375 L 35.699219 89.964844 L 37.605469 89.964844 L 37.605469 96.214844 L 33.976562 96.214844 Z M 34.40625 88.453125 C 34.273438 88.453125 34.148438 88.414062 33.976562 88.28125 C 33.800781 88.15625 33.671875 88.023438 33.542969 87.851562 C 33.410156 87.675781 33.367188 87.550781 33.367188 87.417969 C 33.367188 87.292969 33.410156 87.160156 33.542969 86.988281 C 33.671875 86.816406 33.800781 86.6875 33.976562 86.558594 C 34.148438 86.429688 34.273438 86.386719 34.40625 86.386719 C 34.535156 86.386719 34.664062 86.429688 34.835938 86.558594 C 35.011719 86.6875 35.140625 86.816406 35.269531 86.988281 C 35.402344 87.160156 35.441406 87.292969 35.441406 87.417969 C 35.441406 87.550781 35.402344 87.675781 35.269531 87.851562 C 35.140625 88.023438 35.011719 88.15625 34.835938 88.28125 C 34.664062 88.367188 34.492188 88.453125 34.40625 88.453125 Z M 36.78125 88.453125 C 36.65625 88.453125 36.523438 88.414062 36.351562 88.28125 C 36.179688 88.15625 36.046875 88.023438 35.917969 87.851562 C 35.789062 87.675781 35.746094 87.550781 35.746094 87.417969 C 35.746094 87.292969 35.789062 87.160156 35.917969 86.988281 C 36.046875 86.816406 36.179688 86.6875 36.351562 86.558594 C 36.523438 86.429688 36.65625 86.386719 36.78125 86.386719 C 36.914062 86.386719 37.039062 86.429688 37.214844 86.558594 C 37.386719 86.6875 37.519531 86.816406 37.648438 86.988281 C 37.777344 87.160156 37.820312 87.292969 37.820312 87.417969 C 37.820312 87.550781 37.777344 87.675781 37.648438 87.851562 C 37.519531 88.023438 37.386719 88.15625 37.214844 88.28125 C 37.039062 88.367188 36.914062 88.453125 36.78125 88.453125 Z M 36.78125 88.453125 "/>
<path style=" stroke:none;fill-rule:nonzero;fill:rgb(100%,76.078431%,5.490196%);fill-opacity:1;" d="M 39.59375 99.964844 L 38.902344 98.285156 C 39.246094 98.109375 39.507812 97.9375 39.722656 97.765625 C 39.894531 97.59375 40.023438 97.378906 40.109375 97.074219 C 40.199219 96.773438 40.199219 96.429688 40.199219 95.957031 L 40.199219 89.964844 L 42.054688 89.964844 L 42.054688 95.957031 C 42.054688 96.648438 41.96875 97.292969 41.796875 97.765625 C 41.625 98.285156 41.363281 98.714844 41.019531 99.058594 C 40.675781 99.40625 40.199219 99.707031 39.59375 99.964844 Z M 39.59375 99.964844 "/>
<path style=" stroke:none;fill-rule:nonzero;fill:rgb(100%,76.078431%,5.490196%);fill-opacity:1;" d="M 44.132812 96.257812 L 44.132812 87.851562 L 46.035156 87.851562 L 46.035156 94.144531 L 47.070312 94.144531 L 47.070312 96.257812 Z M 47.027344 96.257812 L 47.027344 94.144531 C 47.113281 94.144531 47.203125 94.230469 47.242188 94.449219 C 47.289062 94.621094 47.328125 94.878906 47.328125 95.222656 C 47.328125 95.566406 47.289062 95.824219 47.242188 95.996094 C 47.203125 96.171875 47.113281 96.257812 47.027344 96.257812 Z M 47.027344 96.257812 "/>
<path style=" stroke:none;fill-rule:nonzero;fill:rgb(100%,76.078431%,5.490196%);fill-opacity:1;" d="M 47.027344 96.257812 C 46.941406 96.257812 46.855469 96.171875 46.8125 95.996094 C 46.765625 95.824219 46.722656 95.566406 46.722656 95.222656 C 46.722656 94.921875 46.765625 94.660156 46.8125 94.449219 C 46.855469 94.273438 46.941406 94.144531 47.027344 94.144531 Z M 47.027344 96.257812 L 47.027344 94.144531 L 50.265625 94.144531 L 50.265625 96.257812 Z M 50.3125 96.257812 L 50.3125 94.144531 C 50.398438 94.144531 50.484375 94.230469 50.527344 94.449219 C 50.570312 94.621094 50.613281 94.878906 50.613281 95.222656 C 50.613281 95.566406 50.570312 95.824219 50.527344 95.996094 C 50.441406 96.171875 50.398438 96.257812 50.3125 96.257812 Z M 50.3125 96.257812 "/>
<path style=" stroke:none;fill-rule:nonzero;fill:rgb(100%,76.078431%,5.490196%);fill-opacity:1;" d="M 50.3125 96.257812 C 50.226562 96.257812 50.140625 96.171875 50.09375 95.996094 C 50.054688 95.824219 50.007812 95.566406 50.007812 95.222656 C 50.007812 94.921875 50.054688 94.660156 50.09375 94.449219 C 50.140625 94.273438 50.226562 94.144531 50.3125 94.144531 Z M 50.3125 96.257812 L 50.3125 94.144531 L 53.554688 94.144531 L 53.554688 96.257812 Z M 53.554688 96.257812 L 53.554688 94.144531 C 53.640625 94.144531 53.726562 94.230469 53.769531 94.449219 C 53.816406 94.621094 53.855469 94.878906 53.855469 95.222656 C 53.855469 95.566406 53.816406 95.824219 53.769531 95.996094 C 53.726562 96.171875 53.640625 96.257812 53.554688 96.257812 Z M 53.554688 96.257812 "/>
<path style=" stroke:none;fill-rule:nonzero;fill:rgb(100%,76.078431%,5.490196%);fill-opacity:1;" d="M 53.554688 96.257812 C 53.464844 96.257812 53.378906 96.171875 53.335938 95.996094 C 53.292969 95.824219 53.25 95.566406 53.25 95.222656 C 53.25 94.921875 53.292969 94.660156 53.335938 94.449219 C 53.378906 94.273438 53.464844 94.144531 53.554688 94.144531 Z M 53.554688 96.257812 L 53.554688 94.144531 L 56.792969 94.144531 L 56.792969 96.257812 Z M 56.792969 96.257812 L 56.792969 94.144531 C 56.878906 94.144531 56.96875 94.230469 57.011719 94.449219 C 57.054688 94.621094 57.097656 94.878906 57.097656 95.222656 C 57.097656 95.566406 57.054688 95.824219 57.011719 95.996094 C 56.96875 96.171875 56.925781 96.257812 56.792969 96.257812 Z M 56.792969 96.257812 "/>
<path style=" stroke:none;fill-rule:nonzero;fill:rgb(100%,76.078431%,5.490196%);fill-opacity:1;" d="M 56.792969 96.257812 C 56.707031 96.257812 56.621094 96.171875 56.582031 95.996094 C 56.535156 95.824219 56.496094 95.566406 56.496094 95.222656 C 56.496094 94.921875 56.535156 94.660156 56.582031 94.449219 C 56.621094 94.273438 56.707031 94.144531 56.792969 94.144531 Z M 56.792969 96.257812 L 56.792969 94.144531 L 60.039062 94.144531 L 60.039062 96.257812 Z M 60.078125 96.257812 L 60.078125 94.144531 C 60.164062 94.144531 60.253906 94.230469 60.296875 94.449219 C 60.339844 94.621094 60.382812 94.878906 60.382812 95.222656 C 60.382812 95.566406 60.339844 95.824219 60.296875 95.996094 C 60.210938 96.171875 60.164062 96.257812 60.078125 96.257812 Z M 60.078125 96.257812 "/>
<path style=" stroke:none;fill-rule:nonzero;fill:rgb(100%,76.078431%,5.490196%);fill-opacity:1;" d="M 60.078125 96.257812 C 59.992188 96.257812 59.90625 96.171875 59.863281 95.996094 C 59.820312 95.824219 59.777344 95.566406 59.777344 95.222656 C 59.777344 94.921875 59.820312 94.660156 59.863281 94.449219 C 59.90625 94.273438 59.992188 94.144531 60.078125 94.144531 Z M 60.078125 96.257812 L 60.078125 94.144531 L 62.585938 94.144531 C 62.933594 94.144531 63.28125 94.101562 63.539062 93.972656 C 63.796875 93.886719 64.011719 93.710938 64.230469 93.542969 C 64.402344 93.371094 64.574219 93.152344 64.707031 92.9375 C 64.835938 92.722656 64.921875 92.460938 65.007812 92.203125 L 66.738281 92.808594 C 66.5625 93.457031 66.304688 93.972656 66.046875 94.402344 C 65.742188 94.835938 65.4375 95.222656 65.050781 95.480469 C 64.660156 95.738281 64.273438 95.957031 63.796875 96.085938 C 63.367188 96.214844 62.890625 96.257812 62.414062 96.257812 Z M 67.082031 96.257812 C 66.777344 96.257812 66.5625 96.214844 66.390625 96.085938 C 66.21875 95.957031 66.085938 95.785156 66 95.523438 L 65.179688 93.457031 C 65.050781 93.113281 64.878906 92.808594 64.660156 92.59375 C 64.449219 92.375 64.183594 92.203125 63.882812 92.117188 C 63.582031 92.03125 63.148438 91.945312 62.671875 91.945312 C 62.457031 91.945312 62.199219 91.945312 61.941406 91.945312 C 61.679688 91.945312 61.378906 91.988281 61.074219 92.03125 L 60.8125 89.964844 C 61.160156 89.921875 61.503906 89.875 61.808594 89.875 C 62.113281 89.835938 62.414062 89.835938 62.671875 89.835938 C 63.453125 89.835938 64.097656 89.921875 64.660156 90.136719 C 65.222656 90.351562 65.65625 90.652344 66 91.039062 C 66.347656 91.472656 66.652344 91.988281 66.910156 92.679688 L 67.472656 94.1875 L 68.25 94.1875 L 68.25 96.300781 L 67.082031 96.300781 Z M 64.144531 99.40625 C 64.011719 99.40625 63.882812 99.359375 63.710938 99.234375 C 63.539062 99.101562 63.40625 98.972656 63.28125 98.800781 C 63.148438 98.628906 63.109375 98.5 63.109375 98.371094 C 63.109375 98.242188 63.148438 98.109375 63.28125 97.9375 C 63.40625 97.765625 63.539062 97.636719 63.710938 97.507812 C 63.882812 97.378906 64.011719 97.332031 64.144531 97.332031 C 64.273438 97.332031 64.402344 97.378906 64.574219 97.507812 C 64.746094 97.636719 64.878906 97.765625 65.007812 97.9375 C 65.136719 98.109375 65.179688 98.242188 65.179688 98.371094 C 65.179688 98.5 65.136719 98.628906 65.007812 98.800781 C 64.878906 98.972656 64.746094 99.101562 64.574219 99.234375 C 64.402344 99.320312 64.273438 99.40625 64.144531 99.40625 Z M 68.203125 96.257812 L 68.203125 94.144531 C 68.292969 94.144531 68.378906 94.230469 68.421875 94.449219 C 68.46875 94.621094 68.507812 94.878906 68.507812 95.222656 C 68.507812 95.566406 68.46875 95.824219 68.421875 95.996094 C 68.335938 96.171875 68.292969 96.257812 68.203125 96.257812 Z M 68.203125 96.257812 "/>
<path style=" stroke:none;fill-rule:nonzero;fill:rgb(100%,76.078431%,5.490196%);fill-opacity:1;" d="M 68.203125 96.257812 C 68.117188 96.257812 68.03125 96.171875 67.992188 95.996094 C 67.945312 95.824219 67.902344 95.566406 67.902344 95.222656 C 67.902344 94.921875 67.945312 94.660156 67.992188 94.449219 C 68.03125 94.273438 68.117188 94.144531 68.203125 94.144531 Z M 68.203125 96.257812 L 68.203125 94.144531 L 70.929688 94.144531 L 69.933594 95.09375 L 69.933594 89.964844 L 71.835938 89.964844 L 71.835938 96.214844 L 68.203125 96.214844 Z M 68.421875 88.453125 C 68.292969 88.453125 68.164062 88.414062 67.992188 88.28125 C 67.816406 88.15625 67.6875 88.023438 67.558594 87.851562 C 67.425781 87.675781 67.386719 87.550781 67.386719 87.417969 C 67.386719 87.292969 67.425781 87.160156 67.558594 86.988281 C 67.6875 86.816406 67.816406 86.6875 67.992188 86.558594 C 68.164062 86.429688 68.292969 86.386719 68.421875 86.386719 C 68.554688 86.386719 68.679688 86.429688 68.855469 86.558594 C 69.027344 86.6875 69.15625 86.816406 69.285156 86.988281 C 69.417969 87.160156 69.457031 87.292969 69.457031 87.417969 C 69.457031 87.550781 69.417969 87.675781 69.285156 87.851562 C 69.15625 88.023438 69.027344 88.15625 68.855469 88.28125 C 68.726562 88.367188 68.554688 88.453125 68.421875 88.453125 Z M 70.84375 88.453125 C 70.710938 88.453125 70.585938 88.414062 70.410156 88.28125 C 70.238281 88.15625 70.105469 88.023438 69.980469 87.851562 C 69.847656 87.675781 69.808594 87.550781 69.808594 87.417969 C 69.808594 87.292969 69.847656 87.160156 69.980469 86.988281 C 70.105469 86.816406 70.238281 86.6875 70.410156 86.558594 C 70.585938 86.429688 70.710938 86.386719 70.84375 86.386719 C 70.972656 86.386719 71.101562 86.429688 71.273438 86.558594 C 71.449219 86.6875 71.578125 86.816406 71.707031 86.988281 C 71.835938 87.160156 71.878906 87.292969 71.878906 87.417969 C 71.878906 87.550781 71.835938 87.675781 71.707031 87.851562 C 71.578125 88.023438 71.449219 88.15625 71.273438 88.28125 C 71.101562 88.367188 70.972656 88.453125 70.84375 88.453125 Z M 70.84375 88.453125 "/>
<path style=" stroke:none;fill-rule:evenodd;fill:rgb(100%,76.078431%,5.490196%);fill-opacity:1;" d="M 43.527344 4.394531 L 66.996094 17.886719 L 59.472656 22.199219 L 51.480469 17.585938 L 43.527344 22.199219 L 41.929688 23.144531 L 37.648438 25.601562 L 36.046875 26.550781 L 28.527344 22.238281 L 30.128906 21.292969 L 34.40625 18.835938 L 36.003906 17.886719 L 43.957031 13.273438 L 35.960938 8.660156 Z M 59.472656 22.199219 L 66.996094 26.507812 L 66.996094 53.539062 L 59.472656 49.226562 L 59.472656 40.042969 L 51.480469 35.429688 L 49.882812 34.484375 L 45.601562 32.027344 L 44 31.078125 L 44 22.410156 L 45.601562 23.359375 L 49.882812 25.820312 L 51.480469 26.765625 L 59.472656 31.378906 Z M 59.472656 49.226562 L 59.472656 57.890625 L 36.003906 71.382812 L 36.003906 62.71875 L 44 58.105469 L 44 40.300781 L 51.519531 35.992188 L 51.519531 53.796875 Z M 36.003906 62.71875 L 28.484375 67.03125 L 5.058594 53.539062 L 12.578125 49.226562 L 20.53125 53.839844 L 28.527344 49.226562 L 30.128906 48.277344 L 34.40625 45.820312 L 36.003906 44.871094 L 43.527344 49.183594 L 41.929688 50.128906 L 37.648438 52.589844 L 36.046875 53.539062 L 28.097656 58.148438 Z M 12.578125 49.226562 L 5.058594 44.914062 L 5.058594 17.886719 L 12.578125 22.199219 L 12.578125 31.378906 L 20.53125 35.992188 L 22.128906 36.9375 L 26.40625 39.398438 L 28.007812 40.347656 L 28.007812 49.011719 L 26.40625 48.0625 L 22.128906 45.605469 L 20.53125 44.65625 L 12.535156 40.042969 Z M 12.578125 22.199219 L 12.578125 13.53125 L 36.046875 0.0390625 L 36.046875 8.703125 L 28.097656 13.316406 L 28.097656 31.121094 L 20.574219 35.429688 L 20.574219 17.625 Z M 12.578125 22.199219 "/>
</g>
</svg>
