<?xml version="1.0" encoding="UTF-8"?>
<svg xmlns="http://www.w3.org/2000/svg" xmlns:xlink="http://www.w3.org/1999/xlink" width="300px" height="300px" viewBox="0 0 300 300" version="1.1">
<g id="surface1">
<path style=" stroke:none;fill-rule:nonzero;fill:rgb(100%,76.078431%,5.490196%);fill-opacity:1;" d="M 108.628906 179.65625 L 114.3125 179.65625 L 114.3125 181.273438 L 112.253906 181.273438 L 112.253906 188.089844 L 110.589844 188.089844 L 110.589844 181.273438 L 108.628906 181.273438 Z M 108.628906 179.65625 "/>
<path style=" stroke:none;fill-rule:nonzero;fill:rgb(100%,76.078431%,5.490196%);fill-opacity:1;" d="M 115.882812 179.65625 L 121.617188 179.65625 L 121.617188 181.273438 L 117.550781 181.273438 L 117.550781 183.089844 L 121.175781 183.089844 L 121.175781 184.707031 L 117.550781 184.707031 L 117.550781 186.519531 L 121.8125 186.519531 L 121.8125 188.136719 L 115.929688 188.136719 L 115.929688 179.65625 Z M 115.882812 179.65625 "/>
<path style=" stroke:none;fill-rule:nonzero;fill:rgb(100%,76.078431%,5.490196%);fill-opacity:1;" d="M 125.882812 186.324219 C 125.882812 187.058594 125.734375 187.695312 125.441406 188.1875 C 125.148438 188.675781 124.753906 189.117188 124.214844 189.363281 C 123.726562 189.65625 123.089844 189.804688 122.402344 189.804688 L 122.402344 188.234375 C 122.941406 188.1875 123.332031 188.039062 123.675781 187.746094 C 124.019531 187.449219 124.167969 186.960938 124.167969 186.273438 L 124.167969 179.65625 L 125.832031 179.65625 L 125.832031 186.324219 Z M 125.882812 186.324219 "/>
<path style=" stroke:none;fill-rule:nonzero;fill:rgb(100%,76.078431%,5.490196%);fill-opacity:1;" d="M 127.109375 188.089844 L 130.882812 179.363281 L 130.980469 179.363281 L 134.753906 188.089844 L 132.84375 188.089844 L 130.441406 181.910156 L 131.667969 181.078125 L 128.773438 188.039062 L 127.109375 188.039062 Z M 129.707031 185.050781 L 132.253906 185.050781 L 132.84375 186.421875 L 129.214844 186.421875 Z M 129.707031 185.050781 "/>
<path style=" stroke:none;fill-rule:nonzero;fill:rgb(100%,76.078431%,5.490196%);fill-opacity:1;" d="M 138.578125 179.65625 C 139.117188 179.65625 139.558594 179.707031 140 179.851562 C 140.390625 180 140.734375 180.195312 141.03125 180.441406 C 141.324219 180.6875 141.519531 180.980469 141.667969 181.324219 C 141.8125 181.667969 141.863281 182.058594 141.863281 182.5 C 141.863281 182.84375 141.8125 183.1875 141.714844 183.53125 C 141.617188 183.871094 141.421875 184.167969 141.226562 184.460938 C 140.980469 184.753906 140.6875 184.949219 140.292969 185.148438 C 139.902344 185.292969 139.460938 185.390625 138.871094 185.390625 L 137.695312 185.390625 L 137.695312 188.089844 L 136.03125 188.089844 L 136.03125 179.65625 Z M 138.871094 183.824219 C 139.117188 183.824219 139.3125 183.773438 139.511719 183.675781 C 139.65625 183.578125 139.804688 183.480469 139.902344 183.332031 C 140 183.1875 140.050781 183.089844 140.097656 182.941406 C 140.148438 182.792969 140.148438 182.648438 140.148438 182.550781 C 140.148438 182.449219 140.148438 182.351562 140.097656 182.207031 C 140.050781 182.058594 140 181.910156 139.949219 181.765625 C 139.851562 181.617188 139.753906 181.519531 139.558594 181.421875 C 139.363281 181.324219 139.167969 181.273438 138.871094 181.273438 L 137.695312 181.273438 L 137.695312 183.824219 Z M 140.441406 184.851562 L 142.5 188.089844 L 140.589844 188.089844 L 138.480469 184.902344 Z M 140.441406 184.851562 "/>
<path style=" stroke:none;fill-rule:nonzero;fill:rgb(100%,76.078431%,5.490196%);fill-opacity:1;" d="M 142.941406 188.089844 L 146.714844 179.363281 L 146.8125 179.363281 L 150.589844 188.089844 L 148.675781 188.089844 L 146.273438 181.910156 L 147.5 181.078125 L 144.609375 188.039062 L 142.941406 188.039062 Z M 145.539062 185.050781 L 148.089844 185.050781 L 148.675781 186.421875 L 145.050781 186.421875 Z M 145.539062 185.050781 "/>
<path style=" stroke:none;fill-rule:nonzero;fill:rgb(100%,76.078431%,5.490196%);fill-opacity:1;" d="M 151.273438 179.65625 L 156.960938 179.65625 L 156.960938 181.273438 L 154.902344 181.273438 L 154.902344 188.089844 L 153.234375 188.089844 L 153.234375 181.273438 L 151.273438 181.273438 Z M 151.273438 179.65625 "/>
<path style=" stroke:none;fill-rule:nonzero;fill:rgb(100%,76.078431%,5.490196%);fill-opacity:1;" d="M 158.53125 179.65625 L 160.195312 179.65625 L 160.195312 188.089844 L 158.53125 188.089844 Z M 158.53125 179.65625 "/>
<path style=" stroke:none;fill-rule:nonzero;fill:rgb(100%,76.078431%,5.490196%);fill-opacity:1;" d="M 166.863281 181.714844 C 166.519531 181.519531 166.226562 181.371094 165.882812 181.273438 C 165.539062 181.175781 165.246094 181.128906 164.949219 181.128906 C 164.609375 181.128906 164.3125 181.175781 164.117188 181.324219 C 163.921875 181.46875 163.824219 181.667969 163.824219 181.960938 C 163.824219 182.15625 163.921875 182.351562 164.070312 182.5 C 164.214844 182.648438 164.410156 182.792969 164.65625 182.941406 C 164.902344 183.039062 165.148438 183.1875 165.441406 183.285156 C 165.6875 183.382812 165.929688 183.480469 166.175781 183.628906 C 166.421875 183.773438 166.617188 183.921875 166.8125 184.117188 C 167.011719 184.3125 167.15625 184.558594 167.253906 184.804688 C 167.351562 185.097656 167.402344 185.441406 167.402344 185.832031 C 167.402344 186.273438 167.304688 186.667969 167.058594 187.011719 C 166.8125 187.351562 166.519531 187.648438 166.078125 187.890625 C 165.636719 188.136719 165.148438 188.234375 164.511719 188.234375 C 164.167969 188.234375 163.871094 188.1875 163.53125 188.136719 C 163.1875 188.089844 162.890625 187.988281 162.550781 187.84375 C 162.207031 187.695312 161.910156 187.550781 161.617188 187.351562 L 162.351562 186.078125 C 162.550781 186.226562 162.746094 186.371094 162.988281 186.46875 C 163.234375 186.570312 163.480469 186.667969 163.675781 186.714844 C 163.921875 186.765625 164.117188 186.8125 164.3125 186.8125 C 164.511719 186.8125 164.707031 186.765625 164.902344 186.714844 C 165.097656 186.667969 165.292969 186.570312 165.390625 186.421875 C 165.539062 186.273438 165.589844 186.078125 165.589844 185.832031 C 165.589844 185.6875 165.539062 185.488281 165.441406 185.390625 C 165.34375 185.246094 165.195312 185.148438 165 185 C 164.804688 184.851562 164.609375 184.804688 164.410156 184.707031 C 164.167969 184.609375 163.871094 184.511719 163.628906 184.363281 C 163.332031 184.214844 163.089844 184.070312 162.84375 183.871094 C 162.597656 183.675781 162.402344 183.429688 162.253906 183.1875 C 162.109375 182.890625 162.011719 182.550781 162.011719 182.15625 C 162.011719 181.667969 162.109375 181.226562 162.351562 180.882812 C 162.550781 180.539062 162.890625 180.246094 163.285156 180.050781 C 163.675781 179.851562 164.117188 179.707031 164.65625 179.707031 C 165.34375 179.707031 165.882812 179.804688 166.324219 179.949219 C 166.765625 180.097656 167.109375 180.292969 167.449219 180.539062 Z M 166.863281 181.714844 "/>
<path style=" stroke:none;fill-rule:nonzero;fill:rgb(100%,76.078431%,5.490196%);fill-opacity:1;" d="M 168.480469 179.65625 L 174.167969 179.65625 L 174.167969 181.273438 L 172.109375 181.273438 L 172.109375 188.089844 L 170.441406 188.089844 L 170.441406 181.273438 L 168.480469 181.273438 Z M 168.480469 179.65625 "/>
<path style=" stroke:none;fill-rule:nonzero;fill:rgb(100%,76.078431%,5.490196%);fill-opacity:1;" d="M 174.804688 188.089844 L 178.578125 179.363281 L 178.675781 179.363281 L 182.449219 188.089844 L 180.539062 188.089844 L 178.136719 181.910156 L 179.363281 181.078125 L 176.46875 188.039062 L 174.804688 188.039062 Z M 177.402344 185.050781 L 179.949219 185.050781 L 180.539062 186.421875 L 176.910156 186.421875 Z M 177.402344 185.050781 "/>
<path style=" stroke:none;fill-rule:nonzero;fill:rgb(100%,76.078431%,5.490196%);fill-opacity:1;" d="M 191.226562 188.429688 L 184.851562 182.648438 L 185.34375 182.941406 L 185.390625 188.089844 L 183.726562 188.089844 L 183.726562 179.363281 L 183.773438 179.363281 L 190 185.097656 L 189.65625 184.949219 L 189.609375 179.707031 L 191.273438 179.707031 Z M 191.226562 188.429688 "/>
<path style=" stroke:none;fill-rule:nonzero;fill:rgb(100%,76.078431%,5.490196%);fill-opacity:1;" d="M 112.550781 206.371094 C 111.765625 206.371094 111.078125 206.324219 110.539062 206.226562 C 110 206.128906 109.609375 205.929688 109.3125 205.636719 C 109.019531 205.34375 108.824219 205 108.675781 204.511719 C 108.578125 204.019531 108.480469 203.429688 108.480469 202.695312 C 108.480469 202.253906 108.480469 201.863281 108.53125 201.421875 C 108.578125 200.980469 108.628906 200.589844 108.726562 200.195312 C 108.824219 199.804688 108.871094 199.410156 109.019531 199.019531 L 111.03125 199.363281 C 110.882812 199.851562 110.785156 200.390625 110.734375 200.882812 C 110.6875 201.371094 110.636719 201.863281 110.636719 202.351562 C 110.636719 202.695312 110.636719 203.039062 110.6875 203.285156 C 110.6875 203.53125 110.734375 203.824219 110.785156 204.019531 L 112.941406 204.019531 C 113.480469 204.019531 113.871094 203.96875 114.117188 203.871094 C 114.363281 203.773438 114.511719 203.53125 114.511719 203.234375 L 114.511719 195.6875 L 116.667969 195.6875 L 116.667969 202.84375 C 116.667969 203.53125 116.617188 204.117188 116.519531 204.609375 C 116.421875 205.097656 116.226562 205.441406 115.929688 205.734375 C 115.636719 205.980469 115.195312 206.175781 114.65625 206.324219 C 114.167969 206.324219 113.429688 206.371094 112.550781 206.371094 Z M 112.648438 193.871094 C 112.5 193.871094 112.351562 193.824219 112.15625 193.675781 C 111.960938 193.53125 111.8125 193.382812 111.667969 193.1875 C 111.519531 192.988281 111.46875 192.84375 111.46875 192.695312 C 111.46875 192.550781 111.519531 192.402344 111.667969 192.207031 C 111.8125 192.011719 111.960938 191.863281 112.15625 191.714844 C 112.351562 191.570312 112.5 191.519531 112.648438 191.519531 C 112.792969 191.519531 112.941406 191.570312 113.136719 191.714844 C 113.332031 191.863281 113.480469 192.011719 113.628906 192.207031 C 113.773438 192.402344 113.824219 192.550781 113.824219 192.695312 C 113.824219 192.84375 113.773438 192.988281 113.628906 193.1875 C 113.480469 193.382812 113.332031 193.53125 113.136719 193.675781 C 112.941406 193.773438 112.792969 193.871094 112.648438 193.871094 Z M 112.648438 193.871094 "/>
<path style=" stroke:none;fill-rule:nonzero;fill:rgb(100%,76.078431%,5.490196%);fill-opacity:1;" d="M 119.070312 202.746094 L 119.070312 193.1875 L 121.226562 193.1875 L 121.226562 200.34375 L 122.402344 200.34375 L 122.402344 202.746094 Z M 122.351562 202.746094 L 122.351562 200.34375 C 122.449219 200.34375 122.550781 200.441406 122.597656 200.6875 C 122.648438 200.882812 122.695312 201.175781 122.695312 201.570312 C 122.695312 201.960938 122.648438 202.253906 122.597656 202.449219 C 122.550781 202.648438 122.449219 202.746094 122.351562 202.746094 Z M 122.351562 202.746094 "/>
<path style=" stroke:none;fill-rule:nonzero;fill:rgb(100%,76.078431%,5.490196%);fill-opacity:1;" d="M 122.351562 202.746094 C 122.253906 202.746094 122.15625 202.648438 122.109375 202.449219 C 122.058594 202.253906 122.011719 201.960938 122.011719 201.570312 C 122.011719 201.226562 122.058594 200.929688 122.109375 200.6875 C 122.15625 200.441406 122.253906 200.34375 122.351562 200.34375 Z M 122.351562 202.746094 L 122.351562 200.34375 L 126.03125 200.34375 L 126.03125 202.746094 Z M 126.03125 202.746094 L 126.03125 200.34375 C 126.128906 200.34375 126.226562 200.441406 126.273438 200.6875 C 126.324219 200.882812 126.371094 201.175781 126.371094 201.570312 C 126.371094 201.960938 126.324219 202.253906 126.273438 202.449219 C 126.226562 202.648438 126.175781 202.746094 126.03125 202.746094 Z M 126.03125 202.746094 "/>
<path style=" stroke:none;fill-rule:nonzero;fill:rgb(100%,76.078431%,5.490196%);fill-opacity:1;" d="M 126.03125 202.746094 C 125.929688 202.746094 125.832031 202.648438 125.785156 202.449219 C 125.734375 202.253906 125.6875 201.960938 125.6875 201.570312 C 125.6875 201.226562 125.734375 200.929688 125.785156 200.6875 C 125.832031 200.488281 125.929688 200.34375 126.03125 200.34375 Z M 126.03125 202.746094 L 126.03125 200.34375 L 129.117188 200.34375 L 127.988281 201.421875 L 127.988281 195.589844 L 130.148438 195.589844 L 130.148438 202.695312 L 126.03125 202.695312 Z M 127.746094 193.871094 C 127.597656 193.871094 127.449219 193.824219 127.253906 193.675781 C 127.058594 193.53125 126.910156 193.382812 126.765625 193.1875 C 126.617188 192.988281 126.570312 192.84375 126.570312 192.695312 C 126.570312 192.550781 126.617188 192.402344 126.765625 192.207031 C 126.910156 192.011719 127.058594 191.863281 127.253906 191.714844 C 127.449219 191.570312 127.597656 191.519531 127.746094 191.519531 C 127.890625 191.519531 128.039062 191.570312 128.234375 191.714844 C 128.429688 191.863281 128.578125 192.011719 128.726562 192.207031 C 128.871094 192.402344 128.921875 192.550781 128.921875 192.695312 C 128.921875 192.84375 128.871094 192.988281 128.726562 193.1875 C 128.578125 193.382812 128.429688 193.53125 128.234375 193.675781 C 128.089844 193.773438 127.890625 193.871094 127.746094 193.871094 Z M 130.488281 193.871094 C 130.34375 193.871094 130.195312 193.824219 130 193.675781 C 129.804688 193.53125 129.65625 193.382812 129.511719 193.1875 C 129.363281 192.988281 129.3125 192.84375 129.3125 192.695312 C 129.3125 192.550781 129.363281 192.402344 129.511719 192.207031 C 129.65625 192.011719 129.804688 191.863281 130 191.714844 C 130.195312 191.570312 130.34375 191.519531 130.488281 191.519531 C 130.636719 191.519531 130.785156 191.570312 130.980469 191.714844 C 131.175781 191.863281 131.324219 192.011719 131.46875 192.207031 C 131.617188 192.402344 131.667969 192.550781 131.667969 192.695312 C 131.667969 192.84375 131.617188 192.988281 131.46875 193.1875 C 131.324219 193.382812 131.175781 193.53125 130.980469 193.675781 C 130.785156 193.773438 130.636719 193.871094 130.488281 193.871094 Z M 130.195312 202.746094 L 130.195312 200.34375 L 131.371094 200.34375 L 131.371094 202.746094 Z M 131.371094 202.746094 L 131.371094 200.34375 C 131.46875 200.34375 131.570312 200.441406 131.617188 200.6875 C 131.667969 200.882812 131.714844 201.175781 131.714844 201.570312 C 131.714844 201.960938 131.667969 202.253906 131.617188 202.449219 C 131.519531 202.648438 131.46875 202.746094 131.371094 202.746094 Z M 131.371094 202.746094 "/>
<path style=" stroke:none;fill-rule:nonzero;fill:rgb(100%,76.078431%,5.490196%);fill-opacity:1;" d="M 131.371094 202.746094 C 131.273438 202.746094 131.175781 202.648438 131.128906 202.449219 C 131.078125 202.253906 131.03125 201.960938 131.03125 201.570312 C 131.03125 201.226562 131.078125 200.929688 131.128906 200.6875 C 131.175781 200.488281 131.273438 200.34375 131.371094 200.34375 Z M 131.371094 202.746094 L 131.371094 200.34375 L 133.382812 200.34375 L 133.382812 196.960938 L 135.539062 196.960938 L 135.539062 202.695312 L 131.371094 202.695312 Z M 135.488281 202.746094 L 135.488281 200.34375 L 137.402344 200.34375 C 137.792969 200.34375 138.039062 200.292969 138.234375 200.195312 C 138.429688 200.097656 138.53125 199.851562 138.53125 199.558594 L 138.53125 197.011719 L 140.6875 197.011719 L 140.6875 199.117188 C 140.6875 199.851562 140.636719 200.441406 140.539062 200.929688 C 140.441406 201.421875 140.246094 201.765625 139.949219 202.058594 C 139.65625 202.304688 139.265625 202.5 138.773438 202.648438 C 138.234375 202.746094 137.597656 202.792969 136.765625 202.792969 L 135.488281 202.792969 Z M 142.109375 202.746094 C 141.371094 202.746094 140.785156 202.695312 140.292969 202.597656 C 139.804688 202.5 139.460938 202.304688 139.214844 202.011719 C 138.96875 201.765625 138.773438 201.371094 138.675781 200.882812 C 138.578125 200.390625 138.53125 199.804688 138.53125 199.070312 L 138.53125 196.960938 L 140.6875 196.960938 L 140.6875 199.511719 C 140.6875 199.851562 140.785156 200.050781 140.980469 200.148438 C 141.175781 200.246094 141.46875 200.292969 141.8125 200.292969 L 143.578125 200.292969 C 143.628906 200.097656 143.675781 199.851562 143.675781 199.609375 C 143.675781 199.363281 143.726562 199.070312 143.726562 198.773438 C 143.726562 198.285156 143.675781 197.84375 143.628906 197.351562 C 143.53125 196.863281 143.429688 196.371094 143.332031 195.882812 L 145.441406 195.589844 C 145.539062 195.882812 145.636719 196.226562 145.6875 196.570312 C 145.734375 196.910156 145.785156 197.253906 145.832031 197.597656 C 145.882812 197.941406 145.882812 198.285156 145.882812 198.628906 C 145.882812 199.707031 145.734375 200.488281 145.488281 201.078125 C 145.246094 201.667969 144.804688 202.058594 144.265625 202.304688 C 143.675781 202.648438 142.941406 202.746094 142.109375 202.746094 Z M 142.011719 202.746094 L 144.558594 200.34375 L 147.011719 200.34375 L 147.011719 202.746094 Z M 147.011719 202.746094 L 147.011719 200.34375 C 147.109375 200.34375 147.207031 200.441406 147.253906 200.6875 C 147.304688 200.882812 147.351562 201.175781 147.351562 201.570312 C 147.351562 201.960938 147.304688 202.253906 147.253906 202.449219 C 147.207031 202.648438 147.109375 202.746094 147.011719 202.746094 Z M 147.011719 202.746094 "/>
<path style=" stroke:none;fill-rule:nonzero;fill:rgb(100%,76.078431%,5.490196%);fill-opacity:1;" d="M 147.011719 202.746094 C 146.910156 202.746094 146.8125 202.648438 146.765625 202.449219 C 146.714844 202.253906 146.667969 201.960938 146.667969 201.570312 C 146.667969 201.226562 146.714844 200.929688 146.765625 200.6875 C 146.8125 200.488281 146.910156 200.34375 147.011719 200.34375 Z M 147.011719 202.746094 L 147.011719 200.34375 L 150.097656 200.34375 L 148.96875 201.421875 L 148.96875 195.589844 L 151.128906 195.589844 L 151.128906 202.695312 L 147.011719 202.695312 Z M 147.5 193.871094 C 147.351562 193.871094 147.207031 193.824219 147.011719 193.675781 C 146.8125 193.53125 146.667969 193.382812 146.519531 193.1875 C 146.371094 192.988281 146.324219 192.84375 146.324219 192.695312 C 146.324219 192.550781 146.371094 192.402344 146.519531 192.207031 C 146.667969 192.011719 146.8125 191.863281 147.011719 191.714844 C 147.207031 191.570312 147.351562 191.519531 147.5 191.519531 C 147.648438 191.519531 147.792969 191.570312 147.988281 191.714844 C 148.1875 191.863281 148.332031 192.011719 148.480469 192.207031 C 148.628906 192.402344 148.675781 192.550781 148.675781 192.695312 C 148.675781 192.84375 148.628906 192.988281 148.480469 193.1875 C 148.332031 193.382812 148.1875 193.53125 147.988281 193.675781 C 147.792969 193.773438 147.597656 193.871094 147.5 193.871094 Z M 150.195312 193.871094 C 150.050781 193.871094 149.902344 193.824219 149.707031 193.675781 C 149.511719 193.53125 149.363281 193.382812 149.214844 193.1875 C 149.070312 192.988281 149.019531 192.84375 149.019531 192.695312 C 149.019531 192.550781 149.070312 192.402344 149.214844 192.207031 C 149.363281 192.011719 149.511719 191.863281 149.707031 191.714844 C 149.902344 191.570312 150.050781 191.519531 150.195312 191.519531 C 150.34375 191.519531 150.488281 191.570312 150.6875 191.714844 C 150.882812 191.863281 151.03125 192.011719 151.175781 192.207031 C 151.324219 192.402344 151.371094 192.550781 151.371094 192.695312 C 151.371094 192.84375 151.324219 192.988281 151.175781 193.1875 C 151.03125 193.382812 150.882812 193.53125 150.6875 193.675781 C 150.488281 193.773438 150.34375 193.871094 150.195312 193.871094 Z M 150.195312 193.871094 "/>
<path style=" stroke:none;fill-rule:nonzero;fill:rgb(100%,76.078431%,5.490196%);fill-opacity:1;" d="M 153.382812 206.960938 L 152.597656 205.050781 C 152.988281 204.851562 153.285156 204.65625 153.53125 204.460938 C 153.726562 204.265625 153.871094 204.019531 153.96875 203.675781 C 154.070312 203.332031 154.070312 202.941406 154.070312 202.402344 L 154.070312 195.589844 L 156.175781 195.589844 L 156.175781 202.402344 C 156.175781 203.1875 156.078125 203.921875 155.882812 204.460938 C 155.6875 205.050781 155.390625 205.539062 155 205.929688 C 154.609375 206.324219 154.070312 206.667969 153.382812 206.960938 Z M 153.382812 206.960938 "/>
<path style=" stroke:none;fill-rule:nonzero;fill:rgb(100%,76.078431%,5.490196%);fill-opacity:1;" d="M 158.53125 202.746094 L 158.53125 193.1875 L 160.6875 193.1875 L 160.6875 200.34375 L 161.863281 200.34375 L 161.863281 202.746094 Z M 161.8125 202.746094 L 161.8125 200.34375 C 161.910156 200.34375 162.011719 200.441406 162.058594 200.6875 C 162.109375 200.882812 162.15625 201.175781 162.15625 201.570312 C 162.15625 201.960938 162.109375 202.253906 162.058594 202.449219 C 162.011719 202.648438 161.910156 202.746094 161.8125 202.746094 Z M 161.8125 202.746094 "/>
<path style=" stroke:none;fill-rule:nonzero;fill:rgb(100%,76.078431%,5.490196%);fill-opacity:1;" d="M 161.8125 202.746094 C 161.714844 202.746094 161.617188 202.648438 161.570312 202.449219 C 161.519531 202.253906 161.46875 201.960938 161.46875 201.570312 C 161.46875 201.226562 161.519531 200.929688 161.570312 200.6875 C 161.617188 200.488281 161.714844 200.34375 161.8125 200.34375 Z M 161.8125 202.746094 L 161.8125 200.34375 L 165.488281 200.34375 L 165.488281 202.746094 Z M 165.539062 202.746094 L 165.539062 200.34375 C 165.636719 200.34375 165.734375 200.441406 165.785156 200.6875 C 165.832031 200.882812 165.882812 201.175781 165.882812 201.570312 C 165.882812 201.960938 165.832031 202.253906 165.785156 202.449219 C 165.6875 202.648438 165.636719 202.746094 165.539062 202.746094 Z M 165.539062 202.746094 "/>
<path style=" stroke:none;fill-rule:nonzero;fill:rgb(100%,76.078431%,5.490196%);fill-opacity:1;" d="M 165.539062 202.746094 C 165.441406 202.746094 165.34375 202.648438 165.292969 202.449219 C 165.246094 202.253906 165.195312 201.960938 165.195312 201.570312 C 165.195312 201.226562 165.246094 200.929688 165.292969 200.6875 C 165.34375 200.488281 165.441406 200.34375 165.539062 200.34375 Z M 165.539062 202.746094 L 165.539062 200.34375 L 169.214844 200.34375 L 169.214844 202.746094 Z M 169.214844 202.746094 L 169.214844 200.34375 C 169.3125 200.34375 169.410156 200.441406 169.460938 200.6875 C 169.511719 200.882812 169.558594 201.175781 169.558594 201.570312 C 169.558594 201.960938 169.511719 202.253906 169.460938 202.449219 C 169.410156 202.648438 169.3125 202.746094 169.214844 202.746094 Z M 169.214844 202.746094 "/>
<path style=" stroke:none;fill-rule:nonzero;fill:rgb(100%,76.078431%,5.490196%);fill-opacity:1;" d="M 169.214844 202.746094 C 169.117188 202.746094 169.019531 202.648438 168.96875 202.449219 C 168.921875 202.253906 168.871094 201.960938 168.871094 201.570312 C 168.871094 201.226562 168.921875 200.929688 168.96875 200.6875 C 169.019531 200.488281 169.117188 200.34375 169.214844 200.34375 Z M 169.214844 202.746094 L 169.214844 200.34375 L 172.890625 200.34375 L 172.890625 202.746094 Z M 172.890625 202.746094 L 172.890625 200.34375 C 172.988281 200.34375 173.089844 200.441406 173.136719 200.6875 C 173.1875 200.882812 173.234375 201.175781 173.234375 201.570312 C 173.234375 201.960938 173.1875 202.253906 173.136719 202.449219 C 173.089844 202.648438 173.039062 202.746094 172.890625 202.746094 Z M 172.890625 202.746094 "/>
<path style=" stroke:none;fill-rule:nonzero;fill:rgb(100%,76.078431%,5.490196%);fill-opacity:1;" d="M 172.890625 202.746094 C 172.792969 202.746094 172.695312 202.648438 172.648438 202.449219 C 172.597656 202.253906 172.550781 201.960938 172.550781 201.570312 C 172.550781 201.226562 172.597656 200.929688 172.648438 200.6875 C 172.695312 200.488281 172.792969 200.34375 172.890625 200.34375 Z M 172.890625 202.746094 L 172.890625 200.34375 L 176.570312 200.34375 L 176.570312 202.746094 Z M 176.617188 202.746094 L 176.617188 200.34375 C 176.714844 200.34375 176.8125 200.441406 176.863281 200.6875 C 176.910156 200.882812 176.960938 201.175781 176.960938 201.570312 C 176.960938 201.960938 176.910156 202.253906 176.863281 202.449219 C 176.765625 202.648438 176.714844 202.746094 176.617188 202.746094 Z M 176.617188 202.746094 "/>
<path style=" stroke:none;fill-rule:nonzero;fill:rgb(100%,76.078431%,5.490196%);fill-opacity:1;" d="M 176.617188 202.746094 C 176.519531 202.746094 176.421875 202.648438 176.371094 202.449219 C 176.324219 202.253906 176.273438 201.960938 176.273438 201.570312 C 176.273438 201.226562 176.324219 200.929688 176.371094 200.6875 C 176.421875 200.488281 176.519531 200.34375 176.617188 200.34375 Z M 176.617188 202.746094 L 176.617188 200.34375 L 179.460938 200.34375 C 179.851562 200.34375 180.246094 200.292969 180.539062 200.148438 C 180.832031 200.050781 181.078125 199.851562 181.324219 199.65625 C 181.519531 199.460938 181.714844 199.214844 181.863281 198.96875 C 182.011719 198.726562 182.109375 198.429688 182.207031 198.136719 L 184.167969 198.824219 C 183.96875 199.558594 183.675781 200.148438 183.382812 200.636719 C 183.039062 201.128906 182.695312 201.570312 182.253906 201.863281 C 181.8125 202.15625 181.371094 202.402344 180.832031 202.550781 C 180.34375 202.695312 179.804688 202.746094 179.265625 202.746094 Z M 184.558594 202.746094 C 184.214844 202.746094 183.96875 202.695312 183.773438 202.550781 C 183.578125 202.402344 183.429688 202.207031 183.332031 201.910156 L 182.402344 199.558594 C 182.253906 199.167969 182.058594 198.824219 181.8125 198.578125 C 181.570312 198.332031 181.273438 198.136719 180.929688 198.039062 C 180.589844 197.941406 180.097656 197.84375 179.558594 197.84375 C 179.3125 197.84375 179.019531 197.84375 178.726562 197.84375 C 178.429688 197.84375 178.089844 197.890625 177.746094 197.941406 L 177.449219 195.589844 C 177.84375 195.539062 178.234375 195.488281 178.578125 195.488281 C 178.921875 195.441406 179.265625 195.441406 179.558594 195.441406 C 180.441406 195.441406 181.175781 195.539062 181.8125 195.785156 C 182.449219 196.03125 182.941406 196.371094 183.332031 196.8125 C 183.726562 197.304688 184.070312 197.890625 184.363281 198.675781 L 185 200.390625 L 185.882812 200.390625 L 185.882812 202.792969 L 184.558594 202.792969 Z M 181.226562 206.324219 C 181.078125 206.324219 180.929688 206.273438 180.734375 206.128906 C 180.539062 205.980469 180.390625 205.832031 180.246094 205.636719 C 180.097656 205.441406 180.050781 205.292969 180.050781 205.148438 C 180.050781 205 180.097656 204.851562 180.246094 204.65625 C 180.390625 204.460938 180.539062 204.3125 180.734375 204.167969 C 180.929688 204.019531 181.078125 203.96875 181.226562 203.96875 C 181.371094 203.96875 181.519531 204.019531 181.714844 204.167969 C 181.910156 204.3125 182.058594 204.460938 182.207031 204.65625 C 182.351562 204.851562 182.402344 205 182.402344 205.148438 C 182.402344 205.292969 182.351562 205.441406 182.207031 205.636719 C 182.058594 205.832031 181.910156 205.980469 181.714844 206.128906 C 181.519531 206.226562 181.371094 206.324219 181.226562 206.324219 Z M 185.832031 202.746094 L 185.832031 200.34375 C 185.929688 200.34375 186.03125 200.441406 186.078125 200.6875 C 186.128906 200.882812 186.175781 201.175781 186.175781 201.570312 C 186.175781 201.960938 186.128906 202.253906 186.078125 202.449219 C 185.980469 202.648438 185.929688 202.746094 185.832031 202.746094 Z M 185.832031 202.746094 "/>
<path style=" stroke:none;fill-rule:nonzero;fill:rgb(100%,76.078431%,5.490196%);fill-opacity:1;" d="M 185.832031 202.746094 C 185.734375 202.746094 185.636719 202.648438 185.589844 202.449219 C 185.539062 202.253906 185.488281 201.960938 185.488281 201.570312 C 185.488281 201.226562 185.539062 200.929688 185.589844 200.6875 C 185.636719 200.488281 185.734375 200.34375 185.832031 200.34375 Z M 185.832031 202.746094 L 185.832031 200.34375 L 188.921875 200.34375 L 187.792969 201.421875 L 187.792969 195.589844 L 189.949219 195.589844 L 189.949219 202.695312 L 185.832031 202.695312 Z M 186.078125 193.871094 C 185.929688 193.871094 185.785156 193.824219 185.589844 193.675781 C 185.390625 193.53125 185.246094 193.382812 185.097656 193.1875 C 184.949219 192.988281 184.902344 192.84375 184.902344 192.695312 C 184.902344 192.550781 184.949219 192.402344 185.097656 192.207031 C 185.246094 192.011719 185.390625 191.863281 185.589844 191.714844 C 185.785156 191.570312 185.929688 191.519531 186.078125 191.519531 C 186.226562 191.519531 186.371094 191.570312 186.570312 191.714844 C 186.765625 191.863281 186.910156 192.011719 187.058594 192.207031 C 187.207031 192.402344 187.253906 192.550781 187.253906 192.695312 C 187.253906 192.84375 187.207031 192.988281 187.058594 193.1875 C 186.910156 193.382812 186.765625 193.53125 186.570312 193.675781 C 186.421875 193.773438 186.226562 193.871094 186.078125 193.871094 Z M 188.824219 193.871094 C 188.675781 193.871094 188.53125 193.824219 188.332031 193.675781 C 188.136719 193.53125 187.988281 193.382812 187.84375 193.1875 C 187.695312 192.988281 187.648438 192.84375 187.648438 192.695312 C 187.648438 192.550781 187.695312 192.402344 187.84375 192.207031 C 187.988281 192.011719 188.136719 191.863281 188.332031 191.714844 C 188.53125 191.570312 188.675781 191.519531 188.824219 191.519531 C 188.96875 191.519531 189.117188 191.570312 189.3125 191.714844 C 189.511719 191.863281 189.65625 192.011719 189.804688 192.207031 C 189.949219 192.402344 190 192.550781 190 192.695312 C 190 192.84375 189.949219 192.988281 189.804688 193.1875 C 189.65625 193.382812 189.511719 193.53125 189.3125 193.675781 C 189.117188 193.773438 188.96875 193.871094 188.824219 193.871094 Z M 188.824219 193.871094 "/>
<path style=" stroke:none;fill-rule:evenodd;fill:rgb(100%,76.078431%,5.490196%);fill-opacity:1;" d="M 157.84375 98.285156 L 184.460938 113.628906 L 175.929688 118.53125 L 166.863281 113.285156 L 157.84375 118.53125 L 156.03125 119.609375 L 151.175781 122.402344 L 149.363281 123.480469 L 140.832031 118.578125 L 142.648438 117.5 L 147.5 114.707031 L 149.3125 113.628906 L 158.332031 108.382812 L 149.265625 103.136719 Z M 175.929688 118.53125 L 184.460938 123.429688 L 184.460938 154.167969 L 175.929688 149.265625 L 175.929688 138.824219 L 166.863281 133.578125 L 165.050781 132.5 L 160.195312 129.707031 L 158.382812 128.628906 L 158.382812 118.773438 L 160.195312 119.851562 L 165.050781 122.648438 L 166.863281 123.726562 L 175.929688 128.96875 Z M 175.929688 149.265625 L 175.929688 159.117188 L 149.3125 174.460938 L 149.3125 164.609375 L 158.382812 159.363281 L 158.382812 139.117188 L 166.910156 134.214844 L 166.910156 154.460938 Z M 149.3125 164.609375 L 140.785156 169.511719 L 114.214844 154.167969 L 122.746094 149.265625 L 131.765625 154.511719 L 140.832031 149.265625 L 142.648438 148.1875 L 147.5 145.390625 L 149.3125 144.3125 L 157.84375 149.214844 L 156.03125 150.292969 L 151.175781 153.089844 L 149.363281 154.167969 L 140.34375 159.410156 Z M 122.746094 149.265625 L 114.214844 144.363281 L 114.214844 113.628906 L 122.746094 118.53125 L 122.746094 128.96875 L 131.765625 134.214844 L 133.578125 135.292969 L 138.429688 138.089844 L 140.246094 139.167969 L 140.246094 149.019531 L 138.429688 147.941406 L 133.578125 145.148438 L 131.765625 144.070312 L 122.695312 138.824219 Z M 122.746094 118.53125 L 122.746094 108.675781 L 149.363281 93.332031 L 149.363281 103.1875 L 140.34375 108.429688 L 140.34375 128.675781 L 131.8125 133.578125 L 131.8125 113.332031 Z M 122.746094 118.53125 "/>
</g>
</svg>
